<?xml version="1.0" encoding="utf-8"?>
<!-- Generator: Adobe Illustrator 25.0.0, SVG Export Plug-In . SVG Version: 6.00 Build 0)  -->
<svg version="1.1" id="Layer_1" xmlns="http://www.w3.org/2000/svg" xmlns:xlink="http://www.w3.org/1999/xlink" x="0px" y="0px"
	 viewBox="0 0 405.6 446.6" style="enable-background:new 0 0 405.6 446.6;" xml:space="preserve">
<style type="text/css">
	.st0{opacity:0.7;fill:#FFFFFF;enable-background:new    ;}
	.st1{fill:#92E3A9;}
	.st2{fill:none;stroke:#263238;stroke-linecap:round;stroke-linejoin:round;}
	.st3{fill:#FFFFFF;}
	.st4{clip-path:url(#SVGID_2_);}
	.st5{opacity:0.2;fill-opacity:0.7;enable-background:new    ;}
	.st6{fill:none;stroke:#263238;stroke-width:2;stroke-linecap:round;stroke-linejoin:round;}
	.st7{fill:#263238;}
	.st8{fill:none;stroke:#263238;stroke-width:1.0012;stroke-linecap:round;stroke-linejoin:round;stroke-miterlimit:4.005;}
	.st9{clip-path:url(#SVGID_4_);}
	.st10{fill:#FFFFFF;stroke:#263238;stroke-linecap:round;stroke-linejoin:round;}
	.st11{fill:#757575;stroke:#263238;stroke-linecap:round;stroke-linejoin:round;}
	.st12{fill:#999999;stroke:#263238;stroke-linecap:round;stroke-linejoin:round;}
	.st13{clip-path:url(#SVGID_6_);}
	.st14{clip-path:url(#SVGID_8_);}
	.st15{clip-path:url(#SVGID_10_);}
	.st16{opacity:0.3;enable-background:new    ;}
	.st17{clip-path:url(#SVGID_12_);}
	.st18{fill:#92E3A9;stroke:#263238;stroke-linecap:round;stroke-linejoin:round;}
	.st19{opacity:0.4;fill:#FFFFFF;stroke:#263238;stroke-linecap:round;stroke-linejoin:round;enable-background:new    ;}
	.st20{clip-path:url(#SVGID_14_);}
	.st21{fill:#263238;stroke:#263238;stroke-linecap:round;stroke-linejoin:round;}
	.st22{fill:none;stroke:#FFFFFF;stroke-linecap:round;stroke-linejoin:round;}
	.st23{opacity:0.6;fill:#FFFFFF;stroke:#263238;stroke-linecap:round;stroke-linejoin:round;enable-background:new    ;}
	.st24{opacity:0.4;}
	.st25{clip-path:url(#SVGID_16_);}
	.st26{clip-path:url(#SVGID_18_);}
	.st27{opacity:0.5;fill-opacity:0.7;enable-background:new    ;}
	.st28{clip-path:url(#SVGID_20_);}
	.st29{clip-path:url(#SVGID_22_);}
	.st30{clip-path:url(#SVGID_24_);}
	.st31{opacity:0.4;fill-opacity:0.7;enable-background:new    ;}
	.st32{clip-path:url(#SVGID_26_);}
</style>
<g id="Background_Simple">
	<path class="st0" d="M20.7,141.6c0,0-27.9,72,11.3,144.5s119.9,110.8,184.5,143.6s131.7,16.8,163.5-36.8s-11.8-91.9-11.9-168.4
		s11.5-96.7-30-161.4S195.1-15.9,118.2,32S20.7,141.6,20.7,141.6z"/>
	<path class="st1" d="M368.1,234.4c0-76.5,11.5-96.7-30-161.4S195.1-5.9,118.2,42S20.7,151.6,20.7,151.6s-27.9,72,11.3,144.5
		c35.8,66.3,106.4,104,167.6,135h156.5c9.5-8,17.6-17.6,23.9-28.3C411.9,349.1,368.2,310.9,368.1,234.4z"/>
	<path class="st0" d="M368.1,234.4c0-76.5,11.5-96.7-30-161.4S195.1-5.9,118.2,42S20.7,151.6,20.7,151.6s-27.9,72,11.3,144.5
		c35.8,66.3,106.4,104,167.6,135h156.5c9.5-8,17.6-17.6,23.9-28.3C411.9,349.1,368.2,310.9,368.1,234.4z"/>
</g>
<g id="Clocks">
	<path class="st2" d="M182.6,25.2c1.4,5.3,0.7-4.5,3.3-16.6s7.2-7.2,7.2-7.2"/>
	<line class="st2" x1="181.8" y1="12.9" x2="190.1" y2="9.5"/>
	<path class="st2" d="M196.9,5.4c0,0-5,10.3,2.5,14.6"/>
	<path class="st2" d="M204,2.5c0,0,8.2,4.5,3.1,14.4"/>
	<line class="st2" x1="198.4" y1="8.9" x2="204.2" y2="13.2"/>
	<line class="st2" x1="202.9" y1="7" x2="198.4" y2="14.3"/>
	<path class="st2" d="M24.1,266.9c0,0-13.9-0.2-14,11.8"/>
	<path class="st2" d="M22.9,274.5c-0.3-1.8-6.3-4-7.4,0.6s6.5,1.9,8.8-0.3c0,0-4.3,4.2-3,5.4"/>
	<path class="st2" d="M23.8,281.5c0,0-1.8,2.3-3.8,1.2"/>
	<path class="st2" d="M36,273.5l-10.5,10.6c0,0,5.3-5.3,8.3-3.6c3.8,2.1-1.1,7.8-5.2,3.7"/>
	<path class="st2" d="M41.3,276.3c0,0,2.8,12.7-11.5,13.1"/>
	<polyline class="st2" points="227.8,60.6 232.9,61.4 232.9,72.9 244,52.8 261.4,55.6 	"/>
	<line class="st2" x1="245.9" y1="61.6" x2="253.5" y2="75.1"/>
	<line class="st2" x1="255.5" y1="63.2" x2="241.8" y2="73.2"/>
	<path class="st2" d="M159,81c-1.3-1.6-8.7-0.5-7.2,4.8c1.5,5.3,7.6-1.8,8.8-5.3c0,0-2.1,6.7,0,7.2"/>
	<path class="st2" d="M164.6,75.6l-1.7,5.9c0,0,0.8-3,2.3-3c1.8,0,1.1,3.1-1.1,2.4"/>
	<polyline class="st2" points="304.7,148.3 301.2,161 308.9,169.3 	"/>
	<line class="st2" x1="309.1" y1="153.4" x2="317.9" y2="160.8"/>
	<line class="st2" x1="315.1" y1="151.6" x2="311.3" y2="160.9"/>
	<path class="st2" d="M321.3,159.8c0,0,0.1,2.6-1.1,3"/>
	<line class="st2" x1="322.4" y1="150.5" x2="327.7" y2="154.5"/>
	<line class="st2" x1="329.6" y1="147.3" x2="324.4" y2="166.1"/>
	<polyline class="st2" points="329.9,140.8 338.4,150.4 334.8,160.9 	"/>
	<polygon class="st2" points="96.4,388.5 108.6,352 123.5,368.6 	"/>
	<polyline class="st2" points="119.9,371.2 116.7,367.7 120.1,364.8 	"/>
	
		<ellipse transform="matrix(0.9239 -0.3827 0.3827 0.9239 -64.2837 20.3674)" class="st2" cx="19.1" cy="171.8" rx="12.5" ry="12.5"/>
	<circle class="st2" cx="32.9" cy="160.8" r="13.9"/>
	<line class="st2" x1="21.5" y1="159.5" x2="19.8" y2="165.4"/>
	<line class="st2" x1="23.9" y1="160.2" x2="21.5" y2="168.7"/>
	<line class="st2" x1="26.4" y1="161.7" x2="23.9" y2="171.2"/>
	<line class="st2" x1="29.2" y1="164.5" x2="27.4" y2="173.6"/>
	<line class="st2" x1="30.8" y1="167.4" x2="29.2" y2="174.2"/>
	<path class="st2" d="M7.1,155.8c-1.1-0.3-4.1,2.5-1.8,4.4s2.9-3.2,2.3-5.1c0,0,1.2,3.7,2.2,3.2"/>
	<path class="st2" d="M23.2,139.7l4,7.3c0,0-2-3.6-0.6-5c1.7-1.7,4,1.9,1.1,3.4"/>
	<line class="st2" x1="96.3" y1="138.9" x2="102" y2="144.2"/>
	<line class="st2" x1="102" y1="137.5" x2="97.2" y2="144.5"/>
	<line class="st2" x1="107.5" y1="139.5" x2="113.2" y2="137.4"/>
	<line class="st2" x1="115.9" y1="131.5" x2="119.3" y2="134.5"/>
	<line class="st2" x1="122" y1="127.8" x2="117.6" y2="142.8"/>
	<path class="st2" d="M368.9,124.8l-0.2-11.4h8.6c0,0-4.8,2.6-2.6,8.8s5.7,2.6,5.7,2.6"/>
	<polygon class="st2" points="354.3,319.6 364.1,312.9 377.1,313.8 377.9,330.3 368.4,337.1 356.6,336.2 	"/>
	<polyline class="st2" points="356.6,336.2 366.1,329.4 377.9,330.3 	"/>
	<line class="st2" x1="366.1" y1="329.4" x2="364.1" y2="312.9"/>
	<polyline class="st2" points="354.3,319.6 367.3,321.1 377.1,313.8 	"/>
	<line class="st2" x1="367.3" y1="321.1" x2="368.4" y2="337.1"/>
	<polygon class="st2" points="356.1,195.9 355.7,217.9 374.9,209.1 	"/>
	<line class="st2" x1="356.1" y1="195.9" x2="365.3" y2="213.4"/>
	<polyline class="st2" points="363.8,210.6 366,209.5 367.5,212.5 	"/>
	<line class="st2" x1="188.3" y1="193.8" x2="196.2" y2="202.3"/>
	<line class="st2" x1="196.3" y1="192.6" x2="189.6" y2="201.8"/>
	<path class="st2" d="M199.5,188.2c0.8-0.4,1.7,0,2.1,0.8c0.1,0.1,0.1,0.3,0.1,0.4c0.4,1.9-2.8,4.4-2.8,4.4h4.5"/>
	<path class="st2" d="M64.3,66c0.8-9.8,6.5-18.6,15.2-23.3"/>
	<path class="st2" d="M86.4,96.5c-7.3-1.7-13.6-6.3-17.6-12.6"/>
	<path class="st2" d="M122.1,70.6c-1.3,15.9-15.2,27.8-31.2,26.6"/>
	<path class="st2" d="M95.5,39.4c13.6,1.1,24.5,11.5,26.4,24.9"/>
	<path class="st2" d="M105.7,90.6c-12.3,6.9-27.9,2.5-34.8-9.8c-2.5-4.4-3.6-9.5-3.2-14.6"/>
	<path class="st2" d="M69.3,59.1c5.1-13.2,19.9-19.8,33-14.7s19.8,19.9,14.7,33c-1.1,2.9-2.7,5.6-4.8,7.9"/>
	<polyline class="st2" points="90.7,49.9 93.2,68.3 107.3,63.9 	"/>
	<path class="st2" d="M313.7,104.1c-11.1,0.1-20.1-8.8-20.3-19.9c-0.1-5.7,2.3-11.2,6.6-15"/>
	<path class="st2" d="M332.5,90.5c-2,5.8-6.5,10.4-12.3,12.4"/>
	<path class="st2" d="M306.8,65.1c10.4-3.7,21.9,1.8,25.6,12.3"/>
	<path class="st2" d="M323.4,69.3c8.1,5.5,10.2,16.5,4.8,24.6c-5.5,8.1-16.5,10.2-24.6,4.8c-1.2-0.8-2.2-1.7-3.2-2.8"/>
	<path class="st2" d="M296.8,89.9c-3.2-9.2,1.6-19.3,10.8-22.6c3.3-1.2,6.9-1.3,10.3-0.4"/>
	<polyline class="st2" points="306.7,73.1 313.5,84 307.3,92 	"/>
	<path class="st2" d="M171.8,382.9c0-5.3,2.6-10.3,7-13.3"/>
	<path class="st2" d="M199.5,394c-6.1,6.4-16.3,6.7-22.7,0.6c-1.9-1.8-3.3-4-4.1-6.5"/>
	<path class="st2" d="M187.8,366.8c8.9,0,16.1,7.2,16.1,16.1"/>
	<path class="st2" d="M187.8,397.1c-7.8,0-14.2-6.4-14.2-14.2l0,0"/>
	<path class="st2" d="M176.8,374c4.9-6.1,13.9-7,20-2.1c6.1,4.9,7,13.9,2.1,20c-1.1,1.4-2.5,2.6-4.1,3.4"/>
	<polyline class="st2" points="185.6,392.6 187.8,382.9 184.8,375 	"/>
	<line class="st2" x1="0.5" y1="431.4" x2="405.1" y2="431.4"/>
</g>
<g id="Exam_sheets">
	<polygon class="st3" points="205.8,220.6 199.2,346 115.7,341.6 116.4,328.4 122.3,216.2 174.9,218.9 	"/>
	<g>
		<defs>
			<polygon id="SVGID_1_" points="205.8,220.6 199.2,346 115.7,341.7 116.4,328.4 122.3,216.2 174.9,218.9 			"/>
		</defs>
		<clipPath id="SVGID_2_">
			<use xlink:href="#SVGID_1_"  style="overflow:visible;"/>
		</clipPath>
		<g class="st4">
			<polygon class="st5" points="179.7,294.1 160.9,295.6 166.4,319.3 116.4,328.4 122.3,216.2 174.9,218.9 			"/>
		</g>
	</g>
	<polygon class="st2" points="205.8,220.6 199.2,346 115.7,341.6 116.4,328.4 122.3,216.2 174.9,218.9 	"/>
	<line class="st6" x1="128.2" y1="224.8" x2="149.9" y2="225.9"/>
	<line class="st6" x1="128" y1="228.9" x2="142.7" y2="229.7"/>
	<line class="st6" x1="132.7" y1="239.1" x2="195.2" y2="242.3"/>
	<line class="st6" x1="132.5" y1="243.2" x2="195" y2="246.5"/>
	<line class="st6" x1="132.3" y1="248.1" x2="185.6" y2="250.9"/>
	
		<rect x="132.1" y="252.7" transform="matrix(5.251025e-02 -0.9986 0.9986 5.251025e-02 -127.2377 376.3162)" class="st2" width="5.1" height="5.1"/>
	
		<rect x="141.4" y="253.1" transform="matrix(5.251025e-02 -0.9986 0.9986 5.251025e-02 -118.9922 385.9737)" class="st2" width="5.1" height="5.1"/>
	
		<rect x="150.6" y="253.6" transform="matrix(5.251025e-02 -0.9986 0.9986 5.251025e-02 -110.7566 395.6396)" class="st2" width="5.1" height="5.1"/>
	
		<rect x="159.8" y="254.1" transform="matrix(5.251025e-02 -0.9986 0.9986 5.251025e-02 -102.52 405.2866)" class="st2" width="5.1" height="5.1"/>
	<path class="st7" d="M129.4,238.9c0,0.7-0.6,1.2-1.3,1.2c0,0,0,0,0,0c-0.7,0-1.2-0.6-1.2-1.3c0-0.7,0.6-1.2,1.3-1.2
		C128.9,237.6,129.4,238.2,129.4,238.9C129.4,238.9,129.4,238.9,129.4,238.9z"/>
	<line class="st6" x1="131.5" y1="263.4" x2="193.9" y2="266.7"/>
	<line class="st6" x1="131.2" y1="267.5" x2="193.7" y2="270.8"/>
	<line class="st6" x1="131" y1="272.4" x2="184.3" y2="275.2"/>
	
		<rect x="130.9" y="277" transform="matrix(5.251025e-02 -0.9986 0.9986 5.251025e-02 -152.7622 398.0938)" class="st2" width="5.1" height="5.1"/>
	
		<rect x="140.1" y="277.5" transform="matrix(5.251025e-02 -0.9986 0.9986 5.251025e-02 -144.5061 407.7413)" class="st2" width="5.1" height="5.1"/>
	
		<rect x="149.3" y="278" transform="matrix(5.251025e-02 -0.9986 0.9986 5.251025e-02 -136.2705 417.4073)" class="st2" width="5.1" height="5.1"/>
	
		<rect x="158.5" y="278.5" transform="matrix(5.251025e-02 -0.9986 0.9986 5.251025e-02 -128.0244 427.0642)" class="st2" width="5.1" height="5.1"/>
	<path class="st7" d="M128.1,263.2c0,0.7-0.6,1.2-1.3,1.2c0,0,0,0,0,0c-0.7,0-1.3-0.6-1.2-1.3c0-0.7,0.6-1.3,1.3-1.2
		S128.2,262.5,128.1,263.2C128.1,263.2,128.1,263.2,128.1,263.2z"/>
	<line class="st6" x1="130.2" y1="287.7" x2="192.7" y2="291"/>
	<line class="st6" x1="130" y1="291.9" x2="192.5" y2="295.2"/>
	<line class="st6" x1="129.7" y1="296.8" x2="183" y2="299.5"/>
	
		<rect x="129.6" y="301.3" transform="matrix(5.251025e-02 -0.9986 0.9986 5.251025e-02 -178.2472 419.872)" class="st2" width="5.1" height="5.1"/>
	
		<rect x="139.9" y="301.8" transform="matrix(4.993762e-02 -0.9988 0.9988 4.993762e-02 -168.635 431.3901)" class="st8" width="5.1" height="5.1"/>
	
		<rect x="148" y="302.3" transform="matrix(5.251025e-02 -0.9986 0.9986 5.251025e-02 -161.7845 439.1749)" class="st2" width="5.1" height="5.1"/>
	
		<rect x="157.2" y="302.8" transform="matrix(5.251025e-02 -0.9986 0.9986 5.251025e-02 -153.52 448.8524)" class="st2" width="5.1" height="5.1"/>
	<path class="st7" d="M126.9,287.5c0,0.7-0.6,1.2-1.3,1.2c0,0,0,0,0,0c-0.7,0-1.3-0.5-1.3-1.3c0-0.7,0.5-1.3,1.3-1.3
		c0.1,0,0.1,0,0.2,0C126.4,286.2,126.9,286.8,126.9,287.5C126.9,287.5,126.9,287.5,126.9,287.5z"/>
	<line class="st6" x1="128.9" y1="312.7" x2="191.4" y2="316"/>
	<line class="st6" x1="128.6" y1="316.9" x2="191.1" y2="320.2"/>
	<line class="st6" x1="128.4" y1="321.8" x2="181.7" y2="324.6"/>
	
		<rect x="128.3" y="326.4" transform="matrix(5.251025e-02 -0.9986 0.9986 5.251025e-02 -204.5009 442.2539)" class="st2" width="5.1" height="5.1"/>
	
		<rect x="137.5" y="326.8" transform="matrix(5.251025e-02 -0.9986 0.9986 5.251025e-02 -196.2464 451.9208)" class="st2" width="5.1" height="5.1"/>
	
		<rect x="146.7" y="327.3" transform="matrix(5.251025e-02 -0.9986 0.9986 5.251025e-02 -188.0003 461.5778)" class="st2" width="5.1" height="5.1"/>
	
		<rect x="155.9" y="327.8" transform="matrix(5.251025e-02 -0.9986 0.9986 5.251025e-02 -179.7647 471.2437)" class="st2" width="5.1" height="5.1"/>
	<path class="st7" d="M125.5,312.6c0,0.7-0.6,1.2-1.3,1.2c-0.7,0-1.2-0.6-1.2-1.3s0.6-1.2,1.3-1.2
		C125,311.3,125.6,311.9,125.5,312.6L125.5,312.6z"/>
	<polyline class="st6" points="134,254.6 134.7,255.8 137.4,252.8 	"/>
	<polyline class="st6" points="151.2,279.6 151.8,280.8 154.6,277.8 	"/>
	<polyline class="st6" points="159.8,305.3 160.4,306.5 163.2,303.5 	"/>
	<polyline class="st6" points="139.4,328.2 140.1,329.4 142.8,326.4 	"/>
	<polygon class="st3" points="150.3,310.5 69.8,332.9 36.1,211.8 69.5,202.6 116.7,189.5 147.2,299.3 	"/>
	<g>
		<defs>
			<polygon id="SVGID_3_" points="150.3,310.5 69.8,332.9 36.1,211.8 69.5,202.6 116.7,189.5 147.2,299.3 			"/>
		</defs>
		<clipPath id="SVGID_4_">
			<use xlink:href="#SVGID_3_"  style="overflow:visible;"/>
		</clipPath>
		<g class="st9">
			<polygon class="st5" points="147.2,299.3 84.9,303.3 69.5,202.6 116.7,189.5 			"/>
		</g>
	</g>
	<polygon class="st2" points="150.3,310.5 69.8,332.9 36.1,211.8 69.5,202.6 116.7,189.5 147.2,299.3 	"/>
	<line class="st6" x1="44.4" y1="218.1" x2="65.4" y2="212.3"/>
	<line class="st6" x1="45.5" y1="222.1" x2="59.8" y2="218.2"/>
	<line class="st6" x1="53.3" y1="230.2" x2="113.6" y2="213.5"/>
	<line class="st6" x1="54.4" y1="234.2" x2="114.7" y2="217.5"/>
	<line class="st6" x1="55.7" y1="238.9" x2="107.1" y2="224.6"/>
	
		<rect x="57.7" y="242.4" transform="matrix(0.9635 -0.2677 0.2677 0.9635 -63.3711 25.0849)" class="st2" width="5.1" height="5.1"/>
	
		<rect x="66.6" y="239.9" transform="matrix(0.9635 -0.2677 0.2677 0.9635 -62.3824 27.3757)" class="st2" width="5.1" height="5.1"/>
	
		<rect x="75.5" y="237.4" transform="matrix(0.9635 -0.2677 0.2677 0.9635 -61.3967 29.6642)" class="st2" width="5.1" height="5.1"/>
	
		<rect x="84.4" y="234.9" transform="matrix(0.9635 -0.2677 0.2677 0.9635 -60.4117 31.9528)" class="st2" width="5.1" height="5.1"/>
	<path class="st7" d="M50.1,231.1c0.2,0.7-0.2,1.4-0.9,1.6s-1.4-0.2-1.6-0.9c-0.2-0.7,0.2-1.4,0.9-1.6
		C49.2,230,49.9,230.4,50.1,231.1z"/>
	<line class="st6" x1="59.8" y1="253.7" x2="120.1" y2="236.9"/>
	<line class="st6" x1="60.9" y1="257.7" x2="121.2" y2="240.9"/>
	<line class="st6" x1="62.2" y1="262.4" x2="113.7" y2="248.1"/>
	
		<rect x="64.3" y="265.8" transform="matrix(0.9635 -0.2677 0.2677 0.9635 -69.4161 27.6889)" class="st2" width="5.1" height="5.1"/>
	
		<rect x="73.2" y="263.4" transform="matrix(0.9635 -0.2677 0.2677 0.9635 -68.4304 29.9774)" class="st2" width="5.1" height="5.1"/>
	<rect x="82" y="260.9" transform="matrix(0.9635 -0.2677 0.2677 0.9635 -67.4447 32.2659)" class="st2" width="5.1" height="5.1"/>
	
		<rect x="90.9" y="258.4" transform="matrix(0.9635 -0.2677 0.2677 0.9635 -66.456 34.5567)" class="st2" width="5.1" height="5.1"/>
	<path class="st7" d="M56.6,254.6c0.2,0.7-0.2,1.4-0.9,1.6c-0.7,0.2-1.4-0.2-1.6-0.9c-0.2-0.7,0.2-1.4,0.9-1.6c0,0,0,0,0,0
		C55.7,253.5,56.4,253.9,56.6,254.6C56.6,254.6,56.6,254.6,56.6,254.6z"/>
	<line class="st6" x1="66.3" y1="277.2" x2="126.6" y2="260.4"/>
	<line class="st6" x1="67.4" y1="281.2" x2="127.8" y2="264.4"/>
	<line class="st6" x1="68.8" y1="285.9" x2="120.2" y2="271.6"/>
	
		<rect x="70.8" y="289.3" transform="matrix(0.9635 -0.2677 0.2677 0.9635 -75.4614 30.2903)" class="st2" width="5.1" height="5.1"/>
	
		<rect x="79.7" y="286.8" transform="matrix(0.9635 -0.2677 0.2677 0.9635 -74.4757 32.5788)" class="st2" width="5.1" height="5.1"/>
	
		<rect x="88.6" y="284.4" transform="matrix(0.9635 -0.2677 0.2677 0.9635 -73.4897 34.8699)" class="st2" width="5.1" height="5.1"/>
	
		<rect x="97.5" y="281.9" transform="matrix(0.9635 -0.2677 0.2677 0.9635 -72.504 37.1584)" class="st2" width="5.1" height="5.1"/>
	<path class="st7" d="M63.1,278.1c0.2,0.7-0.2,1.4-0.9,1.6s-1.4-0.2-1.6-0.9c-0.2-0.7,0.2-1.4,0.9-1.6c0,0,0,0,0,0
		C62.2,277,62.9,277.4,63.1,278.1C63.1,278,63.1,278,63.1,278.1z"/>
	<line class="st6" x1="73" y1="301.3" x2="133.3" y2="284.5"/>
	<line class="st6" x1="74.2" y1="305.3" x2="134.5" y2="288.6"/>
	<line class="st6" x1="75.5" y1="310" x2="126.9" y2="295.7"/>
	
		<rect x="77.5" y="313.4" transform="matrix(0.9635 -0.2677 0.2677 0.9635 -81.6829 32.9689)" class="st2" width="5.1" height="5.1"/>
	<rect x="86.4" y="311" transform="matrix(0.9635 -0.2677 0.2677 0.9635 -80.6968 35.2601)" class="st2" width="5.1" height="5.1"/>
	
		<rect x="95.3" y="308.5" transform="matrix(0.9635 -0.2677 0.2677 0.9635 -79.7111 37.5485)" class="st2" width="5.1" height="5.1"/>
	
		<rect x="104.2" y="306" transform="matrix(0.9635 -0.2677 0.2677 0.9635 -78.7251 39.8397)" class="st2" width="5.1" height="5.1"/>
	<path class="st7" d="M69.8,302.2c0.2,0.7-0.2,1.4-0.9,1.6c-0.7,0.2-1.4-0.2-1.6-0.9s0.2-1.4,0.9-1.6c0,0,0,0,0,0
		C68.9,301.1,69.6,301.5,69.8,302.2C69.8,302.2,69.8,302.2,69.8,302.2z"/>
	<polyline class="st6" points="67.8,242.3 68.8,243.1 70.4,239.4 	"/>
	<polyline class="st6" points="65.4,268.5 66.4,269.3 68,265.6 	"/>
	<polyline class="st6" points="71.9,291.7 72.9,292.5 74.5,288.9 	"/>
	<polyline class="st6" points="96.4,310.7 97.4,311.6 99,307.9 	"/>
	
		<rect x="80.8" y="165.2" transform="matrix(0.9954 -9.567202e-02 9.567202e-02 0.9954 -21.2548 12.7726)" class="st10" width="83.6" height="125.7"/>
	<line class="st6" x1="82" y1="177.1" x2="103.7" y2="175"/>
	<line class="st6" x1="82.4" y1="181.3" x2="97.2" y2="179.9"/>
	<line class="st6" x1="88.7" y1="190.6" x2="150.9" y2="184.6"/>
	<line class="st6" x1="89.1" y1="194.8" x2="151.4" y2="188.8"/>
	<line class="st6" x1="89.5" y1="199.6" x2="142.6" y2="194.5"/>
	
		<rect x="90.5" y="203.7" transform="matrix(0.9954 -9.567202e-02 9.567202e-02 0.9954 -19.3075 9.8435)" class="st2" width="5.1" height="5.1"/>
	
		<rect x="99.6" y="202.8" transform="matrix(0.9954 -9.567202e-02 9.567202e-02 0.9954 -19.1808 10.7181)" class="st2" width="5.1" height="5.1"/>
	
		<rect x="108.8" y="202" transform="matrix(0.9954 -9.567202e-02 9.567202e-02 0.9954 -19.0549 11.5936)" class="st2" width="5.1" height="5.1"/>
	
		<rect x="118" y="201.1" transform="matrix(0.9954 -9.567202e-02 9.567202e-02 0.9954 -18.9272 12.4671)" class="st2" width="5.1" height="5.1"/>
	<path class="st7" d="M85.3,190.9c0.1,0.7-0.4,1.3-1.1,1.4c-0.7,0.1-1.3-0.4-1.4-1.1c-0.1-0.7,0.4-1.3,1.1-1.4c0,0,0,0,0,0
		C84.7,189.7,85.3,190.2,85.3,190.9C85.3,190.9,85.3,190.9,85.3,190.9z"/>
	<line class="st6" x1="91" y1="214.8" x2="153.3" y2="208.9"/>
	<line class="st6" x1="91.4" y1="219" x2="153.7" y2="213"/>
	<line class="st6" x1="91.8" y1="223.9" x2="145" y2="218.7"/>
	
		<rect x="92.8" y="228" transform="matrix(0.9954 -9.567202e-02 9.567202e-02 0.9954 -21.6164 10.1785)" class="st2" width="5.1" height="5.1"/>
	
		<rect x="102" y="227.1" transform="matrix(0.9954 -9.567202e-02 9.567202e-02 0.9954 -21.4907 11.0522)" class="st2" width="5.1" height="5.1"/>
	
		<rect x="111.1" y="226.2" transform="matrix(0.9954 -9.567202e-02 9.567202e-02 0.9954 -21.364 11.9267)" class="st2" width="5.1" height="5.1"/>
	
		<rect x="120.3" y="225.3" transform="matrix(0.9954 -9.567202e-02 9.567202e-02 0.9954 -21.2381 12.8013)" class="st2" width="5.1" height="5.1"/>
	<path class="st7" d="M87.7,215.2c0.1,0.7-0.4,1.3-1.1,1.4c-0.7,0.1-1.3-0.4-1.4-1.1c-0.1-0.7,0.4-1.3,1.1-1.4c0,0,0,0,0,0
		C87,213.9,87.6,214.5,87.7,215.2z"/>
	<line class="st6" x1="93.3" y1="239.1" x2="155.6" y2="233.1"/>
	<line class="st6" x1="93.7" y1="243.2" x2="156" y2="237.3"/>
	<line class="st6" x1="94.2" y1="248.1" x2="147.3" y2="243"/>
	
		<rect x="95.1" y="252.2" transform="matrix(0.9954 -9.567202e-02 9.567202e-02 0.9954 -23.9263 10.5126)" class="st2" width="5.1" height="5.1"/>
	
		<rect x="104.3" y="251.3" transform="matrix(0.9954 -9.567202e-02 9.567202e-02 0.9954 -23.7997 11.3862)" class="st2" width="5.1" height="5.1"/>
	
		<rect x="113.5" y="250.5" transform="matrix(0.9954 -9.567202e-02 9.567202e-02 0.9954 -23.6729 12.2618)" class="st2" width="5.1" height="5.1"/>
	
		<rect x="122.7" y="249.6" transform="matrix(0.9954 -9.567202e-02 9.567202e-02 0.9954 -23.547 13.1364)" class="st2" width="5.1" height="5.1"/>
	<path class="st7" d="M90,239.4c0.1,0.7-0.5,1.3-1.2,1.4s-1.3-0.5-1.4-1.2c-0.1-0.7,0.5-1.3,1.1-1.4C89.3,238.2,89.9,238.7,90,239.4
		C90,239.4,90,239.4,90,239.4z"/>
	<line class="st6" x1="95.7" y1="264" x2="158" y2="258"/>
	<line class="st6" x1="96.1" y1="268.2" x2="158.4" y2="262.2"/>
	<line class="st6" x1="96.6" y1="273" x2="149.7" y2="267.9"/>
	
		<rect x="97.5" y="277.2" transform="matrix(0.9954 -9.567202e-02 9.567202e-02 0.9954 -26.3021 10.8563)" class="st2" width="5.1" height="5.1"/>
	
		<rect x="106.7" y="276.3" transform="matrix(0.9954 -9.567202e-02 9.567202e-02 0.9954 -26.1752 11.7309)" class="st2" width="5.1" height="5.1"/>
	
		<rect x="115.9" y="275.4" transform="matrix(0.9954 -9.567202e-02 9.567202e-02 0.9954 -26.0485 12.6053)" class="st2" width="5.1" height="5.1"/>
	
		<rect x="125.1" y="274.5" transform="matrix(0.9954 -9.567202e-02 9.567202e-02 0.9954 -25.9218 13.4799)" class="st2" width="5.1" height="5.1"/>
	<path class="st7" d="M92.4,264.4c0,0.7-0.5,1.3-1.3,1.3c-0.6,0-1.2-0.4-1.3-1.1c-0.1-0.7,0.4-1.3,1.1-1.4
		C91.7,263.1,92.3,263.6,92.4,264.4C92.4,264.3,92.4,264.3,92.4,264.4z"/>
	<polyline class="st6" points="92.2,205.8 93.1,206.9 95.3,203.5 	"/>
	<polyline class="st6" points="112.9,228 113.7,229 115.9,225.7 	"/>
	<polyline class="st6" points="106.1,253.6 106.9,254.7 109.2,251.3 	"/>
	<polyline class="st6" points="126.7,276.6 127.5,277.7 129.8,274.3 	"/>
</g>
<g id="Bubble">
	<path class="st10" d="M259.9,112.2h-51.7c-3.8,0-6.9,3.1-6.9,6.9c0,0,0,0,0,0v44.4c0,3.8,3.1,6.9,6.9,6.9c0,0,0,0,0,0h22.9
		l13.1,15.8l-3.3-15.8h18.9c3.8,0,6.9-3.1,6.9-6.9v-44.4C266.8,115.3,263.7,112.2,259.9,112.2z"/>
	<path class="st1" d="M238.2,136.6v-4.7l-3.5-0.3c-0.2-0.7-0.5-1.4-0.9-2.1l2.3-2.7l-3.3-3.3l-2.7,2.3c-0.7-0.4-1.4-0.7-2.1-0.9
		l-0.3-3.5H223l-0.3,3.5c-0.7,0.2-1.4,0.5-2.1,0.9l-2.7-2.3l-3.3,3.3l2.2,2.7c-0.4,0.7-0.7,1.4-0.9,2.1l-3.5,0.3v4.7l3.5,0.3
		c0.2,0.7,0.5,1.4,0.9,2.1l-2.3,2.7l3.3,3.3l2.7-2.3c0.7,0.4,1.4,0.7,2.1,0.9l0.3,3.5h4.7l0.3-3.5c0.7-0.2,1.4-0.5,2.1-0.9l2.7,2.3
		l3.3-3.3l-2.3-2.7c0.4-0.7,0.7-1.4,0.9-2.1L238.2,136.6z M225.3,139.7c-3,0-5.5-2.4-5.5-5.5c0-3,2.4-5.5,5.5-5.5
		c3,0,5.5,2.4,5.5,5.5c0,0,0,0,0,0C230.8,137.2,228.4,139.7,225.3,139.7C225.3,139.7,225.3,139.7,225.3,139.7z"/>
	<path class="st1" d="M253.8,147v-3.3l-2.5-0.2c-0.1-0.5-0.4-1-0.6-1.5l1.6-1.9l-2.4-2.4l-1.9,1.6c-0.5-0.3-1-0.5-1.5-0.6l-0.2-2.5
		h-3.4l-0.2,2.5c-0.5,0.1-1,0.4-1.5,0.6l-1.9-1.6l-2.4,2.4l1.6,1.9c-0.3,0.5-0.5,1-0.6,1.5l-2.5,0.2v3.3l2.5,0.2
		c0.1,0.5,0.3,1,0.6,1.5l-1.6,1.9l2.4,2.4l1.9-1.6c0.5,0.3,1,0.5,1.5,0.6l0.2,2.5h3.4l0.2-2.5c0.5-0.1,1-0.4,1.5-0.6l1.9,1.6
		l2.4-2.4l-1.6-1.9c0.3-0.5,0.5-1,0.6-1.5L253.8,147z M244.6,149.3c-2.1,0-3.9-1.7-3.9-3.9s1.7-3.9,3.9-3.9c2.1,0,3.9,1.7,3.9,3.9
		C248.5,147.5,246.7,149.3,244.6,149.3L244.6,149.3z"/>
	<path class="st1" d="M237.4,154.8v-2.4l-1.8-0.2c-0.1-0.4-0.3-0.7-0.4-1.1l1.1-1.4l-1.7-1.7l-1.4,1.1c-0.3-0.2-0.7-0.3-1.1-0.4
		l-0.2-1.8h-2.4l-0.1,1.8c-0.4,0.1-0.7,0.3-1.1,0.4l-1.4-1.1l-1.7,1.7l1.1,1.4c-0.2,0.3-0.3,0.7-0.4,1.1l-1.8,0.2v2.4l1.8,0.2
		c0.1,0.4,0.3,0.7,0.4,1.1l-1.1,1.4l1.7,1.7l1.4-1.1c0.3,0.2,0.7,0.3,1.1,0.4l0.1,1.8h2.4l0.2-1.8c0.4-0.1,0.7-0.3,1.1-0.4l1.4,1.1
		l1.7-1.7l-1.1-1.4c0.2-0.3,0.3-0.7,0.4-1.1L237.4,154.8z M230.9,156.4c-1.5,0-2.8-1.2-2.8-2.8s1.2-2.8,2.8-2.8
		c1.5,0,2.8,1.2,2.8,2.8c0,0,0,0,0,0C233.7,155.2,232.4,156.4,230.9,156.4L230.9,156.4z"/>
</g>
<g id="Character">
	<polygon class="st11" points="232.7,282.9 273,431.4 279,431.4 238.7,282.9 	"/>
	<rect x="247.1" y="389.3" class="st12" width="76.3" height="6.2"/>
	<path class="st11" d="M364.2,249.5l-49.3,182h-6l49.3-182c1.8-6.7-2.4-12.2-9.3-12.2h-42.5c-6.9,0-14.1,5.5-15.9,12.2l-49.3,182h-6
		l49.3-182c2.7-9.9,13.2-18,23.5-18h42.5C360.7,231.5,366.9,239.5,364.2,249.5z"/>
	<path class="st1" d="M365,249.5l-12.2,45.2c-1.2,3.9-4.7,6.6-8.8,6.8h-69.8c-2.8,0.2-5.2-1.9-5.4-4.7c-0.1-0.7,0-1.4,0.3-2.1
		l12.2-45.2c1.2-3.9,4.8-6.6,8.8-6.8h69.8c2.8-0.2,5.2,1.9,5.4,4.7C365.3,248.2,365.2,248.9,365,249.5z"/>
	<g>
		<defs>
			<path id="SVGID_5_" d="M365,249.5l-12.2,45.2c-1.2,3.9-4.7,6.6-8.8,6.8h-69.8c-2.8,0.2-5.2-1.9-5.4-4.7c-0.1-0.7,0-1.4,0.3-2.1
				l12.2-45.2c1.2-3.9,4.8-6.6,8.8-6.8h69.8c2.8-0.2,5.2,1.9,5.4,4.7C365.3,248.2,365.2,248.9,365,249.5z"/>
		</defs>
		<clipPath id="SVGID_6_">
			<use xlink:href="#SVGID_5_"  style="overflow:visible;"/>
		</clipPath>
		<g class="st13">
			<path class="st5" d="M365,249.5l-12.2,45.2c-1.2,3.9-4.7,6.6-8.8,6.8h-69.8c-2.8,0.2-5.2-1.9-5.4-4.7c-0.1-0.7,0-1.4,0.3-2.1
				l12.2-45.2c1.2-3.9,4.8-6.6,8.8-6.8h36.1c15.6,16,13.6,45.5,12.6,54.4c3.3-0.8,6-3.3,7-6.5l12.2-45.2c0.3-0.9,0.3-1.8,0.1-2.7
				h1.8c2.8-0.2,5.2,1.9,5.4,4.7C365.3,248.2,365.2,248.9,365,249.5z"/>
		</g>
	</g>
	<path class="st2" d="M365,249.5l-12.2,45.2c-1.2,3.9-4.7,6.6-8.8,6.8h-69.8c-2.8,0.2-5.2-1.9-5.4-4.7c-0.1-0.7,0-1.4,0.3-2.1
		l12.2-45.2c1.2-3.9,4.8-6.6,8.8-6.8h69.8c2.8-0.2,5.2,1.9,5.4,4.7C365.3,248.2,365.2,248.9,365,249.5z"/>
	<polygon class="st11" points="323.9,347.2 346.7,431.4 352.8,431.4 329.9,347.2 	"/>
	<path class="st1" d="M329.9,337.5v8.2H240v-8.2c0-3.3,2.7-6.1,6.1-6.1h77.8c2.7,0,5.1,1.8,5.9,4.5
		C329.9,336.4,329.9,336.9,329.9,337.5z"/>
	<g>
		<defs>
			<path id="SVGID_7_" d="M329.9,337.5v8.2H240v-8.2c0-3.3,2.7-6.1,6.1-6.1h77.8c2.7,0,5.1,1.8,5.9,4.5
				C329.9,336.4,329.9,336.9,329.9,337.5z"/>
		</defs>
		<clipPath id="SVGID_8_">
			<use xlink:href="#SVGID_7_"  style="overflow:visible;"/>
		</clipPath>
		<g class="st14">
			<path class="st5" d="M329.7,335.9c-2.9,3.4-8.1,6.9-17.1,9.8H240v-8.3c0-3.3,2.7-6.1,6.1-6.1h77.8
				C326.6,331.4,329,333.3,329.7,335.9z"/>
		</g>
	</g>
	<path class="st2" d="M329.9,337.5v8.2H240v-8.2c0-3.3,2.7-6.1,6.1-6.1h77.8c2.7,0,5.1,1.8,5.9,4.5
		C329.9,336.4,329.9,336.9,329.9,337.5z"/>
	<path class="st12" d="M237.8,343.2H333c0.9,0,1.7,0.8,1.7,1.7v4.3c0,0.9-0.8,1.7-1.7,1.7h-95.2c-0.9,0-1.7-0.8-1.7-1.7v-4.3
		C236,344,236.8,343.2,237.8,343.2z"/>
	<path class="st7" d="M237.1,343.5c-4.3,4.4,16.6,73.4,16.6,73.4c-2.3,2-5.6,2.9-8.8,3.3c-2.9,0.4-5.9,0.4-8.8,0.1
		c0,0-29.9-72.6-21.7-90.6s59.4-26.2,59.4-26.2l2.2-5.4l26.5-3.7l4.4,32.4c0,0-4.3,0.4-10.9,1.3C278.3,330.2,245,335.5,237.1,343.5z
		"/>
	<g>
		<defs>
			<path id="SVGID_9_" d="M237.1,343.5c-4.3,4.4,16.6,73.4,16.6,73.4c-2.3,2-5.6,2.9-8.8,3.3c-2.9,0.4-5.9,0.4-8.8,0.1
				c0,0-29.9-72.6-21.7-90.6s59.4-26.2,59.4-26.2l2.2-5.4l26.5-3.7l4.4,32.4c0,0-4.3,0.4-10.9,1.3
				C278.3,330.2,245,335.5,237.1,343.5z"/>
		</defs>
		<clipPath id="SVGID_10_">
			<use xlink:href="#SVGID_9_"  style="overflow:visible;"/>
		</clipPath>
		<g class="st15">
			<path class="st16" d="M253.7,416.9c-2.3,2-5.6,2.9-8.8,3.3c-5.8-21.6-20.6-79.2-15-86.3c6.9-8.7,41.1-16.6,41.1-16.6
				c0.1-4.4,12.1-8.4,12.1-8.4l12.7,19.1c-17.5,2.2-50.8,7.5-58.8,15.5C232.8,347.9,253.7,416.9,253.7,416.9z"/>
		</g>
	</g>
	<path class="st2" d="M237.1,343.5c-4.3,4.4,16.6,73.4,16.6,73.4c-2.3,2-5.6,2.9-8.8,3.3c-2.9,0.4-5.9,0.4-8.8,0.1
		c0,0-29.9-72.6-21.7-90.6s59.4-26.2,59.4-26.2l2.2-5.4l26.5-3.7l4.4,32.4c0,0-4.3,0.4-10.9,1.3C278.3,330.2,245,335.5,237.1,343.5z
		"/>
	<path class="st3" d="M222.3,278.2c-4.4-0.8,26.9-28.2,26.9-28.2l15.1,10.1c0,0-25.6,18.1-29.7,18.5S222.3,278.2,222.3,278.2z"/>
	<g>
		<defs>
			<path id="SVGID_11_" d="M222.3,278.2c-4.4-0.8,26.9-28.2,26.9-28.2l15.1,10.1c0,0-25.6,18.1-29.7,18.5S222.3,278.2,222.3,278.2z"
				/>
		</defs>
		<clipPath id="SVGID_12_">
			<use xlink:href="#SVGID_11_"  style="overflow:visible;"/>
		</clipPath>
		<g class="st17">
			<path class="st5" d="M222.3,278.2c-4.4-0.8,26.9-28.2,26.9-28.2l15.1,10.1c0,0-25.6,18.1-29.7,18.5S222.3,278.2,222.3,278.2z"/>
		</g>
	</g>
	<path class="st2" d="M222.3,278.2c-4.4-0.8,26.9-28.2,26.9-28.2l15.1,10.1c0,0-25.6,18.1-29.7,18.5S222.3,278.2,222.3,278.2z"/>
	<path class="st10" d="M227.8,266.7c0,0,6.5,1.6,8.6,3s1.4,6.3,1.4,6.3S229.1,273.5,227.8,266.7z"/>
	<polygon class="st7" points="223.6,254.1 235.8,277.5 237.2,277.5 225.7,253 	"/>
	<path class="st10" d="M234.6,271c0,0-7.7-5.5-9.6-5.5s-7.5,6.6-7.5,10s12.3,5.2,14.7,2.4c1.2-1.4-1.2-4.8-1.2-4.8
		c1.4,1.5,3,2.9,4.6,4.2c1,0.6,2.9-0.2,2.9-0.2S236,273.1,234.6,271z"/>
	<path class="st2" d="M231,278.7c-1.8-2.2-3.9-4.1-6.4-5.6"/>
	<path class="st2" d="M231,273.1c0,0-2.7-2.3-4.5-2.8"/>
	<path class="st2" d="M222.6,276c1.9,1,3.7,2,5.4,3.2"/>
	<path class="st18" d="M259,238.1c-3.9,2.7-21.6,20.9-21.6,20.9s8.3,9.4,15.5,10.8l19.6-9.5L259,238.1z"/>
	<path class="st19" d="M259,238.1c-3.9,2.7-21.6,20.9-21.6,20.9s8.3,9.4,15.5,10.8l19.6-9.5L259,238.1z"/>
	<path class="st1" d="M249.5,409.6l8.3,21.9c0,0,1.4,5.6-23.7,3.9l-13.8-1.2L249.5,409.6z"/>
	<g>
		<defs>
			<path id="SVGID_13_" d="M249.5,409.6l8.3,21.9c0,0,1.4,5.6-23.7,3.9l-13.8-1.2L249.5,409.6z"/>
		</defs>
		<clipPath id="SVGID_14_">
			<use xlink:href="#SVGID_13_"  style="overflow:visible;"/>
		</clipPath>
		<g class="st20">
			<path class="st16" d="M249.5,409.6l8.3,21.9c0,0,1.4,5.6-23.7,3.9l-13.8-1.2L249.5,409.6z"/>
		</g>
	</g>
	<path class="st2" d="M249.5,409.6l8.3,21.9c0,0,1.4,5.6-23.7,3.9l-13.8-1.2L249.5,409.6z"/>
	<path class="st18" d="M246.3,420.1c0,0,1.8,8.5,0,14.8c0,0-26.5,4.1-32.4,2.6s-9.5-4.5-9.7-6c0,0,0.2-4.1,6.2-5.2s17.8-2,22.4-8.7
		S246.3,420.1,246.3,420.1z"/>
	<path class="st21" d="M281.3,297.2c8.5-12.1,47.4,2.5,47.4,2.5s3.7,29.1-11.8,36.8s-37.9,7.3-43.9,13.6l-24.6,72.6
		c0,0-8.8,3.7-21.7-2.1c0,0,15.6-54.8,20.2-74.3c4.5-19.3,33.9-32.3,33.9-32.3c-1.5-1.8-2.7-3.9-3.4-6.1"/>
	<path class="st22" d="M320.7,325c-1.2,1.1-2.5,2.1-3.9,3.1"/>
	<path class="st22" d="M323.9,300.4c3.2,6.9,3.4,15.7-1,22"/>
	<path class="st22" d="M315,301.5c0,0-0.8,5.3,1.6,7.4s9.6,3.2,9.6,3.2"/>
	<path class="st22" d="M283.1,301.7c0,0,0.3,5.3-1.8,5s-2.3,2.1-2.3,2.1"/>
	<path class="st18" d="M259.5,242.1c-0.3-1.3-0.5-2.7-0.5-4.1c0,0,12-10.1,27.5-10.1c18.4,0.1,29.6,5.9,34.1,13.9
		c7.1,12.7,8.1,57.8,8.1,57.8s-46.2,7.1-52.8-1.6c-1.1-1.5-0.3-12.2-0.3-12.2s-5.2-13.6-6.3-24.1c0,0-2-2.7-4.2-6.5
		c-1.6-2.8-3.1-5.6-4.3-8.6"/>
	<path class="st23" d="M259.5,242.1c-0.3-1.3-0.5-2.7-0.5-4.1c0,0,12-10.1,27.5-10.1c18.4,0.1,29.6,5.9,34.1,13.9
		c7.1,12.7,8.1,57.8,8.1,57.8s-46.2,7.1-52.8-1.6c-1.1-1.5-0.3-12.2-0.3-12.2s-5.2-13.6-6.3-24.1c0,0-2-2.7-4.2-6.5
		c-1.6-2.8-3.1-5.6-4.3-8.6"/>
	<path class="st2" d="M277.1,253c0,0,7,27.4,6,33.4c-0.2,2.1,0.1,4.2,1,6.1c-1.9,2-2.3,5-1,7.4"/>
	<path class="st2" d="M295.9,275.6c-1.3,0-2.5-0.4-3.5-1.1l-2.1-9.2c4.1,0.4,8.3,0.1,12.4-0.9l2.2,10c-1.3,0.4-2.5,0.6-3.8,0.8"/>
	<path class="st18" d="M272.1,256.5c0,0-6-25.6,9.1-28.5s18.2,4.1,17.4,8.9c-1.2,6.4-13.7,22.1-13.7,22.1l-7.8-6L272.1,256.5z"/>
	<path class="st19" d="M272.1,256.5c0,0-6-25.6,9.1-28.5s18.2,4.1,17.4,8.9c-1.2,6.4-13.7,22.1-13.7,22.1l-7.8-6L272.1,256.5z"/>
	<path class="st22" d="M252.3,335.5c0,0,9.8-11.3,31.9-19.8c0,0-5.7-1.8-7-4.1"/>
	<line class="st22" x1="240.8" y1="370" x2="231.8" y2="402.5"/>
	<path class="st18" d="M309.9,276.5c0,0,4,6.8,20.5,6.1c-3.1-3.3-6.9-5.7-11.2-7C312.4,273.8,309.9,276.5,309.9,276.5z"/>
	<path class="st10" d="M246,279.2c0,0,3.8-5.9,7.3-7.1s13.8-1.3,15.4-1.3s29.8,7.1,43.1,11.6l-1.2-22.1l17.8,1.4
		c0,0-0.7,27-3.5,34.1s-6.7,5.4-13.5,2.5c-26.6-11.5-42.2-19.5-43.7-19S246,279.2,246,279.2z"/>
	<path class="st18" d="M306.1,247.3c-0.5,1.8-0.6,3.7-0.4,5.6c0.8,6.9,4.2,23.5,4.2,23.5s16.6,2.4,20.5,6.1c0,0,2.7-22-2.8-33.2
		c-5.6-11.2-11.4-12.4-11.4-12.4c-3.6-0.9-7,2.5-8.9,6.9"/>
	<g class="st24">
		<path class="st10" d="M306.1,247.3c-0.5,1.8-0.6,3.7-0.4,5.6c0.8,6.9,4.2,23.5,4.2,23.5s16.6,2.4,20.5,6.1c0,0,2.7-22-2.8-33.2
			c-5.6-11.2-11.4-12.4-11.4-12.4c-3.6-0.9-7,2.5-8.9,6.9"/>
	</g>
	<path class="st2" d="M257.3,255.9c2.5,2,5.4,3.5,8.5,4.3"/>
	<path class="st2" d="M309.9,255.9c0,0,6,11.3,13.6,13.8"/>
	<path class="st22" d="M271,343.2c0,0,1.1,0.8,1.6,3.9"/>
	<path class="st22" d="M266.9,347.1c2,0.2,3.7,1.2,4.9,2.8"/>
	<path class="st22" d="M233.8,335.5c0,0,3.2,1.6,2.5,6.2"/>
	<path class="st22" d="M230.4,339.4c0,0,4.4,2.6,4.7,4.9"/>
	<path class="st22" d="M281.1,311.4c0,0,9.7,1.4,11.9,0"/>
	<path class="st3" d="M277.1,251.9c-0.8-2.4-1.2-4.9-1-7.4c0-0.9,0.1-1.7,0.3-2.5l-1.7-2.7l-2.2-3.5l2.5-10c0,0,16,3.1,17.2,7.5
		C293.5,237.8,277.1,251.9,277.1,251.9z"/>
	<g>
		<defs>
			<path id="SVGID_15_" d="M277.1,251.9c-0.8-2.4-1.2-4.9-1-7.4c0-0.9,0.1-1.7,0.3-2.5l-1.7-2.7l-2.2-3.5l2.5-10
				c0,0,16,3.1,17.2,7.5C293.5,237.8,277.1,251.9,277.1,251.9z"/>
		</defs>
		<clipPath id="SVGID_16_">
			<use xlink:href="#SVGID_15_"  style="overflow:visible;"/>
		</clipPath>
		<g class="st25">
			<path class="st5" d="M276.1,244.5c0-0.9,0.1-1.7,0.3-2.5l-1.7-2.7c3-0.5,5.8-2,7.8-4.4C282.7,239.1,280.1,243,276.1,244.5z"/>
		</g>
	</g>
	<path class="st2" d="M277.1,251.9c-0.8-2.4-1.2-4.9-1-7.4c0-0.9,0.1-1.7,0.3-2.5l-1.7-2.7l-2.2-3.5l2.5-10c0,0,16,3.1,17.2,7.5
		C293.5,237.8,277.1,251.9,277.1,251.9z"/>
	<path class="st10" d="M287.2,226.6c5-13,1.7-35.1-22.3-30.9c-14.1,2.5-15.8,19.5-11.1,27.1s-0.3,7.8,6.8,13.4
		c2.9,2.3,5.2,6.1,8.6,6.4c4.1,0.3,9.3-3.6,13.2-7.7"/>
	<path class="st2" d="M263.5,222.8c0,0,3.5-3.2,7.8-1.9"/>
	<path class="st2" d="M256.9,222.8c-1-1.7-2.7-2.8-4.6-3.1"/>
	<path class="st10" d="M259.2,227.5c0,0-0.5,2.6-1.2,5.2s4.2,1.2,4,0.8"/>
	<path class="st2" d="M264.6,236.7c2.1-0.6,3.9-1.8,5.3-3.5"/>
	<path class="st7" d="M268.5,226.1c0.3,0.5,0.1,1.2-0.4,1.5c-0.5,0.3-1.2,0.1-1.5-0.4c-0.1-0.2-0.1-0.3-0.1-0.5
		c-0.3-0.5-0.1-1.2,0.4-1.5c0.5-0.3,1.2-0.1,1.5,0.4C268.4,225.7,268.5,225.9,268.5,226.1z"/>
	<path class="st7" d="M257.8,225.9c0.2,0.7,0.1,1.4-0.3,1.5s-0.9-0.4-1-1.1s0-1.4,0.3-1.5S257.6,225.1,257.8,225.9z"/>
	<path class="st21" d="M272.4,209.4c0,0-3.7,9.7-12.9,9.5c0,0,3.2-2.4,4.1-4.8c0,0-7.1,7-14.1,3.4s-3.6-20.1,7.2-26.7
		s22-4.8,25.7,1.5c0,0,7.6-0.7,11,10.5c3,10-1.8,25.2-6.5,25.3c-7.3,0.3-8.7-7.6-8.7-7.6C275.1,217.5,273.1,213.6,272.4,209.4z"/>
	<path class="st10" d="M280.4,226.6c0,0-0.2-9.2,5-8.1s1.4,11.7-2.5,11.6"/>
	<path class="st18" d="M183.6,278.2h80.6c0.9,0,1.6,0.7,1.6,1.6v2.8c0,0.9-0.7,1.6-1.6,1.6h-80.6c-0.9,0-1.6-0.7-1.6-1.6v-2.8
		C181.9,278.9,182.7,278.2,183.6,278.2z"/>
</g>
<g id="Plant">
	<polygon class="st21" points="64.6,400.3 30.6,400.3 34.1,431.4 61,431.4 	"/>
	<path class="st18" d="M68.6,378.7c0,0-14.8,1.2-15.5,12.1C53.1,390.8,68.2,397.8,68.6,378.7z"/>
	<path class="st18" d="M39.2,381.4c0,0-8.3-11.2-21.7-5.5C17.5,376,25.7,389.5,39.2,381.4z"/>
	<path class="st18" d="M18.7,346c0,0-2.4,21.6,17.3,15.6C35.9,361.6,29.7,345.8,18.7,346z"/>
	<path class="st18" d="M42.8,334c0,0-15.5,8.4-4.1,21.1C38.7,355.1,49.6,346,42.8,334z"/>
	<path class="st18" d="M61.9,353.3c0,0-16.9-1.7-16.9,13.9C45,367.2,61.9,367.9,61.9,353.3z"/>
	<path class="st2" d="M46,413.2c0,0,7.7-16.2,0.3-32.6s-9.9-30.3-6-40.1"/>
	<path class="st2" d="M56.3,357.5c0,0-10.1,4-13.6,14.5"/>
	<path class="st2" d="M24,354.6c0,0,5.8,8,15.8,7.1"/>
	<path class="st2" d="M24,378.2c0,0,16.2,4.7,22.6,3.1"/>
	<path class="st2" d="M63.8,383.6c0,0-7.2,8-14.5,7.8"/>
	<rect x="29.1" y="399.6" class="st21" width="36.9" height="4.4"/>
</g>
<g id="Bag">
	<path class="st1" d="M334,371.5c-8.6,5.6-15.9,13.2-21.2,22c-8.8,14.7-15.8,35.4-5,38l10.3-0.4l19.8-6.8l-2.1-4
		c0,0-17.4,9.2-20.3,9.2s-6.8,0.7-8.5-0.5s5.7-27.9,21.4-36.8S334,371.5,334,371.5z"/>
	<g>
		<defs>
			<path id="SVGID_17_" d="M334,371.5c-8.6,5.6-15.9,13.2-21.2,22c-8.8,14.7-15.8,35.4-5,38l10.3-0.4l19.8-6.8l-2.1-4
				c0,0-17.4,9.2-20.3,9.2s-6.8,0.7-8.5-0.5s5.7-27.9,21.4-36.8S334,371.5,334,371.5z"/>
		</defs>
		<clipPath id="SVGID_18_">
			<use xlink:href="#SVGID_17_"  style="overflow:visible;"/>
		</clipPath>
		<g class="st26">
			<path class="st27" d="M334,371.5c-8.6,5.6-15.9,13.2-21.2,22c-8.8,14.7-15.8,35.4-5,38l10.3-0.4l19.8-6.8l-2.1-4
				c0,0-17.4,9.2-20.3,9.2s-6.8,0.7-8.5-0.5s5.7-27.9,21.4-36.8S334,371.5,334,371.5z"/>
		</g>
	</g>
	<path class="st2" d="M334,371.5c-8.6,5.6-15.9,13.2-21.2,22c-8.8,14.7-15.8,35.4-5,38l10.3-0.4l19.8-6.8l-2.1-4
		c0,0-17.4,9.2-20.3,9.2s-6.8,0.7-8.5-0.5s5.7-27.9,21.4-36.8S334,371.5,334,371.5z"/>
	<path class="st18" d="M345.3,361.8c0,0,0-4.3,6.5-4.9s7.5,5.7,7.5,5.7h-2.2c0,0,0-3.8-4.8-4.1s-4.6,4.1-4.6,4.1L345.3,361.8z"/>
	<path class="st1" d="M335.7,431.5c-13.8,0-11.2-61.9-9.6-65s41.7-4.6,45.6-3.3s19.8,63,11,67.9L335.7,431.5z"/>
	<g>
		<defs>
			<path id="SVGID_19_" d="M335.7,431.5c-13.8,0-11.2-61.9-9.6-65s41.7-4.6,45.6-3.3s19.8,63,11,67.9L335.7,431.5z"/>
		</defs>
		<clipPath id="SVGID_20_">
			<use xlink:href="#SVGID_19_"  style="overflow:visible;"/>
		</clipPath>
		<g class="st28">
			<path class="st5" d="M335.7,431.5c-13.8,0-11.2-61.9-9.6-65s41.7-4.6,45.6-3.3s19.8,63,11,67.9L335.7,431.5z"/>
		</g>
	</g>
	<path class="st2" d="M335.7,431.5c-13.8,0-11.2-61.9-9.6-65s41.7-4.6,45.6-3.3s19.8,63,11,67.9L335.7,431.5z"/>
	<path class="st18" d="M326.1,366.4c5,1.1,7.9,21.3,14.6,26.5s38.5,4,42,0s-3.4-26.8-8.5-30.3s-8.7-0.1-23.1-1.7
		C329.8,358.6,326.1,366.4,326.1,366.4z"/>
	<path class="st1" d="M362.5,378.1l5.9,4.8c0.3,0.3,0.4,0.8,0.1,1.1c0,0,0,0,0,0l-4.6,4.9c-0.3,0.3-0.8,0.3-1.1,0c0,0,0,0,0,0
		l-5.8-5.5c-0.3-0.3-0.3-0.8,0-1.1c0,0,0,0,0,0l4.5-4.2C361.7,377.9,362.2,377.8,362.5,378.1z"/>
	<g>
		<defs>
			<path id="SVGID_21_" d="M362.5,378.1l5.9,4.8c0.3,0.3,0.4,0.8,0.1,1.1c0,0,0,0,0,0l-4.6,4.9c-0.3,0.3-0.8,0.3-1.1,0c0,0,0,0,0,0
				l-5.8-5.5c-0.3-0.3-0.3-0.8,0-1.1c0,0,0,0,0,0l4.5-4.2C361.7,377.9,362.2,377.8,362.5,378.1z"/>
		</defs>
		<clipPath id="SVGID_22_">
			<use xlink:href="#SVGID_21_"  style="overflow:visible;"/>
		</clipPath>
		<g class="st29">
			<path class="st5" d="M362.5,378.1l5.9,4.8c0.3,0.3,0.4,0.8,0.1,1.1c0,0,0,0,0,0l-4.6,4.9c-0.3,0.3-0.8,0.3-1.1,0c0,0,0,0,0,0
				l-5.8-5.5c-0.3-0.3-0.3-0.8,0-1.1c0,0,0,0,0,0l4.5-4.2C361.7,377.9,362.2,377.8,362.5,378.1z"/>
		</g>
	</g>
	<path class="st2" d="M362.5,378.1l5.9,4.8c0.3,0.3,0.4,0.8,0.1,1.1c0,0,0,0,0,0l-4.6,4.9c-0.3,0.3-0.8,0.3-1.1,0c0,0,0,0,0,0
		l-5.8-5.5c-0.3-0.3-0.3-0.8,0-1.1c0,0,0,0,0,0l4.5-4.2C361.7,377.9,362.2,377.8,362.5,378.1z"/>
	<path class="st1" d="M343.1,403.3c0,0,26.6,2.2,39.6-1.2c1.7,1.4,3,3.2,3.7,5.4c1.2,3.6,3.7,15.7-3.7,18.9s-34,2.5-37.5-1
		S343.1,403.3,343.1,403.3z"/>
	<g>
		<defs>
			<path id="SVGID_23_" d="M343.1,403.3c0,0,26.6,2.2,39.6-1.2c1.7,1.4,3,3.2,3.7,5.4c1.2,3.6,3.7,15.7-3.7,18.9s-34,2.5-37.5-1
				S343.1,403.3,343.1,403.3z"/>
		</defs>
		<clipPath id="SVGID_24_">
			<use xlink:href="#SVGID_23_"  style="overflow:visible;"/>
		</clipPath>
		<g class="st30">
			<path class="st31" d="M343.1,403.3c0,0,26.6,2.2,39.6-1.2c1.7,1.4,3,3.2,3.7,5.4c1.2,3.6,3.7,15.7-3.7,18.9s-34,2.5-37.5-1
				S343.1,403.3,343.1,403.3z"/>
		</g>
	</g>
	<path class="st2" d="M343.1,403.3c0,0,26.6,2.2,39.6-1.2c1.7,1.4,3,3.2,3.7,5.4c1.2,3.6,3.7,15.7-3.7,18.9s-34,2.5-37.5-1
		S343.1,403.3,343.1,403.3z"/>
	<path class="st18" d="M343.1,403.3c0,0,3.1,8.4,4.8,9.7s36.2,1.3,40-1.8s-1.4-8.8-5.1-9.1C382.7,402.1,358.5,404.9,343.1,403.3z"/>
	<path class="st1" d="M332,401.5c0,0,0.9,17.7,2.7,21.7c-2.7,1.4-5.9,1.4-8.6,0c-4.5-2.4-3.8-17.6-2.9-17.6S332,401.5,332,401.5z"/>
	<g>
		<defs>
			<path id="SVGID_25_" d="M332,401.5c0,0,0.9,17.7,2.7,21.7c-2.7,1.4-5.9,1.4-8.6,0c-4.5-2.4-3.8-17.6-2.9-17.6
				S332,401.5,332,401.5z"/>
		</defs>
		<clipPath id="SVGID_26_">
			<use xlink:href="#SVGID_25_"  style="overflow:visible;"/>
		</clipPath>
		<g class="st32">
			<path class="st31" d="M332,401.5c0,0,0.9,17.7,2.7,21.7c-2.7,1.4-5.9,1.4-8.6,0c-4.5-2.4-3.8-17.6-2.9-17.6S332,401.5,332,401.5z
				"/>
		</g>
	</g>
	<path class="st2" d="M332,401.5c0,0,0.9,17.7,2.7,21.7c-2.7,1.4-5.9,1.4-8.6,0c-4.5-2.4-3.8-17.6-2.9-17.6S332,401.5,332,401.5z"/>
	<path class="st18" d="M332,401.5l-6.7,1.3c0,0-6.4,4.9-3.6,6.5S331.8,407,332,401.5z"/>
</g>
</svg>
