<svg xmlns="http://www.w3.org/2000/svg" viewBox="0 0 183.13 480.11"><defs><style>.cls-1{fill:#fda98b;}.cls-2{fill:#4d3931;}.cls-3{fill:#382823;}.cls-4{fill:#ee795c;}.cls-5{fill:#07191d;}.cls-6{fill:#f2e8de;}.cls-7{fill:#fffffb;}.cls-8{fill:#fff;}.cls-9{fill:#323d4d;}.cls-10{fill:#3d4a61;}.cls-11{fill:#824b4c;}.cls-12{fill:#ffa988;}.cls-13{fill:#bd2f2f;}.cls-14{fill:#ce8b35;}.cls-15{fill:#e95b4b;}</style></defs><g id="Layer_2" data-name="Layer 2"><g id="Layer_1-2" data-name="Layer 1"><path class="cls-1" d="M96,56.19c.14,11.33,3.89,19.73-16.94,29.53,12.4,17.06,24.61,23.37,24.61,23.37s26.13-11.76,35.11-19.55c-4.67-3.4-9.55-5.94-13.86-9-8.51-6-3.49-19.28-5.15-24.18Z"/><path class="cls-1" d="M101.08,68.07c4.7,2.9,10.07,2,15.47.29,6-1.9,15.65-19.23,12-40.57C124.89,6.28,101,3.7,91.47,18.22,82.9,31.31,88.75,60.45,101.08,68.07Z"/><path class="cls-2" d="M95,27.36c.63-.13.36-1.24.7-1.78,1-1.59,3.46-1.23,5.12-2.15,1.12-.61,2.14-1.89,3.37-1.54.91.26,1.45,1.35,2.39,1.44s1.65-.72,2.45-.45c1,.33,1.61,2.82,5,1.68,5.44-1.85,9,.15,9.55,1.33,2.37,4.92,5.07,15.44,4.89,21.36l5.85-17.63a14.9,14.9,0,0,0-2.59-7.31c-3.32-3.47,2.83-6.54-2.47-13.14C125.11,6,122.87,5,120.64,6.8a6.57,6.57,0,0,0-6.9-5.65c-6.35.61-4.62-3.36-12.87.71-1.41.69-5.63,2.69-6.21,4.69s1.56,4.26-2.11,5.28c-1.76-.2-13.67,2.64-5.79,27.92.41,1.3,2,7.81,2.51,9C87.57,36.77,93.1,27.72,95,27.36Z"/><path class="cls-3" d="M99.23,20.32c-1.25-2.8-2.6-6.41-5.71-7.38-1.37-.42,1.76-2.41,5,4.13-.54-1.93-4.42-7.39-2.91-7.58a.37.37,0,0,1,.41.32,10.43,10.43,0,0,0,1.66,3.86C99.86,17.26,99.56,18.13,99.23,20.32Z"/><path class="cls-3" d="M113,21.2c3.5-2.11,8.44-9.06,7.18-13-.46-1.43,3.15.22-1,7.18C114.49,23.2,111.83,21.9,113,21.2Z"/><path class="cls-3" d="M92.39,21.15a30.31,30.31,0,0,0-4-2.12.37.37,0,1,1,.32-.66c2.68,1.32,3.64,1.67,4.21,2.28,1,1,1.26,4.85.61,4.89S93.33,22.15,92.39,21.15Z"/><path class="cls-3" d="M109.67,11.69c2.22-2.65,4-6.06,2.34-9.07a.36.36,0,0,1,.13-.49c1-.57,2.87,4.33-1.91,10A.37.37,0,0,1,109.67,11.69Z"/><path class="cls-3" d="M103.47,20.46a5.23,5.23,0,0,0-.11-7.07.37.37,0,0,1,0-.52c1-.95,3.78,4.56.63,8.08A.36.36,0,0,1,103.47,20.46Z"/><path class="cls-3" d="M111.08,15.86a.37.37,0,0,1,.59.43c-.92,1.24-2.59,3.39-1.86,5.5C110.26,23.08,106.64,21.87,111.08,15.86Z"/><path class="cls-3" d="M125,27.7c1.82-2.22,4.3-5.37,3.85-8.94-.2-1.5,3.67.87-3.28,9.4A.37.37,0,0,1,125,27.7Z"/><path class="cls-3" d="M124.1,16.05c.79-1,3.24-3.9,1.64-6.17-1-1.41,4.08.06-1.07,6.62A.36.36,0,1,1,124.1,16.05Z"/><path class="cls-3" d="M109.31,11.8a8.48,8.48,0,0,0-.76-5.36.36.36,0,0,1,.65-.33,9.25,9.25,0,0,1,.83,5.83A.37.37,0,0,1,109.31,11.8Z"/><path class="cls-3" d="M88.28,33.46A.36.36,0,0,1,88,33a5.32,5.32,0,0,0-1.86-4.91.36.36,0,0,1,.46-.56C89.14,29.66,89.13,33.58,88.28,33.46Z"/><path class="cls-3" d="M131.87,28.79a.37.37,0,0,1-.08.51,7.07,7.07,0,0,0-2.84,6,.37.37,0,0,1-.34.39C126.79,35.81,130.64,27.1,131.87,28.79Z"/><path class="cls-1" d="M131.41,37.28c-4.15-1-4,7.56-3.89,11.82C127.85,57.49,137.94,38.91,131.41,37.28Z"/><path class="cls-4" d="M130.71,41.51a.31.31,0,1,0-.58.21c.82,2.33.16,3.74-.79,4.31a.32.32,0,0,0-.11.43C129.82,47.43,131.88,44.84,130.71,41.51Z"/><path class="cls-1" d="M85.65,39.06c4-1.38,4.66,7.19,4.85,11.45C90.87,58.91,79.27,41.22,85.65,39.06Z"/><path class="cls-4" d="M86.7,43.22a.31.31,0,0,1,.6.15c-.63,2.39.15,3.75,1.14,4.24a.31.31,0,0,1,.14.41C88.07,49,85.81,46.63,86.7,43.22Z"/><path class="cls-3" d="M118.17,41.46c1.34-.06,2.18-5.2-1.08-5.07C115.35,36.46,116,41.55,118.17,41.46Z"/><path class="cls-3" d="M98.23,42.49c-1.34.06-2.6-5,.65-5.14C100.62,37.28,100.43,42.4,98.23,42.49Z"/><path class="cls-4" d="M119.66,65.32a.39.39,0,0,0-.54.07c-3.53,4.57-16,6.13-21.94-.4a.39.39,0,0,0-.57.52C105.43,75.14,121.87,67,119.66,65.32Z"/><path class="cls-2" d="M113.24,33.92c.31.16,10.67.93,10.83.87,2.51-.83-6.34-4.36-10.69-2.46A1,1,0,0,0,113.24,33.92Z"/><path class="cls-2" d="M103.24,32c-4.42-1.74-12.66,2.25-10.56,3,.64,0,10.62-1.28,10.77-1.38A1,1,0,0,0,103.24,32Z"/><path class="cls-4" d="M110.78,50.09c.11-.57-.85-.58-1.46-.69-2.24-.4-2.29.69-1.65-8.66.13-1.82.39-2.81-.26-2.83s-.42.7-.56,2.78c-.7,10.14-.77,8.9,3.45,9.73A.41.41,0,0,0,110.78,50.09Z"/><path class="cls-4" d="M114.88,57.84c.49-1-.95-.62-12.16-1.32C100.21,56.36,109,69.22,114.88,57.84Z"/><path class="cls-1" d="M71.05,460.88c-3.76,2.89-7.87,3.63-13.17.57l.75-26.05,16.81.47Z"/><path class="cls-5" d="M55.64,477.35c1.76,1.28,1.5.92,39.57,2.73,7.62.37,8-3.56,4-6-6-3.73-27.71-15.75-29.08-14.94-3.9,2.3-5.88,2.67-12,1.82C57.14,460.8,50.4,473.53,55.64,477.35Z"/><path class="cls-6" d="M79,463.77a12,12,0,0,1-5.11,3.92Z"/><path class="cls-7" d="M73.86,468.19a.48.48,0,0,1-.46-.32.5.5,0,0,1,.27-.65,11.51,11.51,0,0,0,4.91-3.75.5.5,0,0,1,.7-.1.5.5,0,0,1,.09.7,12.51,12.51,0,0,1-5.32,4.08A.72.72,0,0,1,73.86,468.19Z"/><path class="cls-6" d="M82.73,466c.09,1.54-3,3.44-4.44,4.09Z"/><path class="cls-7" d="M78.29,470.62a.49.49,0,0,1-.45-.3.49.49,0,0,1,.25-.66c1.77-.79,4.2-2.55,4.14-3.6a.5.5,0,0,1,.47-.53.52.52,0,0,1,.53.47c.14,2.32-4.68,4.55-4.73,4.57A.54.54,0,0,1,78.29,470.62Z"/><path class="cls-6" d="M86.71,468.31c-.85,2.11-3.19,3.07-4.86,3.78Z"/><path class="cls-7" d="M81.91,472.56a.53.53,0,0,1-.48-.29.46.46,0,0,1,.23-.64c1.66-.7,3.82-1.62,4.59-3.5a.5.5,0,1,1,.92.37c-.91,2.27-3.3,3.28-5,4A.49.49,0,0,1,81.91,472.56Z"/><path class="cls-7" d="M91,477.68l-1.38,0c-.44,0-.88,0-1.27,0a.5.5,0,0,1-.5-.5.53.53,0,0,1,.52-.5h1.27c3.24.06,6.92.11,7.49-2.52a.5.5,0,0,1,.59-.38.5.5,0,0,1,.39.59C97.41,477.34,94.08,477.68,91,477.68Z"/><path class="cls-8" d="M133.33,470.09a13.91,13.91,0,0,0,0,3.41,4.37,4.37,0,0,0,1.41,2.79,5.48,5.48,0,0,0,2.9,1.17c1,.15,2.27.15,3.41.21l13.85.71c4.62.32,9.24.52,13.85.76,2.3.12,4.61.22,6.91.21a20.14,20.14,0,0,0,3.4-.15l.4-.09.32-.13a5.71,5.71,0,0,0,.63-.56A2.07,2.07,0,0,0,181,477h.1a2.22,2.22,0,0,1-.58,1.63,4.54,4.54,0,0,1-.62.62,2.32,2.32,0,0,1-.82.33,21.15,21.15,0,0,1-3.46.36c-2.32.1-4.63.07-7,0-4.63-.09-9.26-.3-13.88-.55s-9.24-.57-13.86-.92c-1.16-.11-2.31-.14-3.46-.34a6,6,0,0,1-3.15-1.43,4.84,4.84,0,0,1-1.38-3.15,12.21,12.21,0,0,1,.27-3.46Z"/><polygon class="cls-1" points="150.69 460.53 137.37 461.81 135 437.07 151.28 437.53 150.69 460.53"/><path class="cls-5" d="M135,477.15c1.75,1.27,1.5.92,39.57,2.73,7.62.36,8-3.57,4-6-6-3.74-27.71-15.75-29.09-14.94-3.9,2.29-5.87,2.67-12,1.82C136.54,460.6,129.79,473.33,135,477.15Z"/><path class="cls-8" d="M153.26,468a.51.51,0,0,1-.47-.31.5.5,0,0,1,.28-.65,11.48,11.48,0,0,0,4.9-3.75.5.5,0,0,1,.8.6,12.48,12.48,0,0,1-5.33,4.08A.57.57,0,0,1,153.26,468Z"/><path class="cls-8" d="M157.69,470.41a.52.52,0,0,1-.46-.29.5.5,0,0,1,.26-.66c1.77-.8,4.2-2.55,4.13-3.6a.51.51,0,0,1,.47-.53.49.49,0,0,1,.53.47c.15,2.32-4.68,4.55-4.72,4.57A.52.52,0,0,1,157.69,470.41Z"/><path class="cls-8" d="M161.31,472.36a.52.52,0,0,1-.48-.3.46.46,0,0,1,.23-.64c1.65-.7,3.82-1.61,4.58-3.5a.52.52,0,0,1,.66-.27.5.5,0,0,1,.27.65c-.92,2.27-3.31,3.28-5,4A.54.54,0,0,1,161.31,472.36Z"/><path class="cls-8" d="M170.35,477.47H169c-.44,0-.88,0-1.28,0a.51.51,0,0,1-.5-.5.52.52,0,0,1,.53-.5H169c3.25.05,6.92.11,7.5-2.52a.5.5,0,1,1,1,.21C176.8,477.14,173.47,477.47,170.35,477.47Z"/><path class="cls-9" d="M62.47,207c-.25,5-12.28,248.73-7.49,249.2,2.56.25,19.73,1.53,20.3-1.06,20.42-93.05,30-183.94,30-183.94C111,307.75,111,345,116.5,381.54c2.07,13.69,15.46,72.7,17.6,73.15,3.62.77,19.88,2.43,19.86-.9-.09-21-2-246.75-2-246.75Z"/><path class="cls-10" d="M105.06,261.83H105a.5.5,0,0,1-.44-.55c2.28-19.26,1.3-29,.66-35.38-.53-5.3-.82-8.21,1.32-12.08a.51.51,0,0,1,.68-.2.5.5,0,0,1,.19.68c-2,3.6-1.72,6.24-1.2,11.5.65,6.46,1.63,16.23-.66,35.6A.5.5,0,0,1,105.06,261.83Z"/><path class="cls-10" d="M136.43,451.52a.49.49,0,0,1-.48-.37c-13.37-52-17.17-96.53-19.94-129.06-1.82-21.33-3.13-36.74-6.35-45.8a.5.5,0,0,1,.31-.64.49.49,0,0,1,.63.31c3.26,9.18,4.58,24.64,6.4,46.05,2.78,32.49,6.57,77,19.91,128.89a.5.5,0,0,1-.36.61Z"/><path class="cls-10" d="M148,246.21a.57.57,0,0,1-.3-.1c-12.15-8.93-12.18-12.25-12.34-28.2,0-1.85,0-3.87-.08-6.1a.5.5,0,0,1,.5-.51.49.49,0,0,1,.5.49c.05,2.23.07,4.26.08,6.12.16,15.9.19,18.76,11.94,27.39a.5.5,0,0,1,.1.7A.49.49,0,0,1,148,246.21Z"/><path class="cls-10" d="M65.19,239.5a.5.5,0,0,1-.22-.95c13-6.48,13.57-9.3,16.46-24.93.34-1.83.71-3.82,1.13-6a.51.51,0,0,1,.59-.39.5.5,0,0,1,.4.58c-.43,2.19-.8,4.19-1.13,6-2.9,15.68-3.5,18.94-17,25.65A.59.59,0,0,1,65.19,239.5Z"/><path class="cls-10" d="M104.85,269.5c-.4,0-.65-.4-1.16-1.21-1.17-1.88-3.61-5.79-8-4.58a.5.5,0,1,1-.27-1c5.08-1.41,7.88,3.09,9.08,5l.18.28a7.76,7.76,0,0,1,6.2-5,.49.49,0,0,1,.56.43.5.5,0,0,1-.44.56,6.83,6.83,0,0,0-5.57,4.89.63.63,0,0,1-.51.52Z"/><path class="cls-10" d="M109.9,241.68c-.33,0-.67,0-1-.06a7.37,7.37,0,0,0-2.29,0,.5.5,0,0,1-.19-1,8.6,8.6,0,0,1,2.57,0c1,.1,1.63.13,2.15-.33,1.73-1.49,2.73-8.64,3.69-26.38a.5.5,0,0,1,.53-.48.51.51,0,0,1,.47.53c-1.13,20.94-2.25,25.55-4,27.09A2.71,2.71,0,0,1,109.9,241.68Z"/><rect class="cls-11" x="62.47" y="209.04" width="89.62" height="9.79"/><path class="cls-12" d="M176.46,234.19c-4.8,1.64-11,2.47-13.86,1.55,4.47,17.33,2.55,8.1,2.4,14.7-.08,3.74-2.85,17.51.15,19.52,2.28,1.53,3.12-4.74,3.95-8.51,1.15-5.23,9.69,2.43,4.62,14.46-.5,1.19-3.46,6.86.31,8.79,7.3-9.67,10.63-25.93,2.57-38.42C175.78,245,176,244.93,176.46,234.19Z"/><path class="cls-13" d="M178.81,245.28c1-.15.8-1.21.88-3.19-5.63,1.65-17.36.93-17.36.93C163.07,245.5,161.39,248,178.81,245.28Z"/><path class="cls-9" d="M88.43,220.46c-.38,0-.23-14.53-.23-14.19,0-.4,2.71-.23,2.36-.23.38,0,.23,14.53.23,14.19C90.79,220.63,88.07,220.46,88.43,220.46Z"/><path class="cls-9" d="M130.12,220.46c-.38,0-.23-14.53-.23-14.19,0-.4,2.72-.23,2.36-.23.38,0,.23,14.53.23,14.19C132.48,220.63,129.77,220.46,130.12,220.46Z"/><path class="cls-14" d="M105.61,220.16c-4.82,0-6.12-.15-6.9-.93a2.36,2.36,0,0,1-.59-1.78c0-1.76,0-3.26,0-4.53,0-4.72-.06-6.31.87-7.25a2.43,2.43,0,0,1,1.81-.63c4.26,0,7.69,0,10.43,0,8.74-.06,10.56-.07,11.56.91a2.37,2.37,0,0,1,.59,1.78c0,1.76,0,3.26,0,4.53,0,4.72.07,6.31-.86,7.25a2.45,2.45,0,0,1-1.81.64c-4.27,0-7.69,0-10.44,0ZM116,207l-4.76,0c-2.75,0-6.18,0-10.45,0a1.07,1.07,0,0,0-.39,0c-.34.34-.32,2.76-.29,5.82,0,1.28,0,2.78,0,4.55a1.45,1.45,0,0,0,0,.41c.48.35,4.1.32,10.1.28,2.75,0,6.18,0,10.45,0a.87.87,0,0,0,.39,0c.34-.34.32-2.76.28-5.82,0-1.28,0-2.78,0-4.55a2.18,2.18,0,0,0,0-.41C121,207,119.12,207,116,207Z"/><path class="cls-15" d="M136.67,106.22c-1.31,27.25,4.25,44.29,25.66,136.8,7.06,1.44,10.66.83,17.36-.93C185.31,240.71,186,94.15,152.29,91,145.85,90.42,137,100.07,136.67,106.22Z"/><path class="cls-13" d="M169.29,244.32a34.63,34.63,0,0,1-7-.81l-.32-.06-.07-.32c-3.61-15.6-6.76-29-9.53-40.78-13.59-57.88-17.24-73.43-16.15-96.15.17-3.53,3-8.26,7.05-11.77,3.19-2.77,6.42-4.15,9.12-3.91,20.37,1.89,27.2,53,29.46,83.32,2.42,32.57,1.4,67.9-2,68.73A40,40,0,0,1,169.29,244.32Zm-6.54-1.73c6.76,1.34,10.19.75,16.82-1,3.12-1.88,5.07-68.54-5.07-113.21-5.35-23.6-12.84-36-22.25-36.88-2.39-.23-5.44,1.11-8.38,3.66-3.79,3.3-6.55,7.85-6.7,11.07l-.5,0,.5,0c-1.09,22.58,2.56,38.1,16.13,95.87C156.05,213.84,159.17,227.12,162.75,242.59Z"/><path class="cls-7" d="M121.23,76.08C115,81.75,99.52,82,93.3,75.51,86.79,78.8,65.05,85.59,60.77,88.58,50.93,95.46,48.34,196.83,62.47,207c34.39,2.6,54.55,11,89.24,7,21.32-5.82,3.93-121.44,3.66-122.45C155.34,91.49,121.34,76.12,121.23,76.08Z"/><path class="cls-6" d="M133.63,215.6c-14.07,0-26.18-1.92-38.78-3.93-10-1.58-20.26-3.22-32.42-4.14h-.14l-.12-.08c-7.72-5.58-10.24-35.86-10-62.35.2-25.53,3.13-53.28,8.34-56.92,2.43-1.7,10.25-4.55,17.81-7.31,6.13-2.23,11.92-4.34,14.79-5.79l.33-.17.25.27c6.25,6.51,21.33,5.89,27.24.54l.23-.21.29.12c.08,0,9.1,4.1,17.12,7.74,17.24,7.82,17.24,7.82,17.32,8.12.3,1.13,18,117-4,123.05A155.78,155.78,0,0,1,133.63,215.6Zm-71-9c12.13.92,22.41,2.56,32.35,4.14,17.65,2.8,34.32,5.45,56.66,2.86,20.14-5.5,4.17-116,3.26-121.61-2.66-1.29-30.45-13.86-33.6-15.27C115,82,99.83,82.61,93.2,76.12c-3,1.47-8.63,3.52-14.56,5.68-7.5,2.74-15.26,5.56-17.58,7.19-4.29,3-7.69,27.12-7.92,56.11C52.88,177.87,56.61,201.93,62.65,206.55Z"/><path class="cls-15" d="M76.39,148.78c.18,15.81,6.44,31.42,4.29,47.09-10.11,73.62-5.74,80.21-10.5,80.29-27.85.44-27.47,1-28.23-1.1C36.1,258.83,6.73,126.18,60.34,88.79c5.77-4,21.78-9.65,22.11-8.35C87.06,98.94,76.18,130.3,76.39,148.78Z"/><path class="cls-13" d="M47.29,277.07c-5.15,0-5.29-.39-5.79-1.8C38.17,266,29.68,228.4,28.35,189.88c-1.22-35.37,3.3-81.69,31.71-101.5,5.43-3.79,20.49-9.27,22.41-8.55a.68.68,0,0,1,.46.49c2.8,11.21,0,26.78-2.68,41.85-1.77,9.9-3.44,19.26-3.36,26.6.08,6.61,1.24,13.31,2.37,19.79,1.56,9,3.18,18.22,1.92,27.38-5.1,37.09-6.51,57.16-7.28,67.95-.77,11-.89,12.72-3.71,12.77-6,.09-10.69.19-14.36.27S49.28,277.07,47.29,277.07ZM81.87,80.74c-2.35,0-15.78,4.66-21.24,8.46-28,19.56-32.49,65.53-31.28,100.64,1.32,38.41,9.77,75.89,13.07,85,.47,1.3.48,1.32,13.39,1,3.67-.08,8.36-.18,14.36-.27,1.84,0,2-1.2,2.74-11.84.76-10.8,2.18-30.89,7.28-68,1.23-9-.37-18.19-1.91-27.07-1.14-6.52-2.31-13.26-2.39-19.95-.08-7.43,1.6-16.83,3.38-26.79,2.66-14.87,5.41-30.26,2.74-41.25Z"/><polygon class="cls-12" points="43.54 211.56 60.99 229.87 71.88 220.64 56.37 198.23 43.54 211.56"/><path class="cls-15" d="M1.29,177.28C13.15,196.54,39,229.87,51.89,221c9.1-4.16,6.46-6.57,13.22-11.28,8.42-5.88-11.53-24.06-22.89-37.81-2.2-2.66-1-3.38,1.06-6.53,17.91-27.13,18.49-77.54,18.49-77.54C55.8,89.05,50.41,91,45.47,96,40.17,101.27-6.18,165.15,1.29,177.28Z"/><path class="cls-13" d="M47.05,223a12.06,12.06,0,0,1-2.55-.28C30.1,219.65,9.66,191.83.86,177.55-7,164.84,40.77,100,45.12,95.61c5.46-5.46,11.43-7.22,16.56-8.22l.6-.12v.62c0,.5-.78,50.87-18.58,77.81-.29.45-.57.86-.83,1.22-1.5,2.15-1.9,2.73-.26,4.71,2.38,2.89,5.09,5.9,7.95,9.1,8.73,9.72,17.74,19.77,17,25.85a5,5,0,0,1-2.19,3.59,19,19,0,0,0-5,5c-1.5,2-2.91,3.93-8.27,6.38A8.79,8.79,0,0,1,47.05,223ZM61.26,88.49c-4.84,1-10.38,2.77-15.44,7.83-6,6-51.24,69.11-44.1,80.7,8.71,14.16,28.91,41.72,43,44.72a8.64,8.64,0,0,0,6.9-1.11c5.2-2.39,6.48-4.11,8-6.11a20.07,20.07,0,0,1,5.26-5.17,3.94,3.94,0,0,0,1.77-2.89c.65-5.63-8.22-15.51-16.79-25.07-2.87-3.2-5.58-6.22-8-9.12-2.12-2.57-1.29-3.76.21-5.92.25-.36.53-.76.82-1.2C59.42,140.07,61.11,94.34,61.26,88.49Z"/><path class="cls-15" d="M139.92,195.83c-2.07,16.95,2.7,33.92,3.85,51,1.91,28.12-.94,31.44,4.52,32.44,5.11.94,25.6,2.65,25.51-2.52-.88-49,3.27-169.83-18.43-185.11-18.5-8.45-18.94-8.89-18.78-8.2C155.18,161.89,147,137.58,139.92,195.83Z"/><path class="cls-13" d="M161.8,280.76a91.66,91.66,0,0,1-13.6-1c-4-.72-4-2.61-4.12-11.69-.06-4.85-.15-11.48-.81-21.21-.4-5.88-1.24-11.86-2.06-17.65-1.54-10.94-3.14-22.26-1.78-33.4,1.95-16,4-25.93,5.52-33.17,4-19.28,4.61-22.24-8.85-79.09a.66.66,0,0,1,.18-.7c.43-.35.43-.35,7.69,3,2.72,1.26,6.47,3,11.61,5.34,18.43,13,18.5,99.28,18.55,156.4,0,11.33,0,21.11.17,29.15a2.46,2.46,0,0,1-1,2C171.45,280.27,166.72,280.76,161.8,280.76Zm-21.88-84.93.5.06c-1.34,11,.25,22.26,1.78,33.14.82,5.8,1.67,11.8,2.07,17.72.66,9.76.75,16.41.81,21.26.12,9.15.24,10.17,3.3,10.73,4.63.85,20.73,2.2,24.31-.84a1.49,1.49,0,0,0,.61-1.18c-.15-8.05-.16-17.84-.17-29.17,0-56.91-.12-142.92-18-155.54-5.07-2.3-8.82-4-11.54-5.29-3.43-1.58-5.43-2.51-6.34-2.87,13.37,56.52,12.74,59.56,8.72,79-1.51,7.23-3.56,17.13-5.51,33.09Z"/><path class="cls-13" d="M29.42,175.9a.51.51,0,0,1-.28-.09.5.5,0,0,1-.13-.7c2.26-3.31,5.76-7.5,10.27-5.87-.31-1.46-3.06-6.49-6.46-10a.5.5,0,1,1,.72-.7c3.35,3.45,7.48,10.21,6.62,11.49a.75.75,0,0,1-1,.22c-3-1.23-6,.49-9.33,5.41A.52.52,0,0,1,29.42,175.9Z"/><path class="cls-13" d="M54.56,235.44a.51.51,0,0,1-.38-.16.51.51,0,0,1,0-.71c6.24-5.56,12.73-11,19.3-16.14a.5.5,0,0,1,.7.08.5.5,0,0,1-.08.71c-6.55,5.13-13,10.55-19.25,16.1A.54.54,0,0,1,54.56,235.44Z"/><path class="cls-13" d="M169.45,235.44a.5.5,0,0,1-.33-.12c-6.22-5.55-12.7-11-19.25-16.1a.5.5,0,1,1,.61-.79c6.57,5.15,13.06,10.58,19.3,16.14a.49.49,0,0,1-.33.87Z"/><path class="cls-13" d="M54.57,222.86c-.69.48-1.26-.45-2.68-1.82,5.22-2.68,13.22-11.28,13.22-11.28C66.33,212.14,69.31,212.7,54.57,222.86Z"/><path class="cls-6" d="M99.09,90.36h-.15c-1.2-.1-2.08-1.42-3.83-4.06-1.39-2.09-3.28-5-6.28-8.68a.5.5,0,0,1,.08-.7.49.49,0,0,1,.7.08,107.25,107.25,0,0,1,6.33,8.75C97.41,88,98.3,89.3,99,89.36s2-1.3,4.11-3.54c.94-1,2.07-2.24,3.46-3.67.89-.91,2.44.59,4.79,2.86,1.62,1.56,3.83,3.66,4.73,3.63a.24.24,0,0,0,.18-.09c1.23-1.58,2.57-3.36,3.86-5.08,1.53-2,3.12-4.17,4.56-6a.5.5,0,1,1,.78.63c-1.43,1.78-3,3.89-4.54,5.93-1.29,1.73-2.63,3.51-3.87,5.09a1.25,1.25,0,0,1-.9.48c-1.26.06-3-1.49-5.49-3.91-1.18-1.13-3-2.84-3.45-2.84-1.32,1.38-2.44,2.6-3.38,3.61C101.44,89.11,100.29,90.36,99.09,90.36Z"/><path class="cls-6" d="M110.23,212.42a.5.5,0,0,1-.49-.42c-6.25-41.58-3.29-54.86-.92-65.53,1.23-5.53,2.29-10.32,1.85-18-.33-5.63-1.13-11.77-1.91-17.7-1.21-9.22-2.46-18.75-2-26.65a.49.49,0,0,1,.53-.47.5.5,0,0,1,.47.53c-.5,7.81.74,17.29,1.94,26.46.78,5.95,1.59,12.11,1.91,17.77.46,7.84-.62,12.69-1.87,18.3-2.35,10.59-5.28,23.77.93,65.16a.49.49,0,0,1-.42.57Z"/><path class="cls-6" d="M131.76,143.23c-3.36,0-4.73-.15-5.46-.87a2.22,2.22,0,0,1-.55-1.66c0-2.64,0-4.85,0-6.69-.06-6-.09-8,.85-8.91a2.21,2.21,0,0,1,1.65-.55c2.65,0,4.86,0,6.7,0,6-.06,8-.09,8.91.85a2.21,2.21,0,0,1,.55,1.65c0,2.65,0,4.86,0,6.7.06,6,.08,8-.85,8.91a2.22,2.22,0,0,1-1.66.55c-2.64,0-4.85,0-6.69.05Zm6.5-17.75-3.35,0c-1.84,0-4,0-6.71,0-.61,0-.82.12-.94.25-.64.65-.61,3.17-.56,8.2,0,1.84,0,4.05,0,6.7,0,.62.12.83.25,1,.65.64,3.17.61,8.2.56,1.84,0,4.05-.05,6.7-.05.62,0,.82-.13.95-.25.64-.65.61-3.17.56-8.2,0-1.84,0-4.05,0-6.71,0-.61-.13-.82-.25-.94C142.63,125.58,141.1,125.48,138.26,125.48Z"/><path class="cls-6" d="M125,212.4a.5.5,0,0,1-.34-.88,12.81,12.81,0,0,0,3.55-13,.5.5,0,0,1,1-.31,13.88,13.88,0,0,1-3.84,14.09A.53.53,0,0,1,125,212.4Z"/><path class="cls-6" d="M93,210c-4.94-.4-6.29-5.67-6.92-10.22a.51.51,0,0,1,.43-.57.49.49,0,0,1,.56.43c.58,4.18,1.78,9,6,9.36a.51.51,0,0,1,.46.54A.5.5,0,0,1,93,210Z"/><path class="cls-6" d="M110.05,92.61c-2.7-1.06-1-3.28.31-3.28C112,89.33,111.71,93.26,110.05,92.61Z"/><path class="cls-6" d="M113.51,116.7c-2.7-1.06-1-3.28.31-3.28C115.49,113.42,115.17,117.35,113.51,116.7Z"/><path class="cls-6" d="M115,141.67c-2.7-1-1-3.27.32-3.27C117,138.4,116.66,142.32,115,141.67Z"/><path class="cls-6" d="M111.54,163.83c-2.7-1.06-1-3.28.32-3.28C113.52,160.55,113.2,164.48,111.54,163.83Z"/><path class="cls-6" d="M110.75,187.34c-2.71-1.06-1-3.28.31-3.28C112.72,184.06,112.4,188,110.75,187.34Z"/><path class="cls-6" d="M113.09,210.29c-2.71-1-1-3.27.31-3.27C115.06,207,114.74,210.94,113.09,210.29Z"/></g></g></svg>