<svg xmlns="http://www.w3.org/2000/svg" viewBox="0 0 581.72 512"><defs><style>.cls-1,.cls-32,.cls-33{fill:none;}.cls-2{fill:#f5f5f5;}.cls-3{fill:#e6e6e6;}.cls-4{fill:#37474f;}.cls-5{fill:#455a64;}.cls-23,.cls-35,.cls-6{fill:#27debf;}.cls-18,.cls-19,.cls-23,.cls-7{opacity:0.6;}.cls-10,.cls-15,.cls-17,.cls-18,.cls-20,.cls-23,.cls-27,.cls-34,.cls-35,.cls-36,.cls-37,.cls-7,.cls-8,.cls-9{isolation:isolate;}.cls-15,.cls-16,.cls-8{opacity:0.5;}.cls-30,.cls-9{opacity:0.4;}.cls-10{opacity:0.15;}.cls-11,.cls-17{fill:#263238;}.cls-12{fill:#e0e0e0;}.cls-13{fill:#ebebeb;}.cls-14,.cls-15,.cls-18,.cls-20,.cls-34{fill:#fff;}.cls-17,.cls-22{opacity:0.9;}.cls-20,.cls-21{opacity:0.8;}.cls-24{opacity:0.7;}.cls-25,.cls-36{opacity:0.3;}.cls-26{opacity:0.25;}.cls-27,.cls-35{opacity:0.1;}.cls-28{fill:#ffa8a7;}.cls-29{fill:#fafafa;}.cls-31{fill:#f28f8f;}.cls-32,.cls-33{stroke:#263238;stroke-miterlimit:10;}.cls-32{stroke-width:1.21px;}.cls-33{stroke-width:1.03px;}.cls-34{opacity:0.75;}.cls-37{opacity:0.2;}.cls-38{fill:#f0f0f0;}</style></defs><g id="Layer_2" data-name="Layer 2"><g id="Layer_1-2" data-name="Layer 1"><rect class="cls-1" x="0.9" width="580.82" height="512"/><g id="Layer_2-2" data-name="Layer 2"><g id="Floor"><ellipse id="Floor-2" class="cls-2" cx="290.86" cy="381.13" rx="290.86" ry="113.51"/></g><g id="Shadows"><path id="Shadow" class="cls-3" d="M492.69,351.27l-125,72.21a3.75,3.75,0,0,1-3.36,0l-180.22-104a1,1,0,0,1,0-1.94l125-72.21a3.75,3.75,0,0,1,3.36,0l180.22,104a1,1,0,0,1,0,1.94Z"/><ellipse id="Shadow-2" class="cls-3" cx="202.23" cy="420.52" rx="75.08" ry="43.35"/><ellipse id="Shadow-3" class="cls-3" cx="293.65" cy="370.26" rx="59.1" ry="34.12"/><ellipse id="Shadow-4" class="cls-3" cx="425.09" cy="415.99" rx="37.1" ry="21.42"/></g><g id="Desk"><g id="Desk-2"><g id="Table"><path class="cls-4" d="M370.42,294.49V405.43a2.47,2.47,0,0,1-1.12,1.94l-2.38,1.38a2.52,2.52,0,0,1-2.24,0l-2.38-1.38a2.47,2.47,0,0,1-1.12-1.94V294.49c0-.71.5-1,1.12-.65l2.38,1.38a2.52,2.52,0,0,0,2.24,0l2.38-1.38C369.92,293.49,370.42,293.78,370.42,294.49Z"/><path class="cls-5" d="M364.68,408.75l-2.38-1.38a2.47,2.47,0,0,1-1.12-1.94V294.49c0-.71.5-1,1.12-.65l2.38,1.38a2.47,2.47,0,0,1,1.12,1.94V408.1C365.8,408.81,365.3,409.1,364.68,408.75Z"/><path class="cls-4" d="M471.93,235.85V346.79a2.47,2.47,0,0,1-1.12,1.94l-2.38,1.37a2.46,2.46,0,0,1-2.24,0l-2.38-1.37a2.49,2.49,0,0,1-1.12-1.94V235.85c0-.72.51-1,1.12-.65l2.38,1.37a2.46,2.46,0,0,0,2.24,0l2.38-1.37C471.43,234.84,471.93,235.13,471.93,235.85Z"/><path class="cls-5" d="M466.19,350.1l-2.38-1.37a2.49,2.49,0,0,1-1.12-1.94V235.85c0-.72.51-1,1.12-.65l2.38,1.37a2.47,2.47,0,0,1,1.12,1.94v111C467.31,350.17,466.81,350.46,466.19,350.1Z"/><path class="cls-4" d="M233.71,215.6V326.54a2.47,2.47,0,0,1-1.12,1.94l-2.38,1.37a2.46,2.46,0,0,1-2.24,0l-2.38-1.37a2.47,2.47,0,0,1-1.12-1.94V215.6c0-.72.5-1,1.12-.65l2.38,1.38a2.52,2.52,0,0,0,2.24,0l2.38-1.38C233.21,214.59,233.71,214.88,233.71,215.6Z"/><path class="cls-5" d="M228,329.85l-2.38-1.37a2.47,2.47,0,0,1-1.12-1.94V215.6c0-.72.5-1,1.12-.65l2.38,1.38a2.45,2.45,0,0,1,1.12,1.93v111A.68.68,0,0,1,228,329.85Z"/><path class="cls-6" d="M494,243.74v-.81a4.5,4.5,0,0,0-2-3.53L313,136.14a4.51,4.51,0,0,0-4.08,0L198.77,199.75a4.5,4.5,0,0,0-2,3.53v.81a4.5,4.5,0,0,0,2,3.53l179,103.25a4.51,4.51,0,0,0,4.08,0L492,247.27A4.5,4.5,0,0,0,494,243.74Z"/><path class="cls-7" d="M494,243.74v-.81a4.5,4.5,0,0,0-2-3.53L313,136.14a4.51,4.51,0,0,0-4.08,0L198.77,199.75a4.5,4.5,0,0,0-2,3.53v.81a4.5,4.5,0,0,0,2,3.53l179,103.25a4.51,4.51,0,0,0,4.08,0L492,247.27A4.5,4.5,0,0,0,494,243.74Z"/><path class="cls-6" d="M379.82,305.84v5.52a4.34,4.34,0,0,0,2-.48L492,247.27a4.5,4.5,0,0,0,2-3.53v-.81a4.53,4.53,0,0,0-1.66-3.27c.73.63.61,1.51-.38,2.09l-110.1,63.61A4.15,4.15,0,0,1,379.82,305.84Z"/><path class="cls-8" d="M379.82,305.84v5.52a4.34,4.34,0,0,0,2-.48L492,247.27a4.5,4.5,0,0,0,2-3.53v-.81a4.53,4.53,0,0,0-1.66-3.27c.73.63.61,1.51-.38,2.09l-110.1,63.61A4.15,4.15,0,0,1,379.82,305.84Z"/><path class="cls-6" d="M492,241.75l-110.12,63.6a4.51,4.51,0,0,1-4.08,0L198.8,202.1a1.24,1.24,0,0,1-.78-1.57,1.21,1.21,0,0,1,.78-.78l110.12-63.61a4.51,4.51,0,0,1,4.08,0L492,239.4a1.24,1.24,0,0,1,.78,1.57A1.21,1.21,0,0,1,492,241.75Z"/><path class="cls-9" d="M492,241.75l-110.12,63.6a4.51,4.51,0,0,1-4.08,0L198.8,202.1a1.24,1.24,0,0,1-.78-1.57,1.21,1.21,0,0,1,.78-.78l110.12-63.61a4.51,4.51,0,0,1,4.08,0L492,239.4a1.24,1.24,0,0,1,.78,1.57A1.21,1.21,0,0,1,492,241.75Z"/></g><g id="Keyboard"><path id="Shadow-5" class="cls-10" d="M366.29,240.36,340.2,255.47a3.22,3.22,0,0,1-2.93,0L260.19,211a.89.89,0,0,1-.57-1.12.9.9,0,0,1,.57-.57l26.09-15.11a3.2,3.2,0,0,1,2.92,0l77.09,44.44a.89.89,0,0,1,.63,1.09A.87.87,0,0,1,366.29,240.36Z"/><g id="Keyboard-2"><path class="cls-11" d="M261.77,206.66a1,1,0,0,1,.61-.85l24.51-14.15a3.2,3.2,0,0,1,2.92,0l74.8,43.25a1,1,0,0,1,.6.84v2.57a1,1,0,0,1-.6.85l-24.5,14.15a3.22,3.22,0,0,1-2.93,0l-74.8-43.18a1,1,0,0,1-.61-.84Z"/><path class="cls-4" d="M340.11,250.69l24.5-14.08a.89.89,0,0,0,.57-1.12.9.9,0,0,0-.57-.57l-74.8-43.25a3.2,3.2,0,0,0-2.92,0l-24.51,14.15a.89.89,0,0,0-.57,1.12.9.9,0,0,0,.57.57l74.8,43.19A3.25,3.25,0,0,0,340.11,250.69Z"/><path class="cls-11" d="M338.74,251v2.63a3,3,0,0,0,1.37-.34l24.49-14.15a1,1,0,0,0,.61-.84v-2.58a1,1,0,0,1-.61.84l-24.49,14.1A3,3,0,0,1,338.74,251Z"/><path class="cls-6" d="M266.31,206.85h0l2.42-1.4,3.29,1.9-2.44,1.44-3.29-1.89Zm3.8-2.2h0l2.43-1.4,2.59,1.5-2.45,1.44-2.58-1.49Zm.8,4.85h0l2.43-1.4,2.58,1.49L273.49,211l-2.58-1.49Zm3-7h0l2.43-1.4,4.17,2.41L278.07,205l-4.17-2.41Zm.09,4.44h0l2.42-1.4,2.06,1.18L276,208.17l-2-1.25Zm.8,4.85h0l2.42-1.4,2.59,1.49-2.45,1.45-2.58-1.49Zm2.56-2.91h0l2.42-1.4,2.05,1.19L279.41,210l-2.05-1.18Zm.34-8.57h0l2.43-1.4,3.29,1.9L281,202.19l-3.29-1.9Zm1,13.73h0l2.42-1.4,18.68,10.79-2.44,1.44L278.69,214Zm.7-8.37h0l2.42-1.4,2.05,1.18-2.44,1.45-2.05-1.18Zm1.33,5.15h0l2.42-1.4,2,1.19L282.77,212l-2-1.18Zm.78-12.7h0l2.42-1.4,2.06,1.19-2.44,1.45-2.05-1.18Zm.8,4.84h0l2.42-1.4,2.06,1.19-2.44,1.45L282.29,203Zm.45,4.65h0l2.42-1.4,2.05,1.18-2.44,1.45-2.05-1.18Zm1.33,5.15h0l2.42-1.4,2.05,1.19L286.12,214l-2.05-1.18Zm.78-12.7h0l2.42-1.39,2.06,1.18-2.44,1.45-2-1.3Zm.8,4.84h0l2.42-1.4,2.06,1.19-2.44,1.45-2-1.19Zm.45,4.65h0l2.42-1.4,2,1.18-2.44,1.45-2-1.18Zm0-14.09h0l2.42-1.4,2.59,1.5L288.68,197l-2.58-1.49Zm1.33,19.24h0l2.42-1.4,2.05,1.19-2.44,1.44-2.05-1.18Zm.78-12.7h0l2.42-1.39,2.06,1.18-2.44,1.45-2-1.18Zm.8,4.85h0l2.42-1.4,2.06,1.19L291.08,208,289,206.82Zm.45,4.64h0l2.42-1.4,2,1.18-2.44,1.45-2-1.18Zm1.33,5.15h0l2.42-1.4,2,1.19-2.44,1.44-2-1.18Zm.66-18.09h0l2.43-1.41,2,1.19-2.44,1.45-2-1.19Zm.12,5.39h0l2.42-1.4,2.06,1.19-2.45,1.45-2-1.19Zm.8,4.84h0l2.42-1.4,2.06,1.19L294.44,210l-2.05-1.19Zm.45,4.65h0l2.42-1.4,2.05,1.18-2.44,1.45-2.05-1.18Zm1.33,5.15h0l2.42-1.4,2,1.19-2.44,1.44-2-1.18Zm.66-18.09h0l2.43-1.4,2.05,1.19-2.44,1.45-2.05-1.19Zm.12,5.39h0l2.42-1.4,2.06,1.18L297,207l-2-1.18Zm.8,4.85h0l2.42-1.4,2.06,1.19L297.79,212l-2.05-1.19Zm.45,4.64h0l2.43-1.4,2.05,1.18-2.44,1.45-2.05-1.18Zm1.33,5.15h0l2.42-1.4,2.06,1.19-2.45,1.44-2.05-1.18Zm.66-18.09h0l2.43-1.4,2.05,1.19-2.44,1.45-2.05-1.19Zm.12,5.39h0l2.43-1.39,2.05,1.18L300.36,209l-2.05-1.18Zm.37,17.75h0l2.43-1.4,2.58,1.49L301.26,227l-2.58-1.49Zm.43-12.91h0l2.42-1.4,2.06,1.19-2.44,1.45-2-1.19Zm.45,4.65h0l2.43-1.4,2,1.09-2.44,1.45-2.05-1.18Zm1.33,5.15h0l2.42-1.4,2.06,1.19-2.45,1.44-2.05-1.18Zm.66-18.09h0L304,203l2,1.19-2.44,1.45-2-1.19Zm.12,5.39h0l2.43-1.4,2,1.19L303.71,211l-2-1.19Zm.8,4.84h0l2.43-1.4,2,1.19-2.44,1.45-2-1.19Zm.1,13.22h0l2.43-1.4,2.58,1.49-2.44,1.45-2.58-1.49Zm.35-8.57h0l2.42-1.4,2,1.18L305,220.41l-2-1.18Zm1.33,5.15h0l2.42-1.4,2.06,1.19-2.45,1.44-2-1.18Zm.78-12.7h0l2.43-1.4,2,1.18L307,212.93l-2-1.25Zm.8,4.84h0l2.43-1.4,2.05,1.19-2.44,1.45-2.05-1.19Zm.45,4.65h0l2.42-1.4,2.05,1.18-2.44,1.45-2.05-1.18Zm.1-14h0l2.43-1.4,2.05,1.18-2.44,1.45-2.05-1.18Zm.08,22.92h0l2.43-1.4,2.58,1.5L309,231.53,306.46,230Zm1.15-3.73h0L310,225l2.06,1.19-2.45,1.44-2-1.18Zm.78-12.7h0l2.42-1.39,2.06,1.18-2.44,1.45-2.05-1.19Zm.8,4.84h0l2.43-1.4,2.05,1.19-2.44,1.45-2.05-1.19Zm.45,4.65h0l2.42-1.4,2.06,1.18-2.45,1.45-2.05-1.18Zm.1-14h0l2.43-1.4,2.05,1.18-2.44,1.45-2-1.18Zm.62,23.22h0l2.43-1.4,3.29,1.9-2.44,1.45-3.29-1.9Zm.61-4h0l2.42-1.4,6.48,3.74L317.44,232,311,228.26Zm.78-12.7h0l2.43-1.4,2.05,1.19-2.44,1.45-2.05-1.19Zm.8,4.84h0L315,219l2.05,1.19-2.44,1.45-2.05-1.19ZM313,225h0l2.42-1.4,2.06,1.18L315,226.23l-2-1.18Zm.1-14h0l2.43-1.4,2.05,1.18-2.44,1.45L313.09,211Zm2,6.49h0l2.43-1.4,2.05,1.19-2.44,1.45-2.05-1.18Zm.55,17.86h0l2.42-1.41,2.06,1.19-2.45,1.45-2-1.19Zm.25-13h0l2.43-1.4,2,1.19L318,223.53l-2-1.19Zm.45,4.65h0l2.42-1.4,1.88,1.08a1.5,1.5,0,0,0,1.21,0l3.19-1.84,2.4,1.39-6.23,3.64Zm.1-14h0l2.43-1.4,2.05,1.18-2.44,1.45Zm2,6.49h0l2.42-1.4,2.06,1.18-2.44,1.45-2-1.19Zm.55,17.86h0l2.42-1.4,2.06,1.19L321,238.59l-2-1.19Zm.25-13h0l2.43-1.4,2.05,1.19-2.44,1.45-2.05-1.19Zm2-8.55h0l2.42-1.4,2.06,1.19L323.28,217l-2-1.19Zm.55,5.65h0l2.42-1.39,2.06,1.18-2.44,1.45-2-1.19Zm.55,17.86h0l2.43-1.4,2.05,1.19-2.44,1.45-2.05-1.19Zm.44-4.14h0l2.42-1.4,2.06,1.19-2.45,1.44-2.05-1.18Zm1.82-17.43h0l2.42-1.4,2.05,1.19L326.64,219l-2.05-1.19Zm.55,5.65h0l2.43-1.39,3.64,2.1-2.44,1.45-3.64-2.11Zm1.26,18.26h0l2.42-1.4,5.42,3.13-2.45,1.45-5.41-3.13Zm.6-12.8h0l2.43-1.4,2.05,1.19L329.1,230l-2.05-1.18Zm1-9.17h0l2.42-1.4,2.05,1.19L330,220.8l-2-1.19Zm2.25,19.78h0l2.43-1.4,2.05,1.18-2.44,1.45-2.05-1.18Zm.16-8.67h0l2.43-1.39,2,1.18L332.37,232l-2-1.18Zm.44-4.14h0l2.43-1.4,2,1.19-2.44,1.45-2-1.19Zm.51-5h0l2.42-1.4,2,1.19-2.44,1.45-2-1.19Zm1.81,23.91h0l2.42-1.4,2.06,1.19-2.45,1.45-2-1.19Zm.44-4.13h0L336,240l2,1.18-2.44,1.45-2-1.18Zm.17-8.67h0l2.43-1.4,2.05,1.19L335.79,234l-2.05-1.18Zm.27,4.54h0l2.43-1.4,2,1.18L336,238.53l-2-1.18Zm.16-8.68h0l2.43-1.4,2.05,1.19-2.44,1.45-2.05-1.19Zm1.25-4.6h0l2.42-1.4,2.06,1.19-2.44,1.45-2.05-1.19Zm1.07,23.48h0l6.22-3.59,2,1.18-6.23,3.65-2.06-1.19Zm.44-4.13h0l2.43-1.4,2.05,1.18-2.42,1.3-2-1.18Zm.44-4.13h0l2.43-1.4,2.05,1.18-2.44,1.45-2.05-1.18Zm.16-8.68h0L340,229l2.05,1.19-2.44,1.45-2.05-1.19Zm.27,4.55h0l2.43-1.41,2.05,1.19-2.44,1.45-2-1.34Zm1-9.15h0l2.42-1.4,2.06,1.19-2.44,1.45L338.8,226Zm1.95,15.22h0l2.43-1.4,2.05,1.18-2.44,1.45-2.05-1.18Zm.43-4.13h0l2.43-1.41,2.05,1.19-2.44,1.45-2.05-1.19Zm.44-4.14h0l2.42-1.4,2.06,1.19-2.43,1.3-2-1.18Zm.54-5h0l2.42-1.4,2.06,1.19-2.42,1.3-2.05-1.19ZM344.12,243h0l6.23-3.6,2,1.19-6.24,3.64Zm.43-4.13h0l2.43-1.41,2,1.19-2.44,1.45-2-1.19Zm.44-4.14h0l2.42-1.4,2.06,1.19L347,235.93l-2-1.18Zm2.23-5.16h0l1-.61,2.06,1.18-1.06.66-2-1.18Zm1.13,7.1h0l2.42-1.4,2.06,1.19-2.45,1.44-2-1.18Zm2.23-5.16h0l1-.61,2.06,1.18-1.06.66-2-1.18Zm1.13,7.1h0l2.42-1.4,2.06,1.19-2.45,1.44-2-1.18Zm2.23-5.16h0l1-.61L357,234l-1.06.66-2-1.18Zm3.35,1.94h0l1-.61,2.06,1.18-1.06.66-2-1.18Z"/></g></g><g id="Device"><polygon id="Shadow-6" class="cls-10" points="426.58 243.29 449.53 230.04 334.77 163.78 311.82 177.03 426.58 243.29"/><g id="Monitor"><path class="cls-3" d="M361.59,221.72l-16.38-9.47c-1.69-1-2.54-2.26-2.54-3.53v-2.28l15.42-8.76a3.6,3.6,0,0,0,1.63-2.82v-20.2l28.62,16.53V211.4a3.6,3.6,0,0,1-1.63,2.82l-12.88,7.5A13.54,13.54,0,0,1,361.59,221.72Z"/><path class="cls-12" d="M381.47,215v2.27l5.24-3a3.6,3.6,0,0,0,1.63-2.82V191.2l-5.45-3.15c-.11,1.38-.24,2.82-.35,4.21l3.82,2.21v15.79a3.56,3.56,0,0,1-1.63,2.82Z"/><path class="cls-2" d="M386.36,210.26a3.62,3.62,0,0,1-1.63,2.83l-10.9,6.35a13.52,13.52,0,0,1-12.23,0L345.2,210c-3.38-1.95-3.38-5.11,0-7.06l10.91-6.36a3.62,3.62,0,0,0,1.63-2.83V177.93l28.62,16.54Z"/><path class="cls-13" d="M352.79,198.47h0l3.32-1.91a3.62,3.62,0,0,0,1.63-2.83v-15.8l28.62,16.54v15.79a3.62,3.62,0,0,1-1.63,2.83L381.47,215Z"/><path class="cls-13" d="M342.67,206.44v2.28c0,1.28.85,2.55,2.53,3.53l16.39,9.47a12.27,12.27,0,0,0,5.84,1.45V220.9a12.27,12.27,0,0,1-5.84-1.45L345.2,210C343.52,209,342.67,207.72,342.67,206.44Z"/><path class="cls-5" d="M432.32,232.06a4.4,4.4,0,0,1-3.95-.08l-110.69-63.9a4.5,4.5,0,0,1-2-3.53V67.66a3.83,3.83,0,0,1,5.87-3.38l110.68,63.9a4.5,4.5,0,0,1,2,3.53V228.6A4.38,4.38,0,0,1,432.32,232.06Z"/><path class="cls-4" d="M428.37,232,317.68,168.1a4.53,4.53,0,0,1-2-3.54V67.66c0-1.3.91-1.83,2-1.18l110.69,63.91a4.5,4.5,0,0,1,2,3.53V230.8C430.41,232.1,429.49,232.63,428.37,232Z"/><path class="cls-12" d="M428.67,232.38a3.8,3.8,0,0,0,5.56-3.54V218l-3.82,2.21v10.9C430.41,232.24,429.66,232.78,428.67,232.38Z"/><path class="cls-14" d="M430.41,220.16v10.89c0,1.3-.92,1.83-2,1.18l-110.69-63.9a4.53,4.53,0,0,1-2-3.54V153.9Z"/><path class="cls-6" d="M426.58,211.87V135.19a2.72,2.72,0,0,0-1.22-2.12L320.69,72.64c-.67-.39-1.22-.07-1.22.71V150a2.69,2.69,0,0,0,1.22,2.12l104.67,60.42C426,213,426.58,212.65,426.58,211.87Z"/><path class="cls-15" d="M426.58,211.87V135.19a2.72,2.72,0,0,0-1.22-2.12L320.69,72.64c-.67-.39-1.22-.07-1.22.71V150a2.69,2.69,0,0,0,1.22,2.12l104.67,60.42C426,213,426.58,212.65,426.58,211.87Z"/><path class="cls-5" d="M373,191.19a4.23,4.23,0,0,1,1.91,3.32c0,1.22-.86,1.71-1.91,1.1a4.2,4.2,0,0,1-1.92-3.31C371.11,191.08,372,190.58,373,191.19Z"/><path class="cls-11" d="M429.81,131.9a4.43,4.43,0,0,1,.6,2v86.24l3.82-2.21V131.71a4.13,4.13,0,0,0-.6-2Z"/></g></g><g id="Window"><g id="Window-2"><path class="cls-5" d="M333.75,47.66a.54.54,0,0,1,0-.18h0a.49.49,0,0,1,0-.17A.69.69,0,0,1,334,47l.06-.11.06-.07a.49.49,0,0,1,.13-.12h0a.56.56,0,0,1,.17-.09,1.39,1.39,0,0,1,1.31.16l129.14,74.55a4.34,4.34,0,0,1,1.95,3.38v93.94a1.33,1.33,0,0,1-.7,1.17l-.09.05-.1.06a.49.49,0,0,1-.17.06,1,1,0,0,1-.25,0,1.19,1.19,0,0,1-.64-.18h-.05L463,218.72,335.69,145.25a4.34,4.34,0,0,1-1.95-3.38v-94S333.75,47.73,333.75,47.66Z"/><path class="cls-6" d="M334.38,46.61a1.39,1.39,0,0,1,1.31.16l129.18,74.55a4.34,4.34,0,0,1,1.95,3.38v6.38l2.49-1.46v-6.33a4.3,4.3,0,0,0-1.94-3.38L338.18,45.36a1.35,1.35,0,0,0-1.41-.11C336.42,45.46,334.8,46.39,334.38,46.61Z"/><path class="cls-6" d="M333.74,47.89c0-1.23.88-1.73,1.95-1.11l129.18,74.54a4.31,4.31,0,0,1,1.95,3.38v6.38L333.74,54.29Z"/><g class="cls-16"><path class="cls-14" d="M335.69,46.78l129.18,74.54a4.05,4.05,0,0,1,1.37,1.45l2.48-1.44a3.86,3.86,0,0,0-1.36-1.42L338.19,45.36a1.37,1.37,0,0,0-1.42-.11c-.35.21-2,1.13-2.38,1.35A1.4,1.4,0,0,1,335.69,46.78Z"/></g><path class="cls-10" d="M469.32,129.63v-6.35a4,4,0,0,0-.59-2l-2.49,1.43a3.9,3.9,0,0,1,.59,1.94V131Z"/><path class="cls-5" d="M462.42,122.67a2.89,2.89,0,0,1,1.1,2.33c0,.94-.49,1.41-1.1,1.06a2.89,2.89,0,0,1-1.1-2.33C461.32,122.79,461.81,122.32,462.42,122.67Z"/><path class="cls-5" d="M458.45,120.37a2.92,2.92,0,0,1,1.1,2.34c0,.93-.49,1.41-1.1,1.06a2.92,2.92,0,0,1-1.1-2.34C457.35,120.5,457.84,120,458.45,120.37Z"/><path class="cls-5" d="M454.48,118.08a2.89,2.89,0,0,1,1.1,2.33c0,.94-.49,1.41-1.1,1.06a2.89,2.89,0,0,1-1.1-2.33C453.38,118.2,453.87,117.73,454.48,118.08Z"/><path class="cls-17" d="M466.12,219.82l.1-.06,2.06-1.19a2.12,2.12,0,0,0,1-1.51V129.62l-2.5,1.46v87.55a1.29,1.29,0,0,1-.61,1.11h-.06Z"/></g><g id="Code"><path class="cls-6" d="M373.31,87.56l27.23,15.7a1.46,1.46,0,0,1,.7,1.15c0,.41-.31.57-.7.35L373.31,89.07a1.51,1.51,0,0,1-.69-1.16C372.62,87.5,372.93,87.34,373.31,87.56Z"/><path class="cls-3" d="M383.72,117.6,394,123.54a1.47,1.47,0,0,1,.69,1.15c0,.42-.31.58-.69.35l-10.32-5.93A1.46,1.46,0,0,1,383,118C383,117.54,383.33,117.38,383.72,117.6Z"/><path class="cls-3" d="M383.72,123.61,394,129.55a1.47,1.47,0,0,1,.69,1.15c0,.42-.31.57-.69.35l-10.32-5.93A1.48,1.48,0,0,1,383,124C383,123.55,383.33,123.39,383.72,123.61Z"/><path class="cls-6" d="M403.23,104.81l54.53,31.4a1.47,1.47,0,0,1,.69,1.15c0,.42-.31.57-.69.35l-54.53-31.4a1.47,1.47,0,0,1-.69-1.15C402.54,104.74,402.85,104.59,403.23,104.81Z"/><path class="cls-6" d="M383.94,159.74l16.6,9.6a1.51,1.51,0,0,1,.7,1.15c0,.42-.31.58-.7.36l-16.6-9.61a1.47,1.47,0,0,1-.69-1.15C383.25,159.67,383.56,159.52,383.94,159.74Z"/><path class="cls-6" d="M403.23,170.89l54.53,31.44a1.51,1.51,0,0,1,.69,1.16c0,.41-.31.57-.69.35L403.23,172.4a1.51,1.51,0,0,1-.69-1.16C402.54,170.83,402.85,170.67,403.23,170.89Z"/><path class="cls-6" d="M373.31,93.59,387,101.47a1.47,1.47,0,0,1,.69,1.15c0,.41-.31.57-.69.35l-13.72-7.88a1.47,1.47,0,0,1-.69-1.15C372.62,93.52,372.93,93.36,373.31,93.59Z"/><path class="cls-18" d="M373.31,93.59,387,101.47a1.47,1.47,0,0,1,.69,1.15c0,.41-.31.57-.69.35l-13.72-7.88a1.47,1.47,0,0,1-.69-1.15C372.62,93.52,372.93,93.36,373.31,93.59Z"/><path class="cls-6" d="M373.31,99.58l6.42,3.7a1.51,1.51,0,0,1,.69,1.16c0,.41-.31.57-.69.35l-6.42-3.71a1.47,1.47,0,0,1-.69-1.15C372.62,99.52,372.93,99.36,373.31,99.58Z"/><path class="cls-18" d="M373.31,99.58l6.42,3.7a1.51,1.51,0,0,1,.69,1.16c0,.41-.31.57-.69.35l-6.42-3.71a1.47,1.47,0,0,1-.69-1.15C372.62,99.52,372.93,99.36,373.31,99.58Z"/><path class="cls-6" d="M373.31,111.6l6.42,3.7a1.47,1.47,0,0,1,.69,1.15c0,.42-.31.57-.69.35l-6.42-3.7a1.47,1.47,0,0,1-.69-1.15C372.62,111.53,372.93,111.38,373.31,111.6Z"/><path class="cls-18" d="M373.31,111.6l6.42,3.7a1.47,1.47,0,0,1,.69,1.15c0,.42-.31.57-.69.35l-6.42-3.7a1.47,1.47,0,0,1-.69-1.15C372.62,111.53,372.93,111.38,373.31,111.6Z"/><path class="cls-6" d="M373.31,117.61l6.42,3.7a1.47,1.47,0,0,1,.69,1.15c0,.41-.31.57-.69.35l-6.42-3.7a1.47,1.47,0,0,1-.69-1.15C372.62,117.54,372.93,117.39,373.31,117.61Z"/><path class="cls-18" d="M373.31,117.61l6.42,3.7a1.47,1.47,0,0,1,.69,1.15c0,.41-.31.57-.69.35l-6.42-3.7a1.47,1.47,0,0,1-.69-1.15C372.62,117.54,372.93,117.39,373.31,117.61Z"/><path class="cls-6" d="M389.72,103l8.22,4.76a1.51,1.51,0,0,1,.7,1.16c0,.41-.31.57-.7.35l-8.22-4.77a1.51,1.51,0,0,1-.7-1.15C389,103,389.33,102.8,389.72,103Z"/><path class="cls-18" d="M389.72,103l8.22,4.76a1.51,1.51,0,0,1,.7,1.16c0,.41-.31.57-.7.35l-8.22-4.77a1.51,1.51,0,0,1-.7-1.15C389,103,389.33,102.8,389.72,103Z"/><path class="cls-14" d="M402.44,146.45l55.32,31.85a1.47,1.47,0,0,1,.69,1.15c0,.42-.31.58-.69.36L402.44,148a1.51,1.51,0,0,1-.7-1.16C401.74,146.39,402.05,146.23,402.44,146.45Z"/><path class="cls-14" d="M449.53,167.52l8.23,4.77a1.47,1.47,0,0,1,.69,1.15c0,.41-.31.57-.69.35L449.53,169a1.47,1.47,0,0,1-.69-1.15C448.84,167.46,449.15,167.3,449.53,167.52Z"/><path class="cls-14" d="M391.52,134.12,446.84,166a1.47,1.47,0,0,1,.69,1.15c0,.42-.31.57-.69.35l-55.32-31.85a1.47,1.47,0,0,1-.69-1.15C390.83,134.06,391.14,133.9,391.52,134.12Z"/><path class="cls-6" d="M383.72,105.59l13.71,7.88a1.51,1.51,0,0,1,.7,1.15c0,.42-.31.58-.7.36l-13.71-7.89a1.46,1.46,0,0,1-.7-1.15C383,105.53,383.33,105.37,383.72,105.59Z"/><path class="cls-18" d="M383.72,105.59l13.71,7.88a1.51,1.51,0,0,1,.7,1.15c0,.42-.31.58-.7.36l-13.71-7.89a1.46,1.46,0,0,1-.7-1.15C383,105.53,383.33,105.37,383.72,105.59Z"/><path class="cls-6" d="M400.12,115l57.23,33.11a1.47,1.47,0,0,1,.69,1.15c0,.42-.31.57-.69.35l-57.23-33.1a1.47,1.47,0,0,1-.69-1.15C399.43,115,399.74,114.8,400.12,115Z"/><path class="cls-18" d="M400.12,115l57.23,33.11a1.47,1.47,0,0,1,.69,1.15c0,.42-.31.57-.69.35l-57.23-33.1a1.47,1.47,0,0,1-.69-1.15C399.43,115,399.74,114.8,400.12,115Z"/><path class="cls-3" d="M383.72,141.76l74,42.7a1.47,1.47,0,0,1,.69,1.15c0,.41-.31.57-.69.35l-74-42.7a1.46,1.46,0,0,1-.7-1.15C383,141.7,383.33,141.54,383.72,141.76Z"/><path class="cls-6" d="M373.31,135.76l6.42,3.7a1.47,1.47,0,0,1,.69,1.15c0,.41-.31.57-.69.35l-6.42-3.7a1.47,1.47,0,0,1-.69-1.15C372.62,135.69,372.93,135.53,373.31,135.76Z"/><path class="cls-18" d="M373.31,135.76l6.42,3.7a1.47,1.47,0,0,1,.69,1.15c0,.41-.31.57-.69.35l-6.42-3.7a1.47,1.47,0,0,1-.69-1.15C372.62,135.69,372.93,135.53,373.31,135.76Z"/><path class="cls-3" d="M383.72,147.77l74,42.69a1.51,1.51,0,0,1,.69,1.16c0,.41-.31.57-.69.35l-74-42.7a1.51,1.51,0,0,1-.7-1.15C383,147.7,383.33,147.55,383.72,147.77Z"/><path class="cls-6" d="M373.31,141.76l6.42,3.7a1.47,1.47,0,0,1,.69,1.15c0,.42-.31.58-.69.35l-6.42-3.7a1.47,1.47,0,0,1-.69-1.15C372.62,141.7,372.93,141.54,373.31,141.76Z"/><path class="cls-18" d="M373.31,141.76l6.42,3.7a1.47,1.47,0,0,1,.69,1.15c0,.42-.31.58-.69.35l-6.42-3.7a1.47,1.47,0,0,1-.69-1.15C372.62,141.7,372.93,141.54,373.31,141.76Z"/><path class="cls-3" d="M383.72,153.77l74,42.7a1.47,1.47,0,0,1,.69,1.15c0,.42-.31.57-.69.35l-74-42.69a1.51,1.51,0,0,1-.7-1.16C383,153.71,383.33,153.55,383.72,153.77Z"/><path class="cls-6" d="M373.31,147.77l6.42,3.7a1.47,1.47,0,0,1,.69,1.15c0,.41-.31.57-.69.35l-6.42-3.7a1.47,1.47,0,0,1-.69-1.15C372.62,147.7,372.93,147.55,373.31,147.77Z"/><path class="cls-18" d="M373.31,147.77l6.42,3.7a1.47,1.47,0,0,1,.69,1.15c0,.41-.31.57-.69.35l-6.42-3.7a1.47,1.47,0,0,1-.69-1.15C372.62,147.7,372.93,147.55,373.31,147.77Z"/><g class="cls-19"><path class="cls-14" d="M363.31,81.54l3.77,2.18a1.52,1.52,0,0,1,.68,1.18v1.39c0,.44-.3.62-.68.4l-3.77-2.18a1.52,1.52,0,0,1-.69-1.19V81.94C362.62,81.5,362.93,81.32,363.31,81.54Z"/><path class="cls-14" d="M363.31,87.6l3.77,2.18a1.52,1.52,0,0,1,.68,1.19v1.39c0,.43-.3.61-.68.39l-3.77-2.18a1.5,1.5,0,0,1-.69-1.18V88C362.62,87.56,362.93,87.39,363.31,87.6Z"/><path class="cls-14" d="M363.31,93.67l3.77,2.18a1.52,1.52,0,0,1,.68,1.18v1.39c0,.44-.3.61-.68.4l-3.77-2.18a1.52,1.52,0,0,1-.69-1.19V94.06C362.62,93.63,362.93,93.45,363.31,93.67Z"/><path class="cls-14" d="M363.31,99.73l3.77,2.18a1.52,1.52,0,0,1,.68,1.19v1.39c0,.43-.3.61-.68.39l-3.77-2.18a1.53,1.53,0,0,1-.69-1.18v-1.39C362.62,99.69,362.93,99.52,363.31,99.73Z"/><path class="cls-14" d="M363.31,105.8l3.77,2.2a1.49,1.49,0,0,1,.68,1.18v1.39c0,.44-.3.61-.68.4l-3.77-2.18a1.52,1.52,0,0,1-.69-1.19v-1.41C362.62,105.76,362.93,105.58,363.31,105.8Z"/><path class="cls-14" d="M363.31,111.86l3.77,2.14a1.52,1.52,0,0,1,.68,1.19v1.38c0,.44-.3.62-.68.4l-3.77-2.18a1.53,1.53,0,0,1-.69-1.18v-1.35C362.62,111.82,362.93,111.64,363.31,111.86Z"/><path class="cls-14" d="M363.31,117.93l3.77,2.18a1.49,1.49,0,0,1,.68,1.18v1.39c0,.44-.3.61-.68.4l-3.77-2.18a1.52,1.52,0,0,1-.69-1.19v-1.39C362.62,117.89,362.93,117.71,363.31,117.93Z"/><path class="cls-14" d="M363.31,124l3.77,2.18a1.52,1.52,0,0,1,.68,1.19v1.38c0,.44-.3.62-.68.4L363.31,127a1.53,1.53,0,0,1-.69-1.18v-1.43A.42.42,0,0,1,363.31,124Z"/><path class="cls-14" d="M363.31,130.06l3.77,2.18a1.49,1.49,0,0,1,.68,1.18v1.39c0,.44-.3.61-.68.39l-3.77-2.2a1.52,1.52,0,0,1-.69-1.19v-1.36C362.62,130,362.93,129.84,363.31,130.06Z"/><path class="cls-14" d="M363.31,136.12l3.77,2.18a1.52,1.52,0,0,1,.68,1.19v1.38c0,.44-.3.62-.68.4l-3.77-2.18a1.52,1.52,0,0,1-.69-1.19v-1.38C362.62,136.08,362.93,135.9,363.31,136.12Z"/><path class="cls-14" d="M363.31,142.19l3.77,2.17a1.52,1.52,0,0,1,.68,1.19v1.39c0,.44-.3.61-.68.39l-3.77-2.17a1.52,1.52,0,0,1-.69-1.19v-1.39C362.62,142.15,362.93,142,363.31,142.19Z"/><path class="cls-14" d="M363.31,148.25l3.77,2.18a1.52,1.52,0,0,1,.68,1.19V153c0,.44-.3.62-.68.4l-3.77-2.18a1.52,1.52,0,0,1-.69-1.19v-1.38C362.62,148.21,362.93,148,363.31,148.25Z"/></g><path class="cls-4" d="M338.28,61.84l20.4,11.78A3,3,0,0,1,360.05,76V99.55c0,.87-.61,1.22-1.37.79l-20.4-11.78a3,3,0,0,1-1.37-2.38V62.63C336.91,61.76,337.52,61.4,338.28,61.84Z"/><path class="cls-6" d="M340.17,85.19l1.88,1.08a1.53,1.53,0,0,1,.7,1.16c0,.41-.32.57-.7.35l-1.88-1.09a1.47,1.47,0,0,1-.69-1.15C339.48,85.12,339.79,85,340.17,85.19Z"/><path class="cls-18" d="M340.17,85.19l1.88,1.08a1.53,1.53,0,0,1,.7,1.16c0,.41-.32.57-.7.35l-1.88-1.09a1.47,1.47,0,0,1-.69-1.15C339.48,85.12,339.79,85,340.17,85.19Z"/><path class="cls-6" d="M340.17,65.9l1.88,1.1a1.53,1.53,0,0,1,.7,1.16c0,.41-.32.57-.7.35l-1.88-1.09a1.47,1.47,0,0,1-.69-1.15C339.48,65.83,339.79,65.68,340.17,65.9Z"/><path class="cls-18" d="M340.17,65.9l1.88,1.1a1.53,1.53,0,0,1,.7,1.16c0,.41-.32.57-.7.35l-1.88-1.09a1.47,1.47,0,0,1-.69-1.15C339.48,65.83,339.79,65.68,340.17,65.9Z"/><path class="cls-6" d="M342.81,71.27l1.88,1.09a1.47,1.47,0,0,1,.69,1.15c0,.41-.31.57-.69.35l-1.88-1.09a1.47,1.47,0,0,1-.69-1.15C342.12,71.21,342.43,71.05,342.81,71.27Z"/><path class="cls-18" d="M342.81,71.27l1.88,1.09a1.47,1.47,0,0,1,.69,1.15c0,.41-.31.57-.69.35l-1.88-1.09a1.47,1.47,0,0,1-.69-1.15C342.12,71.21,342.43,71.05,342.81,71.27Z"/><path class="cls-6" d="M342.81,75.12l1.88,1.09a1.47,1.47,0,0,1,.69,1.15c0,.41-.31.57-.69.35l-1.88-1.09a1.47,1.47,0,0,1-.69-1.15C342.12,75.06,342.43,74.9,342.81,75.12Z"/><path class="cls-18" d="M342.81,75.12l1.88,1.09a1.47,1.47,0,0,1,.69,1.15c0,.41-.31.57-.69.35l-1.88-1.09a1.47,1.47,0,0,1-.69-1.15C342.12,75.06,342.43,74.9,342.81,75.12Z"/><path class="cls-6" d="M340.17,77.47l1.88,1.09a1.51,1.51,0,0,1,.7,1.15c0,.41-.32.57-.7.35L340.17,79a1.47,1.47,0,0,1-.69-1.15C339.48,77.41,339.79,77.25,340.17,77.47Z"/><path class="cls-18" d="M340.17,77.47l1.88,1.09a1.51,1.51,0,0,1,.7,1.15c0,.41-.32.57-.7.35L340.17,79a1.47,1.47,0,0,1-.69-1.15C339.48,77.41,339.79,77.25,340.17,77.47Z"/><path class="cls-6" d="M342.81,82.85l1.88,1.08a1.47,1.47,0,0,1,.69,1.15c0,.42-.31.58-.69.35l-1.88-1.08a1.47,1.47,0,0,1-.69-1.15C342.12,82.78,342.43,82.63,342.81,82.85Z"/><path class="cls-18" d="M342.81,82.85l1.88,1.08a1.47,1.47,0,0,1,.69,1.15c0,.42-.31.58-.69.35l-1.88-1.08a1.47,1.47,0,0,1-.69-1.15C342.12,82.78,342.43,82.63,342.81,82.85Z"/><path class="cls-6" d="M345.32,68.87l11.46,6.62a1.51,1.51,0,0,1,.7,1.15c0,.42-.31.57-.7.35l-11.46-6.62a1.51,1.51,0,0,1-.7-1.15C344.62,68.81,344.93,68.65,345.32,68.87Z"/><path class="cls-20" d="M345.32,68.87l11.46,6.62a1.51,1.51,0,0,1,.7,1.15c0,.42-.31.57-.7.35l-11.46-6.62a1.51,1.51,0,0,1-.7-1.15C344.62,68.81,344.93,68.65,345.32,68.87Z"/><path class="cls-6" d="M345.32,88.16l11.46,6.62a1.51,1.51,0,0,1,.7,1.15c0,.42-.31.57-.7.35l-11.46-6.62a1.51,1.51,0,0,1-.7-1.15C344.62,88.09,344.93,87.94,345.32,88.16Z"/><path class="cls-20" d="M345.32,88.16l11.46,6.62a1.51,1.51,0,0,1,.7,1.15c0,.42-.31.57-.7.35l-11.46-6.62a1.51,1.51,0,0,1-.7-1.15C344.62,88.09,344.93,87.94,345.32,88.16Z"/><path class="cls-6" d="M348,74.24l8.82,5.11a1.51,1.51,0,0,1,.7,1.15c0,.42-.31.57-.7.35L348,75.74a1.46,1.46,0,0,1-.7-1.15C347.26,74.18,347.57,74,348,74.24Z"/><path class="cls-20" d="M348,74.24l8.82,5.11a1.51,1.51,0,0,1,.7,1.15c0,.42-.31.57-.7.35L348,75.74a1.46,1.46,0,0,1-.7-1.15C347.26,74.18,347.57,74,348,74.24Z"/><path class="cls-6" d="M348,78.1l8.82,5.11a1.46,1.46,0,0,1,.7,1.15c0,.41-.31.57-.7.35L348,79.6a1.46,1.46,0,0,1-.7-1.15C347.26,78,347.57,77.88,348,78.1Z"/><path class="cls-20" d="M348,78.1l8.82,5.11a1.46,1.46,0,0,1,.7,1.15c0,.41-.31.57-.7.35L348,79.6a1.46,1.46,0,0,1-.7-1.15C347.26,78,347.57,77.88,348,78.1Z"/><path class="cls-6" d="M345.32,80.44l11.46,6.62a1.51,1.51,0,0,1,.7,1.16c0,.41-.31.57-.7.35L345.32,82a1.51,1.51,0,0,1-.7-1.16C344.62,80.38,344.93,80.22,345.32,80.44Z"/><path class="cls-20" d="M345.32,80.44l11.46,6.62a1.51,1.51,0,0,1,.7,1.16c0,.41-.31.57-.7.35L345.32,82a1.51,1.51,0,0,1-.7-1.16C344.62,80.38,344.93,80.22,345.32,80.44Z"/><path class="cls-6" d="M348,85.82l8.82,5.1a1.51,1.51,0,0,1,.7,1.15c0,.42-.31.58-.7.35L348,87.32a1.51,1.51,0,0,1-.7-1.15C347.26,85.75,347.57,85.6,348,85.82Z"/><path class="cls-20" d="M348,85.82l8.82,5.1a1.51,1.51,0,0,1,.7,1.15c0,.42-.31.58-.7.35L348,87.32a1.51,1.51,0,0,1-.7-1.15C347.26,85.75,347.57,85.6,348,85.82Z"/><path class="cls-4" d="M338.28,93l20.4,11.78a3,3,0,0,1,1.37,2.37V153.7c0,.87-.61,1.22-1.37.79l-20.4-11.78a3,3,0,0,1-1.37-2.37V93.78C336.91,92.91,337.52,92.55,338.28,93Z"/><path class="cls-6" d="M340.17,97.05l1.88,1.09a1.51,1.51,0,0,1,.7,1.15c0,.41-.32.57-.7.35l-1.88-1.09a1.47,1.47,0,0,1-.69-1.15C339.48,97,339.79,96.83,340.17,97.05Z"/><path class="cls-18" d="M340.17,97.05l1.88,1.09a1.51,1.51,0,0,1,.7,1.15c0,.41-.32.57-.7.35l-1.88-1.09a1.47,1.47,0,0,1-.69-1.15C339.48,97,339.79,96.83,340.17,97.05Z"/><path class="cls-6" d="M342.81,102.42l1.88,1.09a1.47,1.47,0,0,1,.69,1.15c0,.42-.31.57-.69.35l-1.88-1.08a1.51,1.51,0,0,1-.69-1.16C342.12,102.36,342.43,102.2,342.81,102.42Z"/><path class="cls-18" d="M342.81,102.42l1.88,1.09a1.47,1.47,0,0,1,.69,1.15c0,.42-.31.57-.69.35l-1.88-1.08a1.51,1.51,0,0,1-.69-1.16C342.12,102.36,342.43,102.2,342.81,102.42Z"/><path class="cls-6" d="M342.81,106.27l1.88,1.09a1.47,1.47,0,0,1,.69,1.15c0,.41-.31.57-.69.35l-1.88-1.09a1.47,1.47,0,0,1-.69-1.15C342.12,106.21,342.43,106.05,342.81,106.27Z"/><path class="cls-18" d="M342.81,106.27l1.88,1.09a1.47,1.47,0,0,1,.69,1.15c0,.41-.31.57-.69.35l-1.88-1.09a1.47,1.47,0,0,1-.69-1.15C342.12,106.21,342.43,106.05,342.81,106.27Z"/><path class="cls-6" d="M340.17,108.62l1.88,1.09a1.51,1.51,0,0,1,.7,1.15c0,.41-.32.57-.7.35l-1.88-1.09a1.47,1.47,0,0,1-.69-1.15C339.48,108.56,339.79,108.4,340.17,108.62Z"/><path class="cls-18" d="M340.17,108.62l1.88,1.09a1.51,1.51,0,0,1,.7,1.15c0,.41-.32.57-.7.35l-1.88-1.09a1.47,1.47,0,0,1-.69-1.15C339.48,108.56,339.79,108.4,340.17,108.62Z"/><path class="cls-6" d="M345.32,100l11.46,6.62a1.51,1.51,0,0,1,.7,1.15c0,.42-.31.58-.7.35l-11.46-6.62a1.46,1.46,0,0,1-.7-1.15C344.62,100,344.93,99.8,345.32,100Z"/><path class="cls-20" d="M345.32,100l11.46,6.62a1.51,1.51,0,0,1,.7,1.15c0,.42-.31.58-.7.35l-11.46-6.62a1.46,1.46,0,0,1-.7-1.15C344.62,100,344.93,99.8,345.32,100Z"/><path class="cls-6" d="M348,105.39l8.82,5.11a1.51,1.51,0,0,1,.7,1.15c0,.42-.31.57-.7.35L348,106.9a1.51,1.51,0,0,1-.7-1.16C347.26,105.33,347.57,105.17,348,105.39Z"/><path class="cls-20" d="M348,105.39l8.82,5.11a1.51,1.51,0,0,1,.7,1.15c0,.42-.31.57-.7.35L348,106.9a1.51,1.51,0,0,1-.7-1.16C347.26,105.33,347.57,105.17,348,105.39Z"/><path class="cls-6" d="M348,109.25l8.82,5.11a1.46,1.46,0,0,1,.7,1.15c0,.41-.31.57-.7.35L348,110.75a1.46,1.46,0,0,1-.7-1.15C347.26,109.19,347.57,109,348,109.25Z"/><path class="cls-20" d="M348,109.25l8.82,5.11a1.46,1.46,0,0,1,.7,1.15c0,.41-.31.57-.7.35L348,110.75a1.46,1.46,0,0,1-.7-1.15C347.26,109.19,347.57,109,348,109.25Z"/><path class="cls-6" d="M345.32,111.59l11.46,6.63a1.46,1.46,0,0,1,.7,1.15c0,.41-.31.57-.7.35l-11.46-6.62a1.51,1.51,0,0,1-.7-1.15C344.62,111.53,344.93,111.37,345.32,111.59Z"/><path class="cls-20" d="M345.32,111.59l11.46,6.63a1.46,1.46,0,0,1,.7,1.15c0,.41-.31.57-.7.35l-11.46-6.62a1.51,1.51,0,0,1-.7-1.15C344.62,111.53,344.93,111.37,345.32,111.59Z"/><path class="cls-6" d="M342.81,114l1.88,1.09a1.47,1.47,0,0,1,.69,1.15c0,.41-.31.57-.69.35l-1.88-1.09a1.47,1.47,0,0,1-.69-1.15C342.12,114,342.43,113.8,342.81,114Z"/><path class="cls-18" d="M342.81,114l1.88,1.09a1.47,1.47,0,0,1,.69,1.15c0,.41-.31.57-.69.35l-1.88-1.09a1.47,1.47,0,0,1-.69-1.15C342.12,114,342.43,113.8,342.81,114Z"/><path class="cls-6" d="M342.81,117.87l1.88,1.13a1.51,1.51,0,0,1,.69,1.16c0,.41-.31.57-.69.35l-1.88-1.09a1.47,1.47,0,0,1-.69-1.15C342.12,117.8,342.43,117.65,342.81,117.87Z"/><path class="cls-18" d="M342.81,117.87l1.88,1.13a1.51,1.51,0,0,1,.69,1.16c0,.41-.31.57-.69.35l-1.88-1.09a1.47,1.47,0,0,1-.69-1.15C342.12,117.8,342.43,117.65,342.81,117.87Z"/><path class="cls-6" d="M348,117l8.82,5.11a1.46,1.46,0,0,1,.7,1.15c0,.41-.31.57-.7.35L348,118.49a1.46,1.46,0,0,1-.7-1.15C347.26,116.93,347.57,116.77,348,117Z"/><path class="cls-20" d="M348,117l8.82,5.11a1.46,1.46,0,0,1,.7,1.15c0,.41-.31.57-.7.35L348,118.49a1.46,1.46,0,0,1-.7-1.15C347.26,116.93,347.57,116.77,348,117Z"/><path class="cls-6" d="M348,120.85l8.78,5.15a1.46,1.46,0,0,1,.7,1.15c0,.41-.31.57-.7.35L348,122.35a1.51,1.51,0,0,1-.7-1.15C347.26,120.78,347.57,120.63,348,120.85Z"/><path class="cls-20" d="M348,120.85l8.78,5.15a1.46,1.46,0,0,1,.7,1.15c0,.41-.31.57-.7.35L348,122.35a1.51,1.51,0,0,1-.7-1.15C347.26,120.78,347.57,120.63,348,120.85Z"/><path class="cls-6" d="M340.17,128l1.88,1a1.51,1.51,0,0,1,.7,1.15c0,.42-.32.58-.7.35l-1.88-1.08a1.47,1.47,0,0,1-.69-1.15C339.48,127.89,339.79,127.74,340.17,128Z"/><path class="cls-18" d="M340.17,128l1.88,1a1.51,1.51,0,0,1,.7,1.15c0,.42-.32.58-.7.35l-1.88-1.08a1.47,1.47,0,0,1-.69-1.15C339.48,127.89,339.79,127.74,340.17,128Z"/><path class="cls-6" d="M345.32,130.93l11.46,6.62a1.51,1.51,0,0,1,.7,1.15c0,.42-.31.58-.7.35l-11.46-6.62a1.46,1.46,0,0,1-.7-1.15C344.62,130.87,344.93,130.71,345.32,130.93Z"/><path class="cls-20" d="M345.32,130.93l11.46,6.62a1.51,1.51,0,0,1,.7,1.15c0,.42-.31.58-.7.35l-11.46-6.62a1.46,1.46,0,0,1-.7-1.15C344.62,130.87,344.93,130.71,345.32,130.93Z"/><path class="cls-6" d="M342.81,133.36l1.88,1.08a1.47,1.47,0,0,1,.69,1.15c0,.42-.31.58-.69.35l-1.88-1.08a1.47,1.47,0,0,1-.69-1.15C342.12,133.29,342.43,133.13,342.81,133.36Z"/><path class="cls-18" d="M342.81,133.36l1.88,1.08a1.47,1.47,0,0,1,.69,1.15c0,.42-.31.58-.69.35l-1.88-1.08a1.47,1.47,0,0,1-.69-1.15C342.12,133.29,342.43,133.13,342.81,133.36Z"/><path class="cls-6" d="M342.81,137.2l1.88,1.09a1.47,1.47,0,0,1,.69,1.15c0,.42-.31.57-.69.35l-1.88-1.08a1.51,1.51,0,0,1-.69-1.16C342.12,137.14,342.43,137,342.81,137.2Z"/><path class="cls-18" d="M342.81,137.2l1.88,1.09a1.47,1.47,0,0,1,.69,1.15c0,.42-.31.57-.69.35l-1.88-1.08a1.51,1.51,0,0,1-.69-1.16C342.12,137.14,342.43,137,342.81,137.2Z"/><path class="cls-6" d="M348,136.33l8.82,5.1a1.51,1.51,0,0,1,.7,1.15c0,.42-.31.58-.7.36L348,137.83a1.51,1.51,0,0,1-.7-1.15C347.26,136.26,347.57,136.1,348,136.33Z"/><path class="cls-20" d="M348,136.33l8.82,5.1a1.51,1.51,0,0,1,.7,1.15c0,.42-.31.58-.7.36L348,137.83a1.51,1.51,0,0,1-.7-1.15C347.26,136.26,347.57,136.1,348,136.33Z"/><path class="cls-6" d="M348,140.18l8.82,5.11a1.51,1.51,0,0,1,.7,1.15c0,.42-.31.57-.7.35l-8.82-5.1a1.51,1.51,0,0,1-.7-1.16C347.26,140.12,347.57,140,348,140.18Z"/><path class="cls-20" d="M348,140.18l8.82,5.11a1.51,1.51,0,0,1,.7,1.15c0,.42-.31.57-.7.35l-8.82-5.1a1.51,1.51,0,0,1-.7-1.16C347.26,140.12,347.57,140,348,140.18Z"/><path class="cls-6" d="M342.81,121.7l1.88,1.08a1.47,1.47,0,0,1,.69,1.15c0,.42-.31.57-.69.35l-1.88-1.08a1.47,1.47,0,0,1-.69-1.15C342.12,121.63,342.43,121.47,342.81,121.7Z"/><path class="cls-18" d="M342.81,121.7l1.88,1.08a1.47,1.47,0,0,1,.69,1.15c0,.42-.31.57-.69.35l-1.88-1.08a1.47,1.47,0,0,1-.69-1.15C342.12,121.63,342.43,121.47,342.81,121.7Z"/><path class="cls-6" d="M340.17,124.05l1.88,1.08a1.51,1.51,0,0,1,.7,1.15c0,.42-.32.57-.7.35l-1.88-1.08a1.47,1.47,0,0,1-.69-1.15C339.48,124,339.79,123.82,340.17,124.05Z"/><path class="cls-18" d="M340.17,124.05l1.88,1.08a1.51,1.51,0,0,1,.7,1.15c0,.42-.32.57-.7.35l-1.88-1.08a1.47,1.47,0,0,1-.69-1.15C339.48,124,339.79,123.82,340.17,124.05Z"/><path class="cls-6" d="M348,124.68l8.82,5.1a1.51,1.51,0,0,1,.7,1.15c0,.42-.31.58-.7.35l-8.82-5.1a1.51,1.51,0,0,1-.7-1.15C347.26,124.61,347.57,124.45,348,124.68Z"/><path class="cls-20" d="M348,124.68l8.82,5.1a1.51,1.51,0,0,1,.7,1.15c0,.42-.31.58-.7.35l-8.82-5.1a1.51,1.51,0,0,1-.7-1.15C347.26,124.61,347.57,124.45,348,124.68Z"/><path class="cls-6" d="M345.32,127l11.46,6.62a1.51,1.51,0,0,1,.7,1.15c0,.42-.31.57-.7.35l-11.46-6.62a1.51,1.51,0,0,1-.7-1.15C344.62,127,344.93,126.8,345.32,127Z"/><path class="cls-20" d="M345.32,127l11.46,6.62a1.51,1.51,0,0,1,.7,1.15c0,.42-.31.57-.7.35l-11.46-6.62a1.51,1.51,0,0,1-.7-1.15C344.62,127,344.93,126.8,345.32,127Z"/><path class="cls-6" d="M340.17,139.61l1.88,1.08a1.51,1.51,0,0,1,.7,1.15c0,.42-.32.58-.7.36l-1.88-1.09a1.47,1.47,0,0,1-.69-1.15C339.48,139.54,339.79,139.39,340.17,139.61Z"/><path class="cls-18" d="M340.17,139.61l1.88,1.08a1.51,1.51,0,0,1,.7,1.15c0,.42-.32.58-.7.36l-1.88-1.09a1.47,1.47,0,0,1-.69-1.15C339.48,139.54,339.79,139.39,340.17,139.61Z"/><path class="cls-6" d="M345.32,142.58l11.46,6.62a1.51,1.51,0,0,1,.7,1.15c0,.42-.31.58-.7.35l-11.46-6.62a1.46,1.46,0,0,1-.7-1.15C344.62,142.52,344.93,142.36,345.32,142.58Z"/><path class="cls-20" d="M345.32,142.58l11.46,6.62a1.51,1.51,0,0,1,.7,1.15c0,.42-.31.58-.7.35l-11.46-6.62a1.46,1.46,0,0,1-.7-1.15C344.62,142.52,344.93,142.36,345.32,142.58Z"/></g></g><g id="Window-3"><g class="cls-21"><path class="cls-5" d="M451.78,158.42V234.8a3.55,3.55,0,0,0,1.59,2.75l43.88,25.31a1,1,0,0,0,.53.15h.2l.13-.05.09,0,.09-.06.09-.08a1,1,0,0,0,.29-.41,2,2,0,0,0,.17-.81v-76a3.5,3.5,0,0,0-1.59-2.75l-43.88-25.3a1.13,1.13,0,0,0-1.07-.13.57.57,0,0,0-.13.08h0l-.11.1v.06a.22.22,0,0,0-.05.08.54.54,0,0,0-.1.2V158h0v.14A.3.3,0,0,0,451.78,158.42Z"/></g><path class="cls-6" d="M452.3,157.37a1.13,1.13,0,0,1,1.07.13l43.88,25.29a3.5,3.5,0,0,1,1.59,2.75v5.19l2.53-1.46v-5.15a3.5,3.5,0,0,0-1.59-2.75L455.9,156.08a1.11,1.11,0,0,0-1.15-.09C454.46,156.16,452.64,157.19,452.3,157.37Z"/><path class="cls-6" d="M451.79,158.41c0-1,.71-1.41,1.58-.9l43.88,25.29a3.48,3.48,0,0,1,1.59,2.74v5.19l-47-27.12Z"/><g class="cls-16"><path class="cls-14" d="M453.37,157.5l43.88,25.29a3.42,3.42,0,0,1,1.12,1.18l2.52-1.44a3.33,3.33,0,0,0-1.11-1.16L455.9,156.08a1.11,1.11,0,0,0-1.15-.09c-.28.17-2.11,1.2-2.44,1.37A1.17,1.17,0,0,1,453.37,157.5Z"/></g><path class="cls-10" d="M501.37,189.27v-5.15a3.32,3.32,0,0,0-.48-1.59L498.36,184a3.11,3.11,0,0,1,.48,1.57v5.19Z"/><path class="cls-5" d="M496.53,184.93a2.35,2.35,0,0,1,.9,1.9c0,.76-.4,1.14-.9.86a2.38,2.38,0,0,1-.9-1.9C495.63,185,496,184.64,496.53,184.93Z"/><path class="cls-5" d="M493.3,183.06a2.38,2.38,0,0,1,.9,1.9c0,.76-.4,1.15-.9.86a2.34,2.34,0,0,1-.89-1.9C492.41,183.16,492.81,182.78,493.3,183.06Z"/><path class="cls-5" d="M490.08,181.2a2.33,2.33,0,0,1,.89,1.89c0,.77-.4,1.15-.89.87a2.38,2.38,0,0,1-.9-1.9C489.18,181.3,489.58,180.91,490.08,181.2Z"/><g class="cls-22"><path class="cls-4" d="M498.26,262.87l.19-.12.49-.27h0l.26-.15h0l.42-.24.85-.47.2-.11a1.13,1.13,0,0,0,.27-.22,1,1,0,0,0,.21-.32,1.88,1.88,0,0,0,.19-.84V189.27l-2.53,1.46v70.8a2.49,2.49,0,0,1-.17.81,1,1,0,0,1-.29.41.24.24,0,0,1-.09.08Z"/></g><path class="cls-6" d="M455.43,172.38a.24.24,0,0,1,.08-.21l1.14-1h.05a.2.2,0,0,1,.09.11.43.43,0,0,1,0,.16v.8a.74.74,0,0,1,0,.21.57.57,0,0,1-.08.13l-.61.55.61,1.24.08.22a1,1,0,0,1,0,.25v.79a.13.13,0,0,1,0,.12h-.09a.18.18,0,0,1-.05-.07l-1.14-2.36a.64.64,0,0,1-.08-.3Z"/><path class="cls-6" d="M459.6,171.28a.42.42,0,0,1,.09-.14h.17l.42.25a.2.2,0,0,1,.09.11.43.43,0,0,1,0,.16v.08l-1.95,6.07a.3.3,0,0,1-.09.13h-.17l-.41-.23a.2.2,0,0,1-.09-.11.43.43,0,0,1,0-.16v-.08Z"/><path class="cls-6" d="M462.63,177.12a.24.24,0,0,1-.08.2l-1.14,1.05h-.06a.17.17,0,0,1-.09-.11.22.22,0,0,1,0-.16v-.79a.81.81,0,0,1,0-.22.83.83,0,0,1,.08-.12l.6-.55-.6-1.25a1.43,1.43,0,0,1-.08-.22,1,1,0,0,1,0-.24v-.79a.13.13,0,0,1,0-.12h.09a.13.13,0,0,1,.06.07l1.14,2.36a.6.6,0,0,1,.08.29Z"/><path class="cls-6" d="M465.8,180.23a.3.3,0,0,1,.11.14.61.61,0,0,1,0,.19v.88a.17.17,0,0,1,0,.14.08.08,0,0,1-.11,0l-.54-.31a.3.3,0,0,1-.11-.14.61.61,0,0,1,0-.19v-.88a.17.17,0,0,1,0-.14.08.08,0,0,1,.11,0Z"/><path class="cls-6" d="M467.6,181.27a.3.3,0,0,1,.11.14.61.61,0,0,1,0,.19v.88a.17.17,0,0,1,0,.14.08.08,0,0,1-.11,0l-.54-.32a.28.28,0,0,1-.11-.13.46.46,0,0,1-.05-.2v-.87a.24.24,0,0,1,.1-.1.08.08,0,0,1,.11,0Z"/><path class="cls-6" d="M469.4,182.31a.26.26,0,0,1,.11.14.61.61,0,0,1,0,.19v.87a.19.19,0,0,1,0,.15.08.08,0,0,1-.11,0l-.54-.31a.28.28,0,0,1-.11-.13.46.46,0,0,1-.05-.2v-.87a.24.24,0,0,1,.05-.14.08.08,0,0,1,.11,0Z"/><path class="cls-6" d="M455.91,179.3l26.37,15.22a1.22,1.22,0,0,1,.56.93c0,.34-.25.47-.56.29l-26.37-15.22a1.22,1.22,0,0,1-.56-.94C455.35,179.24,455.6,179.12,455.91,179.3Z"/><path class="cls-3" d="M464.37,198.83l26.36,15.22a1.2,1.2,0,0,1,.57.94c0,.34-.25.46-.57.28l-26.36-15.22a1.22,1.22,0,0,1-.56-.93C463.81,198.78,464.06,198.65,464.37,198.83Z"/><path class="cls-3" d="M464.37,208.6,477,215.89a1.22,1.22,0,0,1,.56.93c0,.34-.25.47-.56.29l-12.62-7.29a1.22,1.22,0,0,1-.56-.94C463.81,208.55,464.06,208.42,464.37,208.6Z"/><path class="cls-6" d="M484.46,195.78l10.5,6a1.22,1.22,0,0,1,.57.94c0,.33-.26.46-.57.28l-10.5-6a1.22,1.22,0,0,1-.56-.94C483.9,195.73,484.15,195.6,484.46,195.78Z"/><path class="cls-6" d="M455.91,233l26.37,15.22a1.22,1.22,0,0,1,.56.94c0,.34-.25.46-.56.28l-26.37-15.22a1.22,1.22,0,0,1-.56-.93C455.35,233,455.6,232.83,455.91,233Z"/><path class="cls-6" d="M484.46,249.49l10.5,6a1.2,1.2,0,0,1,.57.93c0,.34-.26.47-.57.29l-10.5-6a1.22,1.22,0,0,1-.56-.94C483.9,249.44,484.15,249.31,484.46,249.49Z"/><path class="cls-6" d="M484.46,234.87l10.5,6a1.22,1.22,0,0,1,.57.94c0,.33-.26.46-.57.28l-10.5-6a1.22,1.22,0,0,1-.56-.94C483.9,234.82,484.15,234.69,484.46,234.87Z"/><path class="cls-6" d="M484.46,239.75l10.5,6a1.22,1.22,0,0,1,.57.94c0,.34-.26.46-.57.28l-10.5-6a1.22,1.22,0,0,1-.56-.93C483.9,239.7,484.15,239.57,484.46,239.75Z"/><path class="cls-6" d="M475.5,229.68l5.9,3.41a1.2,1.2,0,0,1,.57.94c0,.33-.25.46-.57.28l-5.9-3.41a1.16,1.16,0,0,1-.56-.93C474.94,229.63,475.19,229.5,475.5,229.68Z"/><path class="cls-6" d="M455.91,184.19l15.38,8.87a1.22,1.22,0,0,1,.56.94c0,.34-.25.46-.56.28l-15.38-8.87a1.22,1.22,0,0,1-.56-.93C455.35,184.14,455.6,184,455.91,184.19Z"/><path class="cls-18" d="M455.91,184.19l15.38,8.87a1.22,1.22,0,0,1,.56.94c0,.34-.25.46-.56.28l-15.38-8.87a1.22,1.22,0,0,1-.56-.93C455.35,184.14,455.6,184,455.91,184.19Z"/><path class="cls-6" d="M455.91,189.07l5.22,3a1.22,1.22,0,0,1,.56.94c0,.34-.25.46-.56.28l-5.22-3a1.22,1.22,0,0,1-.56-.94C455.35,189,455.6,188.89,455.91,189.07Z"/><path class="cls-18" d="M455.91,189.07l5.22,3a1.22,1.22,0,0,1,.56.94c0,.34-.25.46-.56.28l-5.22-3a1.22,1.22,0,0,1-.56-.94C455.35,189,455.6,188.89,455.91,189.07Z"/><path class="cls-6" d="M455.91,194l5.22,3a1.22,1.22,0,0,1,.56.93c0,.34-.25.47-.56.29l-5.22-3a1.22,1.22,0,0,1-.56-.94C455.35,193.9,455.6,193.77,455.91,194Z"/><path class="cls-18" d="M455.91,194l5.22,3a1.22,1.22,0,0,1,.56.93c0,.34-.25.47-.56.29l-5.22-3a1.22,1.22,0,0,1-.56-.94C455.35,193.9,455.6,193.77,455.91,194Z"/><path class="cls-6" d="M455.91,198.83l5.22,3a1.22,1.22,0,0,1,.56.94c0,.33-.25.46-.56.28l-5.22-3a1.22,1.22,0,0,1-.56-.93C455.35,198.78,455.6,198.65,455.91,198.83Z"/><path class="cls-18" d="M455.91,198.83l5.22,3a1.22,1.22,0,0,1,.56.94c0,.33-.25.46-.56.28l-5.22-3a1.22,1.22,0,0,1-.56-.93C455.35,198.78,455.6,198.65,455.91,198.83Z"/><path class="cls-23" d="M464.37,203.71l15.38,8.88a1.22,1.22,0,0,1,.56.93c0,.34-.25.47-.56.29l-15.38-8.87a1.22,1.22,0,0,1-.56-.94C463.81,203.66,464.06,203.53,464.37,203.71Z"/><path class="cls-23" d="M481.93,213.85l6.69,3.87a1.22,1.22,0,0,1,.56.94c0,.33-.25.46-.56.28l-6.69-3.87a1.22,1.22,0,0,1-.56-.94C481.37,213.8,481.62,213.67,481.93,213.85Z"/><path class="cls-18" d="M464.37,203.71l15.38,8.88a1.22,1.22,0,0,1,.56.93c0,.34-.25.47-.56.29l-15.38-8.87a1.22,1.22,0,0,1-.56-.94C463.81,203.66,464.06,203.53,464.37,203.71Z"/><path class="cls-18" d="M481.93,213.85l6.69,3.87a1.22,1.22,0,0,1,.56.94c0,.33-.25.46-.56.28l-6.69-3.87a1.22,1.22,0,0,1-.56-.94C481.37,213.8,481.62,213.67,481.93,213.85Z"/><path class="cls-6" d="M455.91,203.72l5.22,3a1.22,1.22,0,0,1,.56.94c0,.34-.25.46-.56.29l-5.22-3a1.22,1.22,0,0,1-.56-.94C455.35,203.66,455.6,203.54,455.91,203.72Z"/><path class="cls-18" d="M455.91,203.72l5.22,3a1.22,1.22,0,0,1,.56.94c0,.34-.25.46-.56.29l-5.22-3a1.22,1.22,0,0,1-.56-.94C455.35,203.66,455.6,203.54,455.91,203.72Z"/><path class="cls-6" d="M473.47,194.32l6.69,3.88a1.22,1.22,0,0,1,.56.93c0,.34-.25.47-.56.29l-6.69-3.88a1.19,1.19,0,0,1-.56-.93C472.91,194.27,473.16,194.14,473.47,194.32Z"/><path class="cls-18" d="M473.47,194.32l6.69,3.88a1.22,1.22,0,0,1,.56.93c0,.34-.25.47-.56.29l-6.69-3.88a1.19,1.19,0,0,1-.56-.93C472.91,194.27,473.16,194.14,473.47,194.32Z"/><path class="cls-14" d="M470.71,217.14,486.09,226a1.22,1.22,0,0,1,.57.94c0,.33-.26.46-.57.28l-15.38-8.87a1.22,1.22,0,0,1-.56-.94C470.15,217.09,470.4,217,470.71,217.14Z"/><path class="cls-14" d="M479.59,227.16,495,236a1.22,1.22,0,0,1,.57.94c0,.34-.26.47-.57.29l-15.37-8.88a1.2,1.2,0,0,1-.57-.93C479,227.11,479.27,227,479.59,227.16Z"/><path class="cls-14" d="M488.28,227.27l6.68,3.87a1.22,1.22,0,0,1,.57.94c0,.34-.26.46-.57.28l-6.68-3.87a1.2,1.2,0,0,1-.57-.93C487.71,227.22,488,227.09,488.28,227.27Z"/><path class="cls-3" d="M488.28,246.61l6.68,3.88a1.2,1.2,0,0,1,.57.93c0,.34-.26.47-.57.29l-6.68-3.88a1.2,1.2,0,0,1-.57-.93C487.71,246.56,488,246.43,488.28,246.61Z"/><path class="cls-6" d="M464.37,194l15.38,8.87a1.22,1.22,0,0,1,.56.94c0,.33-.25.46-.56.28l-15.38-8.87a1.22,1.22,0,0,1-.56-.94C463.81,193.9,464.06,193.77,464.37,194Z"/><path class="cls-18" d="M464.37,194l15.38,8.87a1.22,1.22,0,0,1,.56.94c0,.33-.25.46-.56.28l-15.38-8.87a1.22,1.22,0,0,1-.56-.94C463.81,193.9,464.06,193.77,464.37,194Z"/><path class="cls-6" d="M481.93,204.08l6.69,3.87a1.22,1.22,0,0,1,.56.94c0,.34-.25.47-.56.29l-6.69-3.88a1.22,1.22,0,0,1-.56-.93C481.37,204,481.62,203.9,481.93,204.08Z"/><path class="cls-18" d="M481.93,204.08l6.69,3.87a1.22,1.22,0,0,1,.56.94c0,.34-.25.47-.56.29l-6.69-3.88a1.22,1.22,0,0,1-.56-.93C481.37,204,481.62,203.9,481.93,204.08Z"/></g><g id="Mouse"><path class="cls-10" d="M377.12,260l9.42,5.44a10.36,10.36,0,0,0,10.4-.55l15.55-11.35c2.77-2,2.61-5-.36-6.77L407.41,244a12.83,12.83,0,0,0-10.93-.33l-19.19,10.4C374.22,255.68,374.14,258.32,377.12,260Z"/><path class="cls-4" d="M412.74,248.64,402,257.05l-7.94,6.21a7.32,7.32,0,0,1-6.3-.19l-8.43-4.87h-.05a6,6,0,0,1-1.88-8.27,2.33,2.33,0,0,1,.17-.26l.25-.34a11.18,11.18,0,0,1,6.79-4.3l4.27-.86c6.92-1.4,12.59-2.09,13.25-1.64l10.57,6.13Z"/><path class="cls-6" d="M406.73,253.34l.61-.47-9.49-5.48,8.3-2.57-.84-.48-8.3,2.57-5.66-3.27-1.07.21Z"/><path class="cls-11" d="M395,262.75h0l7.56-5.45,10.19-7.37v-1.15a.11.11,0,0,0-.05-.09h-.06c-.76-.27-5.18,1.06-10.52,3.19l-3.54,1.4a11.26,11.26,0,0,0-7.1,10.47v.19a7,7,0,0,0,2.53-.61Z"/></g></g></g><g id="Plant"><g id="Pot"><path class="cls-6" d="M413.7,413.64c-10.38-10.71-16.47-54.29-6.35-62.78h51.5c10.12,8.49,4,52.05-6.34,62.77-.09.1-.19.19-.29.29s-.23.24-.35.35c-.3.29-.61.57-.94.85l-.25.2c-.25.2-.5.4-.78.59a12.78,12.78,0,0,1-1.34.87c-8.54,5-22.38,5-30.92,0h0q-.67-.39-1.35-.87c-.26-.18-.49-.37-.73-.56l-.3-.24a11.81,11.81,0,0,1-.91-.82l-.41-.4Z"/><g class="cls-16"><path class="cls-14" d="M413.7,413.64c-10.38-10.71-16.47-54.29-6.35-62.78h51.5c10.12,8.49,4,52.05-6.34,62.77-.09.1-.19.19-.29.29s-.23.24-.35.35c-.3.29-.61.57-.94.85l-.25.2c-.25.2-.5.4-.78.59a12.78,12.78,0,0,1-1.34.87c-8.54,5-22.38,5-30.92,0h0q-.67-.39-1.35-.87c-.26-.18-.49-.37-.73-.56l-.3-.24a11.81,11.81,0,0,1-.91-.82l-.41-.4Z"/></g><path class="cls-6" d="M454.38,347.43c11.75,6.87,11.75,18,0,24.85s-30.81,6.86-42.56,0-11.75-18,0-24.84S442.63,340.57,454.38,347.43Z"/><g class="cls-24"><path class="cls-14" d="M454.38,347.43c11.75,6.87,11.75,18,0,24.85s-30.81,6.86-42.56,0-11.75-18,0-24.84S442.63,340.57,454.38,347.43Z"/></g><path class="cls-6" d="M448.73,350.73c8.63,5,8.63,13.21,0,18.25s-22.63,5-31.26,0-8.63-13.21,0-18.25S440.1,345.7,448.73,350.73Z"/><g class="cls-25"><path d="M448.73,350.73c8.63,5,8.63,13.21,0,18.25s-22.63,5-31.26,0-8.63-13.21,0-18.25S440.1,345.7,448.73,350.73Z"/></g><path class="cls-2" d="M417.47,359.39c8.63-5,22.63-5,31.26,0a14.48,14.48,0,0,1,5.16,4.8,14.37,14.37,0,0,1-5.16,4.79c-8.63,5-22.63,5-31.26,0a14.49,14.49,0,0,1-5.17-4.79A14.51,14.51,0,0,1,417.47,359.39Z"/><g id="Plants"><path class="cls-6" d="M428.88,337.4a14.35,14.35,0,0,1-1.31-3.76c-.58-3.13.2-6.73,2.74-8.66,1-.77,2.33-1.34,2.76-2.53a4.07,4.07,0,0,0,0-2.08c-.47-2.67-1.37-5.43-.63-8.05a9,9,0,0,1,5-5.35,26.89,26.89,0,0,1,7.27-1.9,11.51,11.51,0,0,0,3.85-1.11c1.44-.8,1.89-2.22,2.79-3.47a23.34,23.34,0,0,1,3.53-3.77c2.62-2.35,5.9-4.28,9.53-4.12,7.58.34,7.36,6.86,5.18,11.8s-2.76,6.55,2,11.7,4.74,11.49-.91,15-9.32,4-7.08,10.86c2,6.11,3.23,11.32-2.41,17.85-3.65,4.22-8.64,7.23-14.88,7a24.73,24.73,0,0,1-7.3-1.7c-1.72-.85-.56-2.19-1.14-3.88q-1.87-5.48-3.74-10.93a82,82,0,0,0-3-8.61C430.43,340.21,429.59,338.84,428.88,337.4Z"/><g class="cls-26"><path d="M428.88,337.4a14.35,14.35,0,0,1-1.31-3.76c-.58-3.13.2-6.73,2.74-8.66,1-.77,2.33-1.34,2.76-2.53a4.07,4.07,0,0,0,0-2.08c-.47-2.67-1.37-5.43-.63-8.05a9,9,0,0,1,5-5.35,26.89,26.89,0,0,1,7.27-1.9,11.51,11.51,0,0,0,3.85-1.11c1.44-.8,1.89-2.22,2.79-3.47a23.34,23.34,0,0,1,3.53-3.77c2.62-2.35,5.9-4.28,9.53-4.12,7.58.34,7.36,6.86,5.18,11.8s-2.76,6.55,2,11.7,4.74,11.49-.91,15-9.32,4-7.08,10.86c2,6.11,3.23,11.32-2.41,17.85-3.65,4.22-8.64,7.23-14.88,7a24.73,24.73,0,0,1-7.3-1.7c-1.72-.85-.56-2.19-1.14-3.88q-1.87-5.48-3.74-10.93a82,82,0,0,0-3-8.61C430.43,340.21,429.59,338.84,428.88,337.4Z"/></g><path class="cls-14" d="M439.18,365.1a.55.55,0,0,0,.37-.54c-.32-37.41,20.31-59.75,20.52-60a.56.56,0,0,0-.78-.8h0c-.21.22-21.14,22.87-20.82,60.76a.56.56,0,0,0,.56.56Z"/><path class="cls-14" d="M445.18,330.29l.12-.05c6.71-4.22,18.68-7.37,18.8-7.41a.53.53,0,0,0,.4-.66v0a.56.56,0,0,0-.68-.41h0c-.5.13-12.26,3.23-19.11,7.54a.57.57,0,0,0-.19.77h0A.54.54,0,0,0,445.18,330.29Z"/><path class="cls-14" d="M447.26,325.16h0a.55.55,0,0,0,.32-.71v0A43.2,43.2,0,0,0,441.4,314a.56.56,0,0,0-.79-.07h0a.58.58,0,0,0-.06.8,42.25,42.25,0,0,1,6,10.1.55.55,0,0,0,.7.33Z"/><path class="cls-6" d="M433.92,369.15a31.6,31.6,0,0,1-16.43.61c-9.42-2-15.19-10.84-15.19-10.84s10.2-4.09,16.14-4.48a52.2,52.2,0,0,0-17.85.38s-5.46-2-4.43-11.25c0,0,5.14-3.78,17-2.3,0,0-5.92-4.23-16.31-5.48-.82,0,.29-12,1.28-17.34s3-4.53,7.2-4.06,16.81,3.32,18.4,6.4,0,10.93,0,10.93a17.89,17.89,0,0,0,3.46-10.28s4.73,1.73,7.26,4A16.91,16.91,0,0,1,439,331.1c-.59,4.22-2.57,10.64-5.35,14.23a19,19,0,0,0,7.69-11.49,26,26,0,0,1,5,14.65C446.22,357.87,442,364.86,433.92,369.15Z"/><path class="cls-27" d="M433.92,369.15a31.6,31.6,0,0,1-16.43.61c-9.42-2-15.19-10.84-15.19-10.84s10.2-4.09,16.14-4.48a52.2,52.2,0,0,0-17.85.38s-5.46-2-4.43-11.25c0,0,5.14-3.78,17-2.3,0,0-5.92-4.23-16.31-5.48-.82,0,.29-12,1.28-17.34s3-4.53,7.2-4.06,16.81,3.32,18.4,6.4,0,10.93,0,10.93a17.89,17.89,0,0,0,3.46-10.28s4.73,1.73,7.26,4A16.91,16.91,0,0,1,439,331.1c-.59,4.22-2.57,10.64-5.35,14.23a19,19,0,0,0,7.69-11.49,26,26,0,0,1,5,14.65C446.22,357.87,442,364.86,433.92,369.15Z"/><path class="cls-14" d="M435.17,368.31a.51.51,0,0,1-.34-.46C433.4,350,413.42,322.1,404.59,316.5a.55.55,0,0,1-.17-.74.53.53,0,0,1,.73-.18h0c9,5.69,29.29,34,30.73,52.18a.53.53,0,0,1-.48.58h0A.45.45,0,0,1,435.17,368.31Z"/></g></g></g><g id="Character"><g id="Character-2"><path class="cls-28" d="M254.49,357.15c0-.2-3.21-11.79-3.21-11.79s1.05,1.06,7.75-.7a37.88,37.88,0,0,0,7.29-3.06l1.91,8.47c1.79,3.26,7.71,1.76,14.19,1,1.09-.12,2.21-.3,3.33-.5h.07c3.5-.2,7,1.91,3.38,4.89s-9.65,4.12-15.18,5.12C267.36,361.8,255.68,363.76,254.49,357.15Z"/><path class="cls-11" d="M301,356.12a6.83,6.83,0,0,1,.48,3.57c-.12,1.29-3.32,5.67-9,8.35s-12.62,2.86-15.88,3.8-6.26,2.82-10.11,3.76S258.83,377,255,374.49c-.71-1.1-1.49-3.63-1.27-3.87C254.4,370,301,356.12,301,356.12Z"/><path class="cls-6" d="M269.25,351.2c2.48,1.72,7.62.53,13.17-.11,5.24-.59,11.13-2.43,14.69-1.2s6.53,5.42,1.72,10.79c-1.39,1.56-4.33,4.29-6.69,5.13-6,2.14-11.34,2.31-15.18,3.26-5,1.24-7.74,3.45-12.36,4-6,.69-9.78-.84-10.82-2.44s-2-14.49.57-14.23c0,0,1.08,4.17,10.87.12C269.49,354.74,269.42,352.14,269.25,351.2Z"/><path class="cls-9" d="M269.25,351.2c2.48,1.72,7.62.53,13.17-.11,5.24-.59,11.13-2.43,14.69-1.2s6.53,5.42,1.72,10.79c-1.39,1.56-4.33,4.29-6.69,5.13-6,2.14-11.34,2.31-15.18,3.26-5,1.24-7.74,3.45-12.36,4-6,.69-9.78-.84-10.82-2.44s-2-14.49.57-14.23c0,0,1.08,4.17,10.87.12C269.49,354.74,269.42,352.14,269.25,351.2Z"/><path class="cls-29" d="M285.85,358.12s-.56-5.45-4.58-6.89a2.13,2.13,0,0,0-2.22.29s3.73.55,5,6.93c0,0,.19.42,1,.28C285.29,358.68,285.89,358.57,285.85,358.12Z"/><path class="cls-29" d="M275.62,352s0-.18.94-.36a1.64,1.64,0,0,1,1.11.12s3,1.3,3.56,7a1,1,0,0,1-.93.88.82.82,0,0,1-1.05-.49.64.64,0,0,0,0-.07S278.61,353,275.62,352Z"/><path class="cls-29" d="M272.4,352.07s.17-.35.87-.34c.89,0,1.1.35,1.1.35s2.14,2.19,2.16,6.94c0,0,.09.81-1,.89s-1-.83-1-.83S274.15,353,272.4,352.07Z"/><path class="cls-4" d="M250.35,278.32c4.9,14.73,17.9,65.46,17.9,65.46s-8.46,7.6-17.64,4.14l-21.87-63.17Z"/><path class="cls-28" d="M288.14,373.53c-1-1.49-4.76-11.81-4.76-11.81s3.92,2.25,10.67.64c3.43-.81,6.64-4.54,6.64-4.54l2.88,9.92c1.7,3.3,7.21,2.21,13.71,1.63,1.09-.1,2.21-.25,3.34-.42h.07c3.5-.11,7,2.08,3.25,5s-9.74,3.87-15.3,4.74C302,379.71,291.89,379.09,288.14,373.53Z"/><path class="cls-11" d="M338.56,373.22a7.36,7.36,0,0,1,.43,3.83c-.17,1.39-3.72,6-9.84,8.74s-13.63,2.74-17.16,3.66-6.79,2.86-10.95,3.76-8.26,1.34-12.33-1.49c-.74-1.2-1.51-3.93-1.26-4.19C288.12,386.83,338.56,373.22,338.56,373.22Z"/><path class="cls-6" d="M304.63,367a12,12,0,0,0,1.23.76,3.71,3.71,0,0,0,1.36.28,20,20,0,0,0,3.28.08c2.74-.14,5.47-.55,8.21-.8,5.63-.5,12-2.32,15.79-.9s7.25,6,1.94,11.61a26,26,0,0,1-7.1,5.4c-6.29,2.63-12.82,2.13-17,3.05-5.4,1.2-8.4,3.5-13.38,4-6.45.58-10.47-1.17-11.54-2.91-.6-1,.06-6-.74-10-.7-3.38-.52-5.68.7-5.52a5.73,5.73,0,0,0,.94,1.19,4.37,4.37,0,0,0,1.43,1.13,11.32,11.32,0,0,0,2.42.82,13.92,13.92,0,0,0,4.49.61,2.12,2.12,0,0,0,1.22-.38,2.62,2.62,0,0,0,.71-1.53c.1-.5.21-1,.31-1.49a2.15,2.15,0,0,1,.28-.78A2.08,2.08,0,0,1,300,371a6.46,6.46,0,0,0,2.46-1.87,5.72,5.72,0,0,0,.72-2.31.55.55,0,0,1,.16-.38c.18-.15.45,0,.65.1Z"/><path class="cls-9" d="M304.63,367a12,12,0,0,0,1.23.76,3.71,3.71,0,0,0,1.36.28,20,20,0,0,0,3.28.08c2.74-.14,5.47-.55,8.21-.8,5.63-.5,12-2.32,15.79-.9s7.25,6,1.94,11.61a26,26,0,0,1-7.1,5.4c-6.29,2.63-12.82,2.13-17,3.05-5.4,1.2-8.4,3.5-13.38,4-6.45.58-10.47-1.17-11.54-2.91-.6-1,.06-6-.74-10-.7-3.38-.52-5.68.7-5.52a5.73,5.73,0,0,0,.94,1.19,4.37,4.37,0,0,0,1.43,1.13,11.32,11.32,0,0,0,2.42.82,13.92,13.92,0,0,0,4.49.61,2.12,2.12,0,0,0,1.22-.38,2.62,2.62,0,0,0,.71-1.53c.1-.5.21-1,.31-1.49a2.15,2.15,0,0,1,.28-.78A2.08,2.08,0,0,1,300,371a6.46,6.46,0,0,0,2.46-1.87,5.72,5.72,0,0,0,.72-2.31.55.55,0,0,1,.16-.38c.18-.15.45,0,.65.1Z"/><path class="cls-29" d="M322.2,375s-.46-5.86-4.74-7.52a2.26,2.26,0,0,0-2.39.26s4,.68,5.14,7.57c0,0,.2.45,1.08.32C321.58,375.54,322.23,375.44,322.2,375Z"/><path class="cls-29" d="M311.38,368.06s0-.19,1-.36a1.78,1.78,0,0,1,1.18.16s3.19,1.48,3.64,7.6a1.1,1.1,0,0,1-1,.92.89.89,0,0,1-1.12-.57s0,0,0-.06S314.57,369.31,311.38,368.06Z"/><path class="cls-29" d="M307.92,368.1s.19-.36.95-.34c.95,0,1.16.41,1.16.41s2.24,2.4,2.14,7.51c0,0,.08.87-1.13.93s-1-.92-1-.92S309.78,369.18,307.92,368.1Z"/><path class="cls-5" d="M284.84,295.71c3.86,11.88,13.72,45.67,18.22,63.05,0,0-8.09,7.27-18.5,6.64l-25.09-65.07,10-6.18Z"/><path class="cls-5" d="M202.23,458.15a1.63,1.63,0,0,0,1.63-1.63h0V351.93a1.63,1.63,0,0,0-3.26,0V456.52A1.63,1.63,0,0,0,202.23,458.15Z"/><path class="cls-5" d="M137.52,420.08a1.61,1.61,0,0,0,1.51-1l32.07-81.17a1.62,1.62,0,1,0-2.91-1.42.85.85,0,0,0-.09.22L136,417.86a1.63,1.63,0,0,0,.91,2.11A1.57,1.57,0,0,0,137.52,420.08Z"/><path class="cls-5" d="M141.37,410.33a1.6,1.6,0,0,0,1.18-.51l59.68-63.15,59.57,62.89a1.63,1.63,0,0,0,2.36-2.24l-60.75-64.13a1.59,1.59,0,0,0-1.18-.51h0a1.59,1.59,0,0,0-1.18.51l-60.86,64.4a1.63,1.63,0,0,0,.06,2.3A1.66,1.66,0,0,0,141.37,410.33Z"/><path class="cls-5" d="M266.94,420.08a1.52,1.52,0,0,0,.6-.11,1.63,1.63,0,0,0,.91-2.11l-32.07-81.18a1.63,1.63,0,0,0-3,1.2l32.08,81.17A1.62,1.62,0,0,0,266.94,420.08Z"/><path class="cls-6" d="M267.72,316.07c1.17-6.56-4.17-11.68-14.23-18.47a237.12,237.12,0,0,0-29.13-16.37c-8.42-3.86-17-3.51-27.79,2-15,7.69-60,35-60,35s67.32,38,80.27,36.3,45.32-22.75,47.89-30.16S267.72,316.07,267.72,316.07Z"/><g class="cls-30"><path d="M267.72,316.07c1.17-6.56-4.17-11.68-14.23-18.47a237.12,237.12,0,0,0-29.13-16.37c-8.42-3.86-17-3.51-27.79,2-15,7.69-60,35-60,35s67.32,38,80.27,36.3,45.32-22.75,47.89-30.16S267.72,316.07,267.72,316.07Z"/></g><path class="cls-6" d="M210.35,346.56c9.66,8.75,19.76,1.22,35.74-9.15,18.09-11.74,21.63-21.34,21.63-21.34s0,7.19-1.35,10.57-4.27,7.19-17.31,16.19S226.57,356.32,217.8,358l-6.92-1"/><path class="cls-8" d="M246.09,337.41c18.09-11.74,21.63-21.34,21.63-21.34s0,7.19-1.35,10.57-4.27,7.19-17.31,16.19S226.57,356.32,217.8,358l-6.92-1-.53-10.47C220,355.31,230.11,347.78,246.09,337.41Z"/><path class="cls-6" d="M140,407.34l-4.95,11.43a1.36,1.36,0,0,0-.06.29v.21a1.41,1.41,0,0,0,.63.77,3,3,0,0,0,2.68.12,1.16,1.16,0,0,0,.55-.52h0v-.16l4.6-10.71Z"/><path class="cls-6" d="M264.73,407.82,269,419a1.41,1.41,0,0,1,0,.29v.2a1.35,1.35,0,0,1-.64.71,2.86,2.86,0,0,1-2.58,0,1.08,1.08,0,0,1-.5-.53h0v-.15l-4-10.52Z"/><path class="cls-6" d="M200.35,448.43v9.25a1,1,0,0,0,.55.77,3,3,0,0,0,2.66,0,.92.92,0,0,0,.54-.77v-9.25A4,4,0,0,0,200.35,448.43Z"/><path class="cls-4" d="M163.54,276.85c3.83,4.46,38.72-5.57,48-6.83,14.9-2,27-3.52,32.1-1.93s7.21,4.17,8.76,10.23c1.83,7.15,2.77,10.79,2.77,10.79s-24.76,9.51-44.3,11.8S163.54,276.85,163.54,276.85Z"/><path class="cls-5" d="M157,283.4c-3.87,14.73-7.34,31.87,1.61,41.26,6,6.32,36.31,22.74,55.85,16.27,19.24-6.37,59.1-36,63.1-38.94s7.63-5,7.25-6.28c-5.37-17.84-13.23-19.23-27.79-16-17.82,3.92-56.92,19.88-56.92,19.88Z"/><polygon class="cls-28" points="245.52 188.64 232.08 203.84 210.38 193.54 225.55 172.55 245.52 188.64"/><path class="cls-31" d="M262.19,159.78s5.5,7.95,4.91,8.76-4.48,1.61-4.48,1.61Z"/><circle class="cls-32" cx="262.15" cy="158.45" r="5.98"/><path class="cls-28" d="M246.92,137.81c10.81,2,14,6.68,15.43,23.74,1.46,17.84-.23,23.49-2.52,25.95-1.55,1.66-10.34,2.15-14.81,1-5.59-1.4-18.25-5.57-24.33-14.41-7.16-10.41-9.31-24.69-2-30.74C228.89,134.87,242.52,137,246.92,137.81Z"/><path class="cls-31" d="M245.52,188.64c4.65,1.06,11.73.42,13.83-.79a15.74,15.74,0,0,1-7.83-.28,25.7,25.7,0,0,1-7.17-3.16Z"/><path class="cls-11" d="M264.35,144.79h0A23.81,23.81,0,0,1,254,148.3c.28,2.9-.63,5.76-1.53,8.53-.62,1.91-2.87,7.92-5.32,4.62-1.77-2.38-3.37-4.55-6.76-4-5.58,1-6.17,8.12-2.54,12.38s6.88,2.51,6.88,2.51.51,7.7-3.55,13.13c0,0-6.05,3.72-14.55.92-5.36-1.76-13.1-8.53-15.95-13.8-7.85-14.53-7.89-28.44,1.63-32.72.88-7,6.27-10.2,12.46-11.78,8.59-2.18,17.51,3.21,25.81-.34,1.75-.75,3.36-1.82,5.15-2.46a3.5,3.5,0,0,1,3.09,0,3.73,3.73,0,0,1,1.32,2.36,6.62,6.62,0,0,1-.33,5,14.37,14.37,0,0,1,3.91-1.44,4.87,4.87,0,0,1,3.94.89,5,5,0,0,1,1.58,3.44C269.58,139.19,267.35,142.71,264.35,144.79Z"/><path class="cls-11" d="M212.19,142.24l-6.52-3.65a3.74,3.74,0,0,1,6.52,3.65Z"/><line class="cls-33" x1="247.15" y1="161.47" x2="268.05" y2="157.56"/><path class="cls-28" d="M290.86,197.52c-.56-.94-1.81-1.12-2.85-1.48-1.92-.67-3.42-2.21-5.27-3a10.23,10.23,0,0,0-6.66-.45,15.5,15.5,0,0,0-2.22.71,28.71,28.71,0,0,0-4,2c-5.3,3.14-9.28,10.22-14.49,13.47-1.94,1.22-3.75,2.32-5.54,3.41l12.44,11.09a73.5,73.5,0,0,1,6.14-4.67c3.06-1.82,6.15-1.86,9.59-2.36a48.45,48.45,0,0,0,7-1.76,3.07,3.07,0,0,0,2.07-1.35,2.08,2.08,0,0,0-1.34-2.56,17.81,17.81,0,0,0-3.63-.49c-.9-.15-3.3.39-3.83-.52-.28-.47.07-1.06.41-1.49,2.16-2.68,4.89-5.57,8.34-6.38a7.27,7.27,0,0,0,3-1.2A2.42,2.42,0,0,0,290.86,197.52Z"/><path class="cls-6" d="M216.47,185.12c-13.21-7.21-25.24-2.58-29.57,6.69-3.93,8.39-12.17,40.84-12.17,40.84C178.69,240.08,216.47,185.12,216.47,185.12Z"/><path class="cls-6" d="M214.49,187.72l2-2.6c-14.92-7.09-28.27,2.22-40,20.51-12.68,19.72-19.33,48-19.39,77.91,0,0,2.53,13.43,19.49,20.15,18,7.12,43.11,4.11,50.94-14.55,0,0,.16-18.64,5.82-27.81,3.67-5.94,12.22-19.14,18.58-28.6,5.54-8.24,9.85-27-1.72-33.85a97.92,97.92,0,0,0-9.41-4.8C230.22,197.55,213.13,191.9,214.49,187.72Z"/><path class="cls-34" d="M214.53,187.79l1.94-2.67c-14.92-7.09-28.27,2.22-40,20.51-12.68,19.72-19.33,48-19.39,77.91,0,0,2.53,13.43,19.49,20.15,18,7.12,43.11,4.11,50.94-14.55,0,0,.16-18.64,5.82-27.81,3.67-5.94,12.22-19.14,18.58-28.6,5.54-8.24,9.85-27-1.72-33.85a97.92,97.92,0,0,0-9.41-4.8C230.22,197.55,213.17,192,214.53,187.79Z"/><path class="cls-35" d="M256.7,220.78a30.28,30.28,0,0,0,.46-10.86h0a58,58,0,0,1-11.26,17.2c-6.07,6.39-13.56,11.37-19.19,18.15-6,7.18-10.25,15.86-15.25,23.71-2,3.15-4.74,9.22-8.46,9.46-4.54.3-8.88-5.24-11.35-9.05-4-6.09-7.34-13.69-12.25-19-4.29-4.67-10.93-10.65-16.77-7.94h0c-.44,1.55-.85,3.12-1.24,4.71s-.75,3.21-1.09,4.83v.18c-.33,1.63-.64,3.25-.93,4.89v.26c-.28,1.61-.53,3.24-.75,4.86a157.91,157.91,0,0,0-1.49,21.4s2.53,13.43,19.49,20.15c18,7.12,43.11,4.11,50.94-14.55,0,0,.16-18.64,5.82-27.81.57-.93,1.27-2,2-3.27h0l.13-.21c.65-1,1.35-2.13,2.11-3.31l.14-.22v-.09c1.62-2.52,3.44-5.33,5.32-8.21l.85-1.31c1.82-2.78,3.67-5.59,5.43-8.24h0c.59-.9,1.17-1.76,1.75-2.62l.72-1.08h0c.2-.3.4-.61.59-.94l.18-.29.42-.75.18-.33.45-.88a1.63,1.63,0,0,1,.11-.23c.19-.39.37-.8.55-1.21v-.12c.16-.37.32-.75.47-1.14a1.19,1.19,0,0,1,.1-.28c.14-.36.28-.73.41-1.11v-.21c.24-.7.46-1.41.66-2.14h0q.3-1.1.54-2.22v-.08Z"/><path class="cls-28" d="M325.89,238.93a30.21,30.21,0,0,1-3.1,3.2c-4.56,4.13-9.89,6.11-16.09,10.14-5,3.25-12.73,8-19.24,12A97.54,97.54,0,0,1,266.51,274c-6.05,1.77-9.43,1.85-13-7.84-1.75-4.75-3.14-9.62-4.66-14.46q-3.37-10.78-6.64-21.61c-3.27-10.83-8-19.83,10-29.78C260,204.79,263,206.6,265.42,216c2.94,11.22,7.7,33.38,7.7,33.38a158.35,158.35,0,0,0,18.59-7.91c2.28-1.14,5.09-1.93,6.72-4a30.62,30.62,0,0,0,2.86-4.45c.77-1.38,1.32-2.89,2.17-4.21a37.29,37.29,0,0,1,5.91-6.51,2.46,2.46,0,0,1,1.43-.85,1.66,1.66,0,0,1,1.45.89c.66,1.15.05,2.29-.29,3.47l-1.16,4a35.37,35.37,0,0,0,11.48-10.76,5.58,5.58,0,0,1,.9-1.15,1.79,1.79,0,0,1,1.34-.49c1.2.15,2.39,2.1,2.45,3.21a17.35,17.35,0,0,0,.09,3.38c.27,1.05,1,1.91,1.31,2.93a17.13,17.13,0,0,1,.68,3.24,11,11,0,0,1-1.82,6.78A16.38,16.38,0,0,1,325.89,238.93Z"/><path class="cls-6" d="M251.08,199.47c6.85,2.78,11.79,5.91,14.91,16.37s6.52,27.24,6.52,27.24.06,3.51-8.26,8.41a20.5,20.5,0,0,1-16.11,2.17l-6.28-20.19S230.72,206.45,251.08,199.47Z"/><path class="cls-6" d="M210.88,357c-5.5-.27-9.81-4.31-22.89-9.77-24.16-10.06-42.28-18.12-49.19-30.77s-11.79-49.18-10.06-65a20.59,20.59,0,0,1,1.18-5.25l-1.7-.25,4.4-3.74h0c4.52-3.69,11.86-.4,17.4,2.61,15.82,8.61,28.19,17,38,47.17,7.35,22.72,12.2,43.44,22.36,54.52"/><path class="cls-36" d="M129.92,246.24l-1.7-.25,4.4-3.74h0c4.52-3.69,11.86-.4,17.4,2.61,15.82,8.61,28.19,17,38,47.17,7.35,22.72,12.2,43.44,22.36,54.52l.53,10.47c-5.5-.27-9.81-4.31-22.89-9.77-24.16-10.06-42.28-18.12-49.19-30.77s-11.79-49.18-10.06-65A20.9,20.9,0,0,1,129.92,246.24Z"/><path class="cls-6" d="M145.44,248.76c15.81,8.61,28.18,17,38,47.17s15.13,56.88,34.4,62.06c0,0-8.71,3.46-35.41-7.83-8.5-3.59-18.81-10.15-25.58-14-13.27-7.45-21.32-13.55-22.59-15.83-7-12.6-11.79-49.18-10.07-65S137.51,244.45,145.44,248.76Z"/></g></g><g id="Speech_Bubble" data-name="Speech Bubble"><g id="Speech_Bubble-2" data-name="Speech Bubble-2"><path class="cls-6" d="M234.34,114.82,230,106.6l3.51-10.14V90.25l-10.75,6.21v6.21l4.62,8a.79.79,0,0,0,.32.28h0Z"/><path class="cls-37" d="M234.34,114.82,230,106.6l3.51-10.14V90.25l-10.75,6.21v6.21l4.62,8a.79.79,0,0,0,.32.28h0Z"/><path class="cls-6" d="M260,40.87a7.15,7.15,0,0,0-3.23-5.58l-2.59-1.52a7.12,7.12,0,0,0-6.45,0L207.45,57.06a7.13,7.13,0,0,0-3.22,5.59V107a7.13,7.13,0,0,0,3.22,5.59l2.63,1.51a7.12,7.12,0,0,0,6.45,0l12.95-7.48,4.62,8a.7.7,0,0,0,1,.24.73.73,0,0,0,.29-.36l4.88-14.08,16.58-9.61a7.15,7.15,0,0,0,3.2-5.62Z"/><path class="cls-37" d="M204.23,107a7.13,7.13,0,0,0,3.22,5.59l2.63,1.51a7.19,7.19,0,0,0,5.9.26c-1.52.58-2.68-.28-2.68-2.12V67.89a6.62,6.62,0,0,1,.95-3.18l-9.08-5.24a6.61,6.61,0,0,0-.94,3.18Z"/><path class="cls-15" d="M259.92,40c-.37-1.37-1.62-1.81-3.11-1L216.53,62.3a6.33,6.33,0,0,0-2.27,2.41l-9.08-5.24a6.64,6.64,0,0,1,2.27-2.41l40.27-23.29a7.18,7.18,0,0,1,6.45,0l2.64,1.52A7.1,7.1,0,0,1,259.92,40Z"/><g id="_" data-name=" "><path class="cls-14" d="M219.23,85.29a2.23,2.23,0,0,1,.16-.92,7.17,7.17,0,0,1,.47-.86l8.76-14.16a1.07,1.07,0,0,1,.14-.16l.1-.08a.27.27,0,0,1,.32,0,.53.53,0,0,1,.14.43V75a2.36,2.36,0,0,1-.26,1.14,6.87,6.87,0,0,1-.44.74l-4.52,6.89,4.52,2.07a1.4,1.4,0,0,1,.44.22c.17.1.26.38.26.83v3.88a1.3,1.3,0,0,1-.14.58.82.82,0,0,1-.32.39h-.1a.33.33,0,0,1-.14,0l-8.76-4a1.25,1.25,0,0,1-.47-.31,1.17,1.17,0,0,1-.16-.73Z"/><path class="cls-14" d="M238.31,63.42a6.63,6.63,0,0,1,.33-.88,1.61,1.61,0,0,1,.64-.68l2.93-1.7a.27.27,0,0,1,.34,0,.59.59,0,0,1,.14.44,1.71,1.71,0,0,1,0,.32l-7.4,31.54a3.77,3.77,0,0,1-.31.85,1.62,1.62,0,0,1-.65.72l-2.87,1.65a.27.27,0,0,1-.34,0,.55.55,0,0,1-.14-.44,1.82,1.82,0,0,1,0-.33Z"/><path class="cls-14" d="M254.4,68.52a2.23,2.23,0,0,1-.16.92,6.1,6.1,0,0,1-.47.87L245,84.46a1.15,1.15,0,0,1-.14.17l-.1.07a.26.26,0,0,1-.33,0,.57.57,0,0,1-.13-.43V78.8a2.19,2.19,0,0,1,.25-1.12c.14-.23.29-.46.45-.68l3.84-6L245,69.57a1.91,1.91,0,0,1-.45-.23c-.17-.12-.25-.4-.25-.85V63a1.29,1.29,0,0,1,.13-.58.92.92,0,0,1,.33-.4H245l8.76,4a1.27,1.27,0,0,1,.47.32,1.17,1.17,0,0,1,.16.73Z"/></g></g></g><g id="Text_Boxes" data-name="Text Boxes"><g id="Text_Box" data-name="Text Box"><g id="_2" data-name=" 2"><g id="Speech_Bubble-3" data-name="Speech Bubble-3"><g id="Speach_Bubble" data-name="Speach Bubble"><path class="cls-11" d="M137.5,35.33l-53.89,31a3,3,0,0,0-1.34,2.32V98.77a2.92,2.92,0,0,0,1.34,2.3l5.32,3a3,3,0,0,0,2.69,0L145.5,73a3,3,0,0,0,1.34-2.32v-30a2.92,2.92,0,0,0-1.34-2.3l-5.32-3A3,3,0,0,0,137.5,35.33Z"/><path class="cls-5" d="M146.82,40.4c-.1-.67-.65-.91-1.32-.53L91.62,70.92a2.67,2.67,0,0,0-1,1l-8-4.6a2.68,2.68,0,0,1,.92-1l53.89-31a3,3,0,0,1,2.68,0l5.32,3A2.93,2.93,0,0,1,146.82,40.4Z"/><path class="cls-4" d="M145.5,39.87,91.62,70.92a2.94,2.94,0,0,0-1.34,2.31v30.08c0,.85.6,1.2,1.34.77L145.5,73a3,3,0,0,0,1.34-2.32v-30C146.84,39.79,146.24,39.45,145.5,39.87Z"/></g></g></g><path class="cls-38" d="M103.6,78.63v4.49a6.41,6.41,0,0,0,.15,1.07,1.71,1.71,0,0,0,.38.76.87.87,0,0,0,.65.3,1.79,1.79,0,0,0,1-.31,3.93,3.93,0,0,0,1-.77,5.29,5.29,0,0,0,.62-.87,4.64,4.64,0,0,0,.37-.89c.08-.3.15-.57.19-.81a3.46,3.46,0,0,1,.19-.7.86.86,0,0,1,.4-.4l2.25-1.3a.2.2,0,0,1,.27,0,.49.49,0,0,1,.11.35,10.15,10.15,0,0,1-.43,2.79,14.26,14.26,0,0,1-2.88,5,8.82,8.82,0,0,1-2.11,1.74,4.44,4.44,0,0,1-2.21.7,2.5,2.5,0,0,1-1.66-.59,3.63,3.63,0,0,1-1.06-1.68,9.36,9.36,0,0,1-.42-2.52V80.3a13.81,13.81,0,0,1,.41-3,15,15,0,0,1,1.06-2.9,12.7,12.7,0,0,1,1.66-2.51A9.15,9.15,0,0,1,105.76,70a4.93,4.93,0,0,1,2.11-.7,2.89,2.89,0,0,1,1.7.41,3.12,3.12,0,0,1,1.13,1.41,5.84,5.84,0,0,1,.43,2.3A1.26,1.26,0,0,1,111,74a.76.76,0,0,1-.27.32l-2.25,1.3c-.2.12-.33.13-.4.06a1.28,1.28,0,0,1-.19-.49,3.81,3.81,0,0,0-.19-.57,1.18,1.18,0,0,0-.37-.46,1,1,0,0,0-.62-.16,2.1,2.1,0,0,0-1,.34,3.6,3.6,0,0,0-1,.82,4.72,4.72,0,0,0-.65,1,5.59,5.59,0,0,0-.38,1.2A9.87,9.87,0,0,0,103.6,78.63Z"/><path class="cls-38" d="M118.24,62.86a4.58,4.58,0,0,1,2-.68,2.94,2.94,0,0,1,1.59.34,2.69,2.69,0,0,1,1,1.09,3.5,3.5,0,0,1,.4,1.55,1.12,1.12,0,0,1-.11.47.72.72,0,0,1-.25.32l-2.26,1.3a.69.69,0,0,1-.39.12.71.71,0,0,1-.3-.15l-.16-.17a.83.83,0,0,0-.32-.2,1.14,1.14,0,0,0-.52,0,2.21,2.21,0,0,0-.75.29,4.38,4.38,0,0,0-.63.43,3.26,3.26,0,0,0-.53.52,2.25,2.25,0,0,0-.38.63,1.88,1.88,0,0,0-.15.74.79.79,0,0,0,.17.57.73.73,0,0,0,.55.17,4.24,4.24,0,0,0,1-.15l1.58-.41a5.13,5.13,0,0,1,1.65-.21,2,2,0,0,1,1.18.44,2.44,2.44,0,0,1,.71,1.18,7.49,7.49,0,0,1,.23,2,9.12,9.12,0,0,1-.39,2.64,11,11,0,0,1-1.11,2.45,10.85,10.85,0,0,1-1.69,2.13,10.51,10.51,0,0,1-2.13,1.62,5.05,5.05,0,0,1-2.13.76,3,3,0,0,1-1.66-.3,2.59,2.59,0,0,1-1.09-1.13,3.79,3.79,0,0,1-.42-1.75,1,1,0,0,1,.12-.47.57.57,0,0,1,.25-.32l2.25-1.3a.72.72,0,0,1,.38-.13.55.55,0,0,1,.27.12l.21.23a1.41,1.41,0,0,0,.37.27,1,1,0,0,0,.58.1,2.07,2.07,0,0,0,.87-.31,6.56,6.56,0,0,0,1.53-1.19,2.14,2.14,0,0,0,.61-1.45.55.55,0,0,0-.23-.53,1.19,1.19,0,0,0-.67-.11,6.23,6.23,0,0,0-1.14.23l-1.64.42a2.48,2.48,0,0,1-2.59-.46,4.64,4.64,0,0,1-.82-3.17,8.9,8.9,0,0,1,.37-2.4,10.89,10.89,0,0,1,1-2.39,10.54,10.54,0,0,1,1.54-2.15A8.38,8.38,0,0,1,118.24,62.86Z"/><path class="cls-38" d="M130.7,55.67a4.46,4.46,0,0,1,2-.68,2.94,2.94,0,0,1,1.59.34,2.63,2.63,0,0,1,1.05,1.09,3.5,3.5,0,0,1,.4,1.55,1,1,0,0,1-.12.47.66.66,0,0,1-.25.32l-2.25,1.3a.69.69,0,0,1-.39.12.85.85,0,0,1-.3-.15l-.16-.17a.83.83,0,0,0-.32-.2,1.32,1.32,0,0,0-.52,0,2,2,0,0,0-.75.3,4.31,4.31,0,0,0-.63.42,5.29,5.29,0,0,0-.54.52,2.48,2.48,0,0,0-.37.63,1.93,1.93,0,0,0-.15.75.78.78,0,0,0,.16.57.73.73,0,0,0,.55.17,4.24,4.24,0,0,0,1-.15l1.58-.41a5.43,5.43,0,0,1,1.65-.22,1.9,1.9,0,0,1,1.18.45,2.44,2.44,0,0,1,.71,1.18,7.49,7.49,0,0,1,.23,2,8.71,8.71,0,0,1-.4,2.64,10.6,10.6,0,0,1-1.11,2.45A10.8,10.8,0,0,1,132.86,73a10.51,10.51,0,0,1-2.13,1.62,5.4,5.4,0,0,1-2.13.76,3,3,0,0,1-1.66-.3,2.62,2.62,0,0,1-1-1.12,3.79,3.79,0,0,1-.42-1.75,1,1,0,0,1,.12-.48.73.73,0,0,1,.24-.31l2.26-1.3a.65.65,0,0,1,.38-.13.55.55,0,0,1,.27.12l.21.22a1.13,1.13,0,0,0,.37.28,1.15,1.15,0,0,0,.58.1,2.08,2.08,0,0,0,.87-.32,6.26,6.26,0,0,0,1.53-1.18,2.14,2.14,0,0,0,.61-1.45.57.57,0,0,0-.23-.54,1.19,1.19,0,0,0-.67-.1,6.21,6.21,0,0,0-1.14.22q-.7.2-1.65.42a2.46,2.46,0,0,1-2.59-.45,4.76,4.76,0,0,1-.81-3.17,9.48,9.48,0,0,1,.33-2.37,11.32,11.32,0,0,1,1-2.38,10.54,10.54,0,0,1,1.54-2.15A8.18,8.18,0,0,1,130.7,55.67Z"/></g><g id="Text_Box-2" data-name="Text Box-2"><g id="_3" data-name=" 3"><g id="Speech_Bubble-4" data-name="Speech Bubble-4"><g id="Speach_Bubble-2" data-name="Speach Bubble-2"><path class="cls-11" d="M137.5,97.84l-53.89,31a2.94,2.94,0,0,0-1.34,2.31v30.08a2.94,2.94,0,0,0,1.34,2.31l5.32,3a3,3,0,0,0,2.69,0l53.88-31a2.94,2.94,0,0,0,1.34-2.31V103.16a2.94,2.94,0,0,0-1.34-2.31l-5.32-3A3,3,0,0,0,137.5,97.84Z"/><path class="cls-5" d="M146.82,102.91c-.1-.67-.65-.91-1.32-.53L91.62,133.43a2.82,2.82,0,0,0-1,1l-8-4.59a2.6,2.6,0,0,1,.92-1l53.89-31a3,3,0,0,1,2.68,0l5.32,3A2.93,2.93,0,0,1,146.82,102.91Z"/><path class="cls-4" d="M145.5,102.39l-53.88,31a3,3,0,0,0-1.34,2.31v30.09c0,.85.6,1.19,1.34.77l53.88-31a2.94,2.94,0,0,0,1.34-2.31V103.16C146.84,102.3,146.24,102,145.5,102.39Z"/></g></g></g><path class="cls-38" d="M103.85,133.94a.26.26,0,0,1,.33,0,.6.6,0,0,1,.14.42v17.12a1.3,1.3,0,0,1-.14.58.92.92,0,0,1-.33.4l-2.25,1.3a.26.26,0,0,1-.33,0,.6.6,0,0,1-.14-.43v-6.49l-3.82,2.21v6.49a1.29,1.29,0,0,1-.13.58.92.92,0,0,1-.33.4l-2.25,1.3a.26.26,0,0,1-.33,0,.53.53,0,0,1-.14-.43V140.27a1.3,1.3,0,0,1,.14-.58.92.92,0,0,1,.33-.4l2.25-1.3a.24.24,0,0,1,.33,0,.59.59,0,0,1,.13.42v6.39l3.82-2.21v-6.38a1.3,1.3,0,0,1,.14-.58.77.77,0,0,1,.33-.4Z"/><path class="cls-38" d="M116.43,126.68a.26.26,0,0,1,.33,0,.6.6,0,0,1,.14.43v2.81a1.3,1.3,0,0,1-.14.58.92.92,0,0,1-.33.4l-3,1.75v13.59a1.29,1.29,0,0,1-.13.58.92.92,0,0,1-.33.4l-2.25,1.3a.24.24,0,0,1-.33,0,.6.6,0,0,1-.14-.42V134.51l-3,1.75a.26.26,0,0,1-.33,0,.59.59,0,0,1-.13-.42V133a1.29,1.29,0,0,1,.13-.58.92.92,0,0,1,.33-.4Z"/><path class="cls-38" d="M124.34,136a1.19,1.19,0,0,1-.23-.31l-1.62-3.43V141a1.35,1.35,0,0,1-.14.59.92.92,0,0,1-.33.4l-2.25,1.3a.26.26,0,0,1-.33,0,.6.6,0,0,1-.14-.43V125.74a1.3,1.3,0,0,1,.14-.58.89.89,0,0,1,.33-.41l2-1.15c.22-.13.4-.13.51,0a1.28,1.28,0,0,1,.23.29l2.78,5.73,2.79-9a2.4,2.4,0,0,1,.22-.55,1.3,1.3,0,0,1,.52-.59l2-1.15a.22.22,0,0,1,.32,0,.6.6,0,0,1,.14.42v17.12a1.3,1.3,0,0,1-.14.58.83.83,0,0,1-.32.4l-2.26,1.3a.26.26,0,0,1-.33,0,.59.59,0,0,1-.13-.42V129l-1.62,5.3a3.57,3.57,0,0,1-.23.57,1,1,0,0,1-.41.46l-1.1.64C124.57,136.08,124.44,136.08,124.34,136Z"/><path class="cls-38" d="M143,125.66a.26.26,0,0,1,.33,0,.6.6,0,0,1,.14.43v2.8a1.35,1.35,0,0,1-.14.59.92.92,0,0,1-.33.4l-8,4.6a.26.26,0,0,1-.33,0,.58.58,0,0,1-.14-.42V116.94a1.35,1.35,0,0,1,.14-.59A.93.93,0,0,1,135,116l2.25-1.3a.26.26,0,0,1,.33,0,.57.57,0,0,1,.13.43v13.56Z"/></g><g id="Text_Box-3" data-name="Text Box-3"><g id="_4" data-name=" 4"><g id="Speech_Bubble-5" data-name="Speech Bubble-5"><g id="Speach_Bubble-3" data-name="Speach Bubble-3"><path class="cls-11" d="M137.5,160.36l-53.89,31a3,3,0,0,0-1.34,2.32V223.8a2.92,2.92,0,0,0,1.34,2.3l5.32,3a3,3,0,0,0,2.69,0l53.88-31a3,3,0,0,0,1.34-2.32V165.67a2.92,2.92,0,0,0-1.34-2.3l-5.32-3A3,3,0,0,0,137.5,160.36Z"/><path class="cls-5" d="M146.82,165.43c-.1-.67-.65-.92-1.32-.53l-53.88,31a2.82,2.82,0,0,0-1,1l-8-4.59a2.62,2.62,0,0,1,.92-.95l53.89-31.05a3,3,0,0,1,2.68,0l5.32,3A2.94,2.94,0,0,1,146.82,165.43Z"/><path class="cls-4" d="M145.5,164.9l-53.88,31a3,3,0,0,0-1.34,2.32V228.3c0,.85.6,1.2,1.34.77l53.88-31a3,3,0,0,0,1.34-2.32V165.67C146.84,164.82,146.24,164.47,145.5,164.9Z"/></g></g></g><path class="cls-38" d="M104.64,203.05v4.48a6.43,6.43,0,0,0,.16,1.07,1.74,1.74,0,0,0,.38.77.93.93,0,0,0,.65.29,1.77,1.77,0,0,0,1-.31,3.93,3.93,0,0,0,1-.77,6,6,0,0,0,.62-.87,4.64,4.64,0,0,0,.37-.89c.08-.3.15-.57.19-.8a3.55,3.55,0,0,1,.19-.71,1,1,0,0,1,.4-.4l2.25-1.3a.2.2,0,0,1,.27,0,.47.47,0,0,1,.11.34,10.15,10.15,0,0,1-.43,2.79,12.32,12.32,0,0,1-1.14,2.73,12.69,12.69,0,0,1-1.69,2.36,8.82,8.82,0,0,1-2.11,1.74,4.55,4.55,0,0,1-2.21.71,2.56,2.56,0,0,1-1.66-.6,3.63,3.63,0,0,1-1.06-1.68,9.36,9.36,0,0,1-.42-2.52v-4.72a13.81,13.81,0,0,1,.41-3,15.13,15.13,0,0,1,1.06-2.91,12.7,12.7,0,0,1,1.66-2.51,9.15,9.15,0,0,1,2.22-1.85,4.93,4.93,0,0,1,2.11-.7,2.79,2.79,0,0,1,1.69.42,2.92,2.92,0,0,1,1.14,1.41,5.82,5.82,0,0,1,.43,2.29,1.13,1.13,0,0,1-.11.48.76.76,0,0,1-.27.32L109.6,200c-.2.12-.33.14-.4.06a1.22,1.22,0,0,1-.19-.49,3.81,3.81,0,0,0-.19-.57,1.11,1.11,0,0,0-.37-.46,1,1,0,0,0-.62-.16,2.1,2.1,0,0,0-1,.34,3.6,3.6,0,0,0-1,.82,4.72,4.72,0,0,0-.65,1,5.59,5.59,0,0,0-.38,1.2A10.42,10.42,0,0,0,104.64,203.05Z"/><path class="cls-38" d="M120.44,199.52v4.37a1.3,1.3,0,0,1-.14.58.83.83,0,0,1-.32.4l-2.17,1.25a.24.24,0,0,1-.33,0,.6.6,0,0,1-.14-.42v-4.37l-2.66,1.54a.26.26,0,0,1-.33,0,.6.6,0,0,1-.14-.42v-2.68a1.3,1.3,0,0,1,.14-.58.92.92,0,0,1,.33-.4l2.66-1.54v-4.37a1.3,1.3,0,0,1,.14-.58.89.89,0,0,1,.33-.41l2.17-1.25a.24.24,0,0,1,.32,0,.58.58,0,0,1,.14.42v4.37l2.65-1.53a.26.26,0,0,1,.33,0,.54.54,0,0,1,.14.42V197a1.35,1.35,0,0,1-.14.59.92.92,0,0,1-.33.4Z"/><path class="cls-38" d="M131.85,192.93v4.37a1.3,1.3,0,0,1-.14.58.89.89,0,0,1-.33.41l-2.16,1.25a.26.26,0,0,1-.33,0,.58.58,0,0,1-.14-.42v-4.37l-2.67,1.54a.24.24,0,0,1-.32,0,.6.6,0,0,1-.14-.43v-2.67a1.35,1.35,0,0,1,.14-.59,1,1,0,0,1,.32-.4l2.67-1.54v-4.37a1.3,1.3,0,0,1,.14-.58.77.77,0,0,1,.33-.4l2.16-1.25a.24.24,0,0,1,.33,0,.6.6,0,0,1,.14.42v4.37l2.65-1.53a.26.26,0,0,1,.33,0,.59.59,0,0,1,.13.42v2.68a1.29,1.29,0,0,1-.13.58.92.92,0,0,1-.33.4Z"/></g></g></g></g></g></svg>